<svg width="26" height="49" viewBox="0 0 26 49" fill="none" xmlns="http://www.w3.org/2000/svg">
<path d="M12.201 1.73688L13.4178 6.19863C13.4713 6.39487 13.4637 6.60276 13.396 6.79457L10.557 14.8385C10.5193 14.9454 10.5 15.0579 10.5 15.1713V20.2036C10.5 20.3673 10.3673 20.5 10.2036 20.5C10.0809 20.5 9.97095 20.4245 9.92692 20.31L3.02268 2.35898C2.77076 1.70398 3.25425 1 3.95603 1H11.2362C11.6872 1 12.0823 1.30182 12.201 1.73688Z" fill="#D9D9D9" stroke="black"/>
<path d="M9 24V22.2071C9 21.7544 9.17986 21.3201 9.5 21V21C9.82014 20.6799 10.2544 20.5 10.7071 20.5H14.691C15.1868 20.5 15.6401 20.7801 15.8618 21.2236V21.2236C15.9527 21.4054 16 21.6058 16 21.809V24" stroke="black"/>
<path d="M9 24H16" stroke="black"/>
<path d="M9 24H16" stroke="black"/>
<circle cx="13" cy="35.5" r="12.5" fill="#FFB800" stroke="black"/>
<path d="M10.5 15.1732V19.5C10.5 20.0523 10.9477 20.5 11.5 20.5H15.0109C15.3195 20.5 15.6108 20.3575 15.8003 20.1139L18.9392 16.0782C18.9796 16.0262 19.0148 15.9703 19.0443 15.9114L21.5 11L24.9514 2.37139C25.2142 1.71453 24.7304 1 24.023 1H16.2047C15.7821 1 15.4051 1.26567 15.263 1.66366L10.5583 14.8369C10.5197 14.9448 10.5 15.0586 10.5 15.1732Z" fill="white" stroke="black"/>
<circle cx="12.95" cy="35.55" r="11.25" fill="#FACC15"/>
<path d="M13.1926 40.6098V41H12.8024V40.6098H13.1926ZM13.1926 40.2195V40.6098H12.8024V40.2195H13.1926ZM13.1926 39.8293V40.2195H12.8024V39.8293H13.1926ZM13.1926 39.439V39.8293H12.8024V39.439H13.1926ZM13.1926 39.0488V39.439H12.8024V39.0488H13.1926ZM13.1926 38.6585V39.0488H12.8024V38.6585H13.1926ZM13.1926 38.2683V38.6585H12.8024V38.2683H13.1926ZM13.1926 37.878V38.2683H12.8024V37.878H13.1926ZM13.1926 37.4878V37.878H12.8024V37.4878H13.1926ZM13.1926 37.0976V37.4878H12.8024V37.0976H13.1926ZM13.1926 36.7073V37.0976H12.8024V36.7073H13.1926ZM13.1926 36.3171V36.7073H12.8024V36.3171H13.1926ZM13.1926 35.9268V36.3171H12.8024V35.9268H13.1926ZM13.1926 35.5366V35.9268H12.8024V35.5366H13.1926ZM13.1926 35.1463V35.5366H12.8024V35.1463H13.1926ZM13.5829 35.1463V35.5366H13.1926V35.1463H13.5829ZM13.5829 35.5366V35.9268H13.1926V35.5366H13.5829ZM13.5829 35.9268V36.3171H13.1926V35.9268H13.5829ZM13.5829 36.3171V36.7073H13.1926V36.3171H13.5829ZM13.5829 36.7073V37.0976H13.1926V36.7073H13.5829ZM13.5829 37.0976V37.4878H13.1926V37.0976H13.5829ZM13.5829 37.4878V37.878H13.1926V37.4878H13.5829ZM13.9731 37.878V38.2683H13.5829V37.878H13.9731ZM13.9731 38.2683V38.6585H13.5829V38.2683H13.9731ZM13.9731 38.6585V39.0488H13.5829V38.6585H13.9731ZM13.9731 39.0488V39.439H13.5829V39.0488H13.9731ZM13.9731 39.439V39.8293H13.5829V39.439H13.9731ZM13.9731 39.8293V40.2195H13.5829V39.8293H13.9731ZM13.9731 40.2195V40.6098H13.5829V40.2195H13.9731ZM13.9731 40.6098V41H13.5829V40.6098H13.9731ZM14.3634 40.6098V41H13.9731V40.6098H14.3634ZM14.7536 40.6098V41H14.3634V40.6098H14.7536ZM14.7536 40.2195V40.6098H14.3634V40.2195H14.7536ZM14.7536 39.8293V40.2195H14.3634V39.8293H14.7536ZM14.7536 39.439V39.8293H14.3634V39.439H14.7536ZM14.7536 39.0488V39.439H14.3634V39.0488H14.7536ZM14.7536 38.6585V39.0488H14.3634V38.6585H14.7536ZM14.7536 38.2683V38.6585H14.3634V38.2683H14.7536ZM14.7536 37.878V38.2683H14.3634V37.878H14.7536ZM14.3634 37.878V38.2683H13.9731V37.878H14.3634ZM14.3634 37.4878V37.878H13.9731V37.4878H14.3634ZM14.3634 38.2683V38.6585H13.9731V38.2683H14.3634ZM14.3634 38.6585V39.0488H13.9731V38.6585H14.3634ZM14.3634 39.0488V39.439H13.9731V39.0488H14.3634ZM14.3634 39.439V39.8293H13.9731V39.439H14.3634ZM14.3634 39.8293V40.2195H13.9731V39.8293H14.3634ZM14.3634 40.2195V40.6098H13.9731V40.2195H14.3634ZM13.5829 40.6098V41H13.1926V40.6098H13.5829ZM13.5829 40.2195V40.6098H13.1926V40.2195H13.5829ZM13.5829 39.8293V40.2195H13.1926V39.8293H13.5829ZM13.5829 39.439V39.8293H13.1926V39.439H13.5829ZM13.5829 39.0488V39.439H13.1926V39.0488H13.5829ZM13.5829 38.6585V39.0488H13.1926V38.6585H13.5829ZM13.5829 38.2683V38.6585H13.1926V38.2683H13.5829ZM13.5829 37.878V38.2683H13.1926V37.878H13.5829ZM13.1926 31.2439V31.6341H12.8024V31.2439H13.1926ZM13.1926 31.6341V32.0244H12.8024V31.6341H13.1926ZM13.1926 32.0244V32.4146H12.8024V32.0244H13.1926ZM13.1926 32.4146V32.8049H12.8024V32.4146H13.1926ZM13.1926 32.8049V33.1951H12.8024V32.8049H13.1926ZM13.1926 33.1951V33.5854H12.8024V33.1951H13.1926ZM13.1926 33.5854V33.9756H12.8024V33.5854H13.1926ZM13.1926 33.9756V34.3659H12.8024V33.9756H13.1926ZM13.1926 34.3659V34.7561H12.8024V34.3659H13.1926ZM13.1926 34.7561V35.1463H12.8024V34.7561H13.1926ZM14.3634 31.2439V31.6341H13.9731V31.2439H14.3634ZM14.3634 31.6341V32.0244H13.9731V31.6341H14.3634ZM14.3634 32.0244V32.4146H13.9731V32.0244H14.3634ZM14.3634 32.4146V32.8049H13.9731V32.4146H14.3634ZM14.3634 32.8049V33.1951H13.9731V32.8049H14.3634ZM14.3634 33.1951V33.5854H13.9731V33.1951H14.3634ZM14.3634 33.9756V34.3659H13.9731V33.9756H14.3634ZM14.3634 34.3659V34.7561H13.9731V34.3659H14.3634ZM14.3634 34.7561V35.1463H13.9731V34.7561H14.3634ZM14.3634 35.1463V35.5366H13.9731V35.1463H14.3634ZM14.3634 35.5366V35.9268H13.9731V35.5366H14.3634ZM14.3634 35.9268V36.3171H13.9731V35.9268H14.3634ZM14.3634 36.3171V36.7073H13.9731V36.3171H14.3634ZM14.7536 36.7073V37.0976H14.3634V36.7073H14.7536ZM14.7536 37.0976V37.4878H14.3634V37.0976H14.7536ZM14.7536 37.4878V37.878H14.3634V37.4878H14.7536ZM14.7536 36.3171V36.7073H14.3634V36.3171H14.7536ZM14.7536 35.9268V36.3171H14.3634V35.9268H14.7536ZM14.7536 35.5366V35.9268H14.3634V35.5366H14.7536ZM14.7536 35.1463V35.5366H14.3634V35.1463H14.7536ZM14.7536 34.7561V35.1463H14.3634V34.7561H14.7536ZM14.7536 34.3659V34.7561H14.3634V34.3659H14.7536ZM14.7536 33.9756V34.3659H14.3634V33.9756H14.7536ZM14.7536 33.5854V33.9756H14.3634V33.5854H14.7536ZM14.7536 33.1951V33.5854H14.3634V33.1951H14.7536ZM14.7536 32.8049V33.1951H14.3634V32.8049H14.7536ZM14.3634 33.5854V33.9756H13.9731V33.5854H14.3634ZM14.7536 32.4146V32.8049H14.3634V32.4146H14.7536ZM14.7536 32.0244V32.4146H14.3634V32.0244H14.7536ZM14.7536 31.6341V32.0244H14.3634V31.6341H14.7536ZM14.7536 31.2439V31.6341H14.3634V31.2439H14.7536ZM13.9731 31.2439V31.6341H13.5829V31.2439H13.9731ZM13.5829 31.2439V31.6341H13.1926V31.2439H13.5829ZM13.5829 31.6341V32.0244H13.1926V31.6341H13.5829ZM13.9731 31.6341V32.0244H13.5829V31.6341H13.9731ZM13.9731 32.0244V32.4146H13.5829V32.0244H13.9731ZM13.9731 32.4146V32.8049H13.5829V32.4146H13.9731ZM13.9731 32.8049V33.1951H13.5829V32.8049H13.9731ZM13.9731 33.1951V33.5854H13.5829V33.1951H13.9731ZM13.9731 33.5854V33.9756H13.5829V33.5854H13.9731ZM13.9731 33.9756V34.3659H13.5829V33.9756H13.9731ZM13.5829 34.3659V34.7561H13.1926V34.3659H13.5829ZM13.5829 34.7561V35.1463H13.1926V34.7561H13.5829ZM13.5829 33.9756V34.3659H13.1926V33.9756H13.5829ZM13.5829 33.5854V33.9756H13.1926V33.5854H13.5829ZM13.5829 33.1951V33.5854H13.1926V33.1951H13.5829ZM13.5829 32.8049V33.1951H13.1926V32.8049H13.5829ZM13.5829 32.4146V32.8049H13.1926V32.4146H13.5829ZM13.5829 32.0244V32.4146H13.1926V32.0244H13.5829ZM13.9731 34.3659V34.7561H13.5829V34.3659H13.9731ZM13.9731 34.7561V35.1463H13.5829V34.7561H13.9731ZM13.9731 35.1463V35.5366H13.5829V35.1463H13.9731ZM13.9731 35.5366V35.9268H13.5829V35.5366H13.9731ZM13.9731 35.9268V36.3171H13.5829V35.9268H13.9731ZM13.9731 36.3171V36.7073H13.5829V36.3171H13.9731ZM13.9731 36.7073V37.0976H13.5829V36.7073H13.9731ZM13.9731 37.0976V37.4878H13.5829V37.0976H13.9731ZM13.9731 37.4878V37.878H13.5829V37.4878H13.9731ZM14.3634 37.0976V37.4878H13.9731V37.0976H14.3634ZM14.3634 36.7073V37.0976H13.9731V36.7073H14.3634ZM12.8024 31.2439V31.6341H12.4122V31.2439H12.8024ZM12.4122 31.2439V31.6341H12.0219V31.2439H12.4122ZM12.0219 31.2439V31.6341H11.6317V31.2439H12.0219ZM11.6317 31.2439V31.6341H11.2414V31.2439H11.6317ZM11.6317 31.6341V32.0244H11.2414V31.6341H11.6317ZM11.6317 32.0244V32.4146H11.2414V32.0244H11.6317ZM11.6317 32.4146V32.8049H11.2414V32.4146H11.6317ZM11.6317 32.8049V33.1951H11.2414V32.8049H11.6317ZM12.0219 32.8049V33.1951H11.6317V32.8049H12.0219ZM12.4122 32.8049V33.1951H12.0219V32.8049H12.4122ZM12.8024 32.8049V33.1951H12.4122V32.8049H12.8024ZM12.8024 32.4146V32.8049H12.4122V32.4146H12.8024ZM12.8024 32.0244V32.4146H12.4122V32.0244H12.8024ZM12.8024 31.6341V32.0244H12.4122V31.6341H12.8024ZM12.4122 31.6341V32.0244H12.0219V31.6341H12.4122ZM12.0219 31.6341V32.0244H11.6317V31.6341H12.0219ZM12.0219 32.0244V32.4146H11.6317V32.0244H12.0219ZM12.0219 32.4146V32.8049H11.6317V32.4146H12.0219ZM12.4122 32.4146V32.8049H12.0219V32.4146H12.4122ZM12.4122 32.0244V32.4146H12.0219V32.0244H12.4122Z" fill="black"/>
</svg>
