<svg width="26" height="49" viewBox="0 0 26 49" fill="none" xmlns="http://www.w3.org/2000/svg">
<path d="M12.201 1.73688L13.4178 6.19863C13.4713 6.39487 13.4637 6.60276 13.396 6.79457L10.557 14.8385C10.5193 14.9454 10.5 15.0579 10.5 15.1713V20.2036C10.5 20.3673 10.3673 20.5 10.2036 20.5C10.0809 20.5 9.97095 20.4245 9.92692 20.31L3.02268 2.35898C2.77076 1.70398 3.25425 1 3.95603 1H11.2362C11.6872 1 12.0823 1.30182 12.201 1.73688Z" fill="#D9D9D9" stroke="black"/>
<path d="M9 24V22.2071C9 21.7544 9.17986 21.3201 9.5 21V21C9.82014 20.6799 10.2544 20.5 10.7071 20.5H14.691C15.1868 20.5 15.6401 20.7801 15.8618 21.2236V21.2236C15.9527 21.4054 16 21.6058 16 21.809V24" stroke="black"/>
<path d="M9 24H16" stroke="black"/>
<path d="M9 24H16" stroke="black"/>
<circle cx="13" cy="35.5" r="12.5" fill="#949494" stroke="black"/>
<path d="M10.5 15.1732V19.5C10.5 20.0523 10.9477 20.5 11.5 20.5H15.0109C15.3195 20.5 15.6108 20.3575 15.8003 20.1139L18.9392 16.0782C18.9796 16.0262 19.0148 15.9703 19.0443 15.9114L21.5 11L24.9514 2.37139C25.2142 1.71453 24.7304 1 24.023 1H16.2047C15.7821 1 15.4051 1.26567 15.263 1.66366L10.5583 14.8369C10.5197 14.9448 10.5 15.0586 10.5 15.1732Z" fill="white" stroke="black"/>
<circle cx="12.95" cy="35.55" r="11.25" fill="#CDCDCD"/>
<path d="M11.8255 33.5854V33.9756H11.4352V33.5854H11.8255ZM11.4352 33.5854V33.9756H11.045V33.5854H11.4352ZM11.045 33.5854V33.9756H10.6547V33.5854H11.045ZM10.6547 33.5854V33.9756H10.2645V33.5854H10.6547ZM10.2645 33.5854V33.9756H9.87424V33.5854H10.2645ZM10.2645 33.1951V33.5854H9.87424V33.1951H10.2645ZM10.2645 32.8049V33.1951H9.87424V32.8049H10.2645ZM10.6547 32.8049V33.1951H10.2645V32.8049H10.6547ZM10.6547 32.4146V32.8049H10.2645V32.4146H10.6547ZM10.6547 32.0244V32.4146H10.2645V32.0244H10.6547ZM11.045 32.0244V32.4146H10.6547V32.0244H11.045ZM11.045 31.6341V32.0244H10.6547V31.6341H11.045ZM11.4352 31.6341V32.0244H11.045V31.6341H11.4352ZM11.8255 31.6341V32.0244H11.4352V31.6341H11.8255ZM11.8255 31.2439V31.6341H11.4352V31.2439H11.8255ZM12.2157 31.2439V31.6341H11.8255V31.2439H12.2157ZM12.6059 31.2439V31.6341H12.2157V31.2439H12.6059ZM12.9962 31.2439V31.6341H12.6059V31.2439H12.9962ZM13.3864 31.2439V31.6341H12.9962V31.2439H13.3864ZM13.3864 31.6341V32.0244H12.9962V31.6341H13.3864ZM13.7767 31.6341V32.0244H13.3864V31.6341H13.7767ZM14.1669 31.6341V32.0244H13.7767V31.6341H14.1669ZM14.1669 31.2439V31.6341H13.7767V31.2439H14.1669ZM14.5572 31.2439V31.6341H14.1669V31.2439H14.5572ZM13.7767 31.2439V31.6341H13.3864V31.2439H13.7767ZM14.5572 31.6341V32.0244H14.1669V31.6341H14.5572ZM14.9474 31.6341V32.0244H14.5572V31.6341H14.9474ZM15.3377 31.6341V32.0244H14.9474V31.6341H15.3377ZM15.3377 32.0244V32.4146H14.9474V32.0244H15.3377ZM15.7279 32.0244V32.4146H15.3377V32.0244H15.7279ZM15.7279 32.4146V32.8049H15.3377V32.4146H15.7279ZM15.7279 32.8049V33.1951H15.3377V32.8049H15.7279ZM16.1181 32.8049V33.1951H15.7279V32.8049H16.1181ZM16.1181 33.1951V33.5854H15.7279V33.1951H16.1181ZM16.1181 33.5854V33.9756H15.7279V33.5854H16.1181ZM16.1181 33.9756V34.3659H15.7279V33.9756H16.1181ZM16.1181 34.3659V34.7561H15.7279V34.3659H16.1181ZM15.7279 34.3659V34.7561H15.3377V34.3659H15.7279ZM15.3377 34.3659V34.7561H14.9474V34.3659H15.3377ZM14.9474 34.3659V34.7561H14.5572V34.3659H14.9474ZM14.9474 33.9756V34.3659H14.5572V33.9756H14.9474ZM14.5572 33.9756V34.3659H14.1669V33.9756H14.5572ZM14.5572 33.5854V33.9756H14.1669V33.5854H14.5572ZM14.5572 33.1951V33.5854H14.1669V33.1951H14.5572ZM14.9474 33.1951V33.5854H14.5572V33.1951H14.9474ZM15.3377 33.1951V33.5854H14.9474V33.1951H15.3377ZM15.7279 33.1951V33.5854H15.3377V33.1951H15.7279ZM15.7279 33.5854V33.9756H15.3377V33.5854H15.7279ZM15.7279 33.9756V34.3659H15.3377V33.9756H15.7279ZM15.3377 33.5854V33.9756H14.9474V33.5854H15.3377ZM14.9474 33.5854V33.9756H14.5572V33.5854H14.9474ZM15.3377 33.9756V34.3659H14.9474V33.9756H15.3377ZM15.3377 32.8049V33.1951H14.9474V32.8049H15.3377ZM14.9474 32.8049V33.1951H14.5572V32.8049H14.9474ZM14.5572 32.8049V33.1951H14.1669V32.8049H14.5572ZM14.1669 32.8049V33.1951H13.7767V32.8049H14.1669ZM14.1669 33.1951V33.5854H13.7767V33.1951H14.1669ZM13.7767 32.8049V33.1951H13.3864V32.8049H13.7767ZM13.3864 32.8049V33.1951H12.9962V32.8049H13.3864ZM12.9962 32.8049V33.1951H12.6059V32.8049H12.9962ZM12.6059 32.8049V33.1951H12.2157V32.8049H12.6059ZM12.2157 32.8049V33.1951H11.8255V32.8049H12.2157ZM12.2157 33.1951V33.5854H11.8255V33.1951H12.2157ZM11.8255 33.1951V33.5854H11.4352V33.1951H11.8255ZM11.4352 33.1951V33.5854H11.045V33.1951H11.4352ZM11.045 33.1951V33.5854H10.6547V33.1951H11.045ZM10.6547 33.1951V33.5854H10.2645V33.1951H10.6547ZM11.045 32.8049V33.1951H10.6547V32.8049H11.045ZM11.4352 32.8049V33.1951H11.045V32.8049H11.4352ZM11.8255 32.8049V33.1951H11.4352V32.8049H11.8255ZM11.045 32.4146V32.8049H10.6547V32.4146H11.045ZM11.4352 32.4146V32.8049H11.045V32.4146H11.4352ZM11.8255 32.4146V32.8049H11.4352V32.4146H11.8255ZM12.2157 32.4146V32.8049H11.8255V32.4146H12.2157ZM12.6059 32.4146V32.8049H12.2157V32.4146H12.6059ZM12.9962 32.4146V32.8049H12.6059V32.4146H12.9962ZM13.3864 32.4146V32.8049H12.9962V32.4146H13.3864ZM13.7767 32.4146V32.8049H13.3864V32.4146H13.7767ZM14.1669 32.4146V32.8049H13.7767V32.4146H14.1669ZM14.5572 32.4146V32.8049H14.1669V32.4146H14.5572ZM14.9474 32.4146V32.8049H14.5572V32.4146H14.9474ZM15.3377 32.4146V32.8049H14.9474V32.4146H15.3377ZM14.9474 32.0244V32.4146H14.5572V32.0244H14.9474ZM14.5572 32.0244V32.4146H14.1669V32.0244H14.5572ZM14.1669 32.0244V32.4146H13.7767V32.0244H14.1669ZM13.7767 32.0244V32.4146H13.3864V32.0244H13.7767ZM13.3864 32.0244V32.4146H12.9962V32.0244H13.3864ZM12.9962 32.0244V32.4146H12.6059V32.0244H12.9962ZM12.6059 32.0244V32.4146H12.2157V32.0244H12.6059ZM12.2157 32.0244V32.4146H11.8255V32.0244H12.2157ZM11.8255 32.0244V32.4146H11.4352V32.0244H11.8255ZM11.4352 32.0244V32.4146H11.045V32.0244H11.4352ZM12.2157 31.6341V32.0244H11.8255V31.6341H12.2157ZM12.6059 31.6341V32.0244H12.2157V31.6341H12.6059ZM12.9962 31.6341V32.0244H12.6059V31.6341H12.9962ZM16.1181 39.0488V39.439H15.7279V39.0488H16.1181ZM16.1181 39.439V39.8293H15.7279V39.439H16.1181ZM16.1181 39.8293V40.2195H15.7279V39.8293H16.1181ZM16.1181 40.2195V40.6098H15.7279V40.2195H16.1181ZM16.1181 40.6098V41H15.7279V40.6098H16.1181ZM15.7279 40.6098V41H15.3377V40.6098H15.7279ZM15.3377 40.6098V41H14.9474V40.6098H15.3377ZM14.9474 40.6098V41H14.5572V40.6098H14.9474ZM14.5572 40.6098V41H14.1669V40.6098H14.5572ZM14.1669 40.6098V41H13.7767V40.6098H14.1669ZM13.7767 40.6098V41H13.3864V40.6098H13.7767ZM13.3864 40.6098V41H12.9962V40.6098H13.3864ZM12.9962 40.6098V41H12.6059V40.6098H12.9962ZM12.6059 40.6098V41H12.2157V40.6098H12.6059ZM12.2157 40.6098V41H11.8255V40.6098H12.2157ZM11.8255 40.6098V41H11.4352V40.6098H11.8255ZM11.4352 40.6098V41H11.045V40.6098H11.4352ZM11.045 40.6098V41H10.6547V40.6098H11.045ZM10.6547 40.6098V41H10.2645V40.6098H10.6547ZM10.6547 40.2195V40.6098H10.2645V40.2195H10.6547ZM10.2645 40.2195V40.6098H9.87424V40.2195H10.2645ZM10.2645 40.6098V41H9.87424V40.6098H10.2645ZM10.2645 39.8293V40.2195H9.87424V39.8293H10.2645ZM10.2645 39.439V39.8293H9.87424V39.439H10.2645ZM10.6547 39.0488V39.439H10.2645V39.0488H10.6547ZM11.045 39.0488V39.439H10.6547V39.0488H11.045ZM11.4352 39.0488V39.439H11.045V39.0488H11.4352ZM11.8255 39.0488V39.439H11.4352V39.0488H11.8255ZM12.2157 39.0488V39.439H11.8255V39.0488H12.2157ZM12.6059 39.0488V39.439H12.2157V39.0488H12.6059ZM12.9962 39.0488V39.439H12.6059V39.0488H12.9962ZM13.3864 39.0488V39.439H12.9962V39.0488H13.3864ZM13.7767 39.0488V39.439H13.3864V39.0488H13.7767ZM14.1669 39.0488V39.439H13.7767V39.0488H14.1669ZM14.5572 39.0488V39.439H14.1669V39.0488H14.5572ZM14.9474 39.0488V39.439H14.5572V39.0488H14.9474ZM15.3377 39.0488V39.439H14.9474V39.0488H15.3377ZM15.3377 39.439V39.8293H14.9474V39.439H15.3377ZM15.7279 39.439V39.8293H15.3377V39.439H15.7279ZM15.7279 39.0488V39.439H15.3377V39.0488H15.7279ZM15.7279 39.8293V40.2195H15.3377V39.8293H15.7279ZM15.3377 39.8293V40.2195H14.9474V39.8293H15.3377ZM15.3377 40.2195V40.6098H14.9474V40.2195H15.3377ZM15.7279 40.2195V40.6098H15.3377V40.2195H15.7279ZM14.9474 40.2195V40.6098H14.5572V40.2195H14.9474ZM14.5572 40.2195V40.6098H14.1669V40.2195H14.5572ZM14.1669 40.2195V40.6098H13.7767V40.2195H14.1669ZM13.7767 40.2195V40.6098H13.3864V40.2195H13.7767ZM13.3864 40.2195V40.6098H12.9962V40.2195H13.3864ZM12.9962 40.2195V40.6098H12.6059V40.2195H12.9962ZM12.6059 40.2195V40.6098H12.2157V40.2195H12.6059ZM12.2157 40.2195V40.6098H11.8255V40.2195H12.2157ZM11.8255 40.2195V40.6098H11.4352V40.2195H11.8255ZM11.4352 40.2195V40.6098H11.045V40.2195H11.4352ZM11.045 40.2195V40.6098H10.6547V40.2195H11.045ZM11.045 39.8293V40.2195H10.6547V39.8293H11.045ZM10.6547 39.8293V40.2195H10.2645V39.8293H10.6547ZM10.6547 39.439V39.8293H10.2645V39.439H10.6547ZM11.045 39.439V39.8293H10.6547V39.439H11.045ZM11.4352 39.439V39.8293H11.045V39.439H11.4352ZM11.8255 39.439V39.8293H11.4352V39.439H11.8255ZM12.2157 39.439V39.8293H11.8255V39.439H12.2157ZM12.6059 39.439V39.8293H12.2157V39.439H12.6059ZM14.9474 39.439V39.8293H14.5572V39.439H14.9474ZM14.5572 39.439V39.8293H14.1669V39.439H14.5572ZM14.1669 39.439V39.8293H13.7767V39.439H14.1669ZM13.7767 39.439V39.8293H13.3864V39.439H13.7767ZM13.3864 39.439V39.8293H12.9962V39.439H13.3864ZM12.9962 39.439V39.8293H12.6059V39.439H12.9962ZM11.8255 39.8293V40.2195H11.4352V39.8293H11.8255ZM11.4352 39.8293V40.2195H11.045V39.8293H11.4352ZM12.2157 39.8293V40.2195H11.8255V39.8293H12.2157ZM12.6059 39.8293V40.2195H12.2157V39.8293H12.6059ZM12.9962 39.8293V40.2195H12.6059V39.8293H12.9962ZM13.3864 39.8293V40.2195H12.9962V39.8293H13.3864ZM13.7767 39.8293V40.2195H13.3864V39.8293H13.7767ZM14.1669 39.8293V40.2195H13.7767V39.8293H14.1669ZM14.5572 39.8293V40.2195H14.1669V39.8293H14.5572ZM14.9474 39.8293V40.2195H14.5572V39.8293H14.9474ZM10.2645 38.2683V38.6585H9.87424V38.2683H10.2645ZM10.2645 38.6585V39.0488H9.87424V38.6585H10.2645ZM10.2645 39.0488V39.439H9.87424V39.0488H10.2645ZM10.6547 38.2683V38.6585H10.2645V38.2683H10.6547ZM10.6547 37.878V38.2683H10.2645V37.878H10.6547ZM11.045 37.878V38.2683H10.6547V37.878H11.045ZM11.045 37.4878V37.878H10.6547V37.4878H11.045ZM11.4352 37.4878V37.878H11.045V37.4878H11.4352ZM11.8255 37.0976V37.4878H11.4352V37.0976H11.8255ZM11.4352 37.0976V37.4878H11.045V37.0976H11.4352ZM11.8255 36.7073V37.0976H11.4352V36.7073H11.8255ZM12.2157 36.7073V37.0976H11.8255V36.7073H12.2157ZM12.6059 36.7073V37.0976H12.2157V36.7073H12.6059ZM12.6059 36.3171V36.7073H12.2157V36.3171H12.6059ZM12.2157 36.3171V36.7073H11.8255V36.3171H12.2157ZM12.9962 36.3171V36.7073H12.6059V36.3171H12.9962ZM12.9962 35.9268V36.3171H12.6059V35.9268H12.9962ZM12.6059 35.9268V36.3171H12.2157V35.9268H12.6059ZM12.9962 35.5366V35.9268H12.6059V35.5366H12.9962ZM13.3864 35.5366V35.9268H12.9962V35.5366H13.3864ZM13.3864 35.1463V35.5366H12.9962V35.1463H13.3864ZM13.7767 35.1463V35.5366H13.3864V35.1463H13.7767ZM14.1669 35.1463V35.5366H13.7767V35.1463H14.1669ZM14.1669 34.7561V35.1463H13.7767V34.7561H14.1669ZM13.7767 34.7561V35.1463H13.3864V34.7561H13.7767ZM14.1669 34.3659V34.7561H13.7767V34.3659H14.1669ZM14.5572 34.3659V34.7561H14.1669V34.3659H14.5572ZM15.7279 34.7561V35.1463H15.3377V34.7561H15.7279ZM15.3377 34.7561V35.1463H14.9474V34.7561H15.3377ZM14.9474 34.7561V35.1463H14.5572V34.7561H14.9474ZM14.9474 35.1463V35.5366H14.5572V35.1463H14.9474ZM15.3377 35.1463V35.5366H14.9474V35.1463H15.3377ZM14.9474 35.5366V35.9268H14.5572V35.5366H14.9474ZM14.5572 35.5366V35.9268H14.1669V35.5366H14.5572ZM14.5572 35.9268V36.3171H14.1669V35.9268H14.5572ZM14.1669 35.9268V36.3171H13.7767V35.9268H14.1669ZM14.1669 36.3171V36.7073H13.7767V36.3171H14.1669ZM13.7767 36.3171V36.7073H13.3864V36.3171H13.7767ZM13.7767 36.7073V37.0976H13.3864V36.7073H13.7767ZM13.3864 36.7073V37.0976H12.9962V36.7073H13.3864ZM12.9962 36.7073V37.0976H12.6059V36.7073H12.9962ZM12.9962 37.0976V37.4878H12.6059V37.0976H12.9962ZM13.3864 37.0976V37.4878H12.9962V37.0976H13.3864ZM12.9962 37.4878V37.878H12.6059V37.4878H12.9962ZM12.6059 37.4878V37.878H12.2157V37.4878H12.6059ZM12.6059 37.878V38.2683H12.2157V37.878H12.6059ZM12.2157 37.878V38.2683H11.8255V37.878H12.2157ZM11.8255 37.878V38.2683H11.4352V37.878H11.8255ZM11.8255 38.2683V38.6585H11.4352V38.2683H11.8255ZM11.8255 38.6585V39.0488H11.4352V38.6585H11.8255ZM12.2157 38.2683V38.6585H11.8255V38.2683H12.2157ZM11.4352 38.6585V39.0488H11.045V38.6585H11.4352ZM11.045 38.6585V39.0488H10.6547V38.6585H11.045ZM10.6547 38.6585V39.0488H10.2645V38.6585H10.6547ZM11.045 38.2683V38.6585H10.6547V38.2683H11.045ZM11.4352 38.2683V38.6585H11.045V38.2683H11.4352ZM11.4352 37.878V38.2683H11.045V37.878H11.4352ZM11.8255 37.4878V37.878H11.4352V37.4878H11.8255ZM12.2157 37.4878V37.878H11.8255V37.4878H12.2157ZM12.2157 37.0976V37.4878H11.8255V37.0976H12.2157ZM12.6059 37.0976V37.4878H12.2157V37.0976H12.6059ZM13.3864 35.9268V36.3171H12.9962V35.9268H13.3864ZM13.7767 35.9268V36.3171H13.3864V35.9268H13.7767ZM13.7767 35.5366V35.9268H13.3864V35.5366H13.7767ZM14.1669 35.5366V35.9268H13.7767V35.5366H14.1669ZM14.5572 35.1463V35.5366H14.1669V35.1463H14.5572ZM13.3864 36.3171V36.7073H12.9962V36.3171H13.3864ZM14.5572 34.7561V35.1463H14.1669V34.7561H14.5572Z" fill="black"/>
</svg>
