<svg width="50" height="41" viewBox="0 0 50 41" fill="none" xmlns="http://www.w3.org/2000/svg">
<path d="M1 37.9472V5.33179C1 4.7795 1.44772 4.33179 2 4.33179H47.9775C48.5298 4.33179 48.9775 4.7795 48.9775 5.33179V37.9472C48.9775 38.513 48.5085 38.9661 47.9431 38.9466L30.2078 38.335C29.8629 38.3231 29.5402 38.4934 29.3328 38.7693C28.7293 39.5723 28.2032 39.9392 27.1263 40.2731C27.0348 40.3014 26.9392 40.3149 26.8434 40.3149H23.7333C23.6819 40.3149 23.6299 40.3109 23.5791 40.3028C22.1612 40.0747 21.4105 39.7309 20.6495 38.7645C20.4363 38.4937 20.115 38.3231 19.7706 38.335L2.03446 38.9466C1.469 38.9661 1 38.5129 1 37.9472Z" fill="#3B82F6" stroke="black"/>
<path d="M3.29192 4.70524L4.75353 3.24363C4.91196 3.08519 5.11902 2.98455 5.34149 2.95786L21.2406 1.04996C21.5069 1.018 21.7749 1.09439 21.9844 1.26197L24.364 3.16566C24.7293 3.45784 25.2482 3.45784 25.6134 3.16566L27.9951 1.2603C28.2034 1.09371 28.4695 1.01719 28.7344 1.04776L45.1854 2.94594C45.4774 2.97964 45.7397 3.14009 45.9028 3.38465L46.8105 4.7462C46.92 4.91047 46.9784 5.10348 46.9784 5.3009V35.2776C46.9784 35.845 46.5069 36.2987 45.94 36.2769L29.9095 35.6603C29.7414 35.6538 29.5743 35.6899 29.4238 35.7651L28.8396 36.0573C28.5186 36.2178 28.1362 36.194 27.8376 35.9949L26.5734 35.152C26.4091 35.0425 26.2161 34.9841 26.0187 34.9841H23.9588C23.7614 34.9841 23.5684 35.0425 23.4041 35.152L22.1398 35.9949C21.8412 36.194 21.4589 36.2178 21.1379 36.0573L20.5354 35.756C20.3965 35.6866 20.2434 35.6504 20.0882 35.6504H3.99902C3.44674 35.6504 2.99902 35.2027 2.99902 34.6504V5.41234C2.99902 5.14713 3.10438 4.89277 3.29192 4.70524Z" fill="#E9E9E9" stroke="black"/>
<path d="M24.9888 3.66541V34.3177" stroke="black"/>
<path d="M23.6561 37.6495C22.8258 37.2553 22.5497 36.9577 22.3234 36.3168C22.097 35.6758 23.6561 34.9841 23.6561 34.9841H26.3215L27.6542 36.3168C27.3501 36.9438 27.079 37.2379 26.3215 37.6495H23.6561Z" fill="#FFB800" stroke="black"/>
<path d="M6.31091 31.4441L5.68495 3.90203C5.67329 3.38917 6.05162 2.95067 6.56066 2.88704L21.2379 1.05237C21.5058 1.01889 21.7759 1.09514 21.9867 1.26378L23.3228 2.33271L24.364 3.16566C24.7292 3.45784 25.2482 3.45784 25.6134 3.16566L27.9908 1.26378C28.2016 1.09514 28.4716 1.01889 28.7395 1.05237L43.437 2.88957C43.9375 2.95212 44.313 3.37752 44.313 3.88185V31.4137C44.313 31.9274 43.9237 32.3576 43.4125 32.4087L24.4274 34.3072C24.3576 34.3142 24.2872 34.3138 24.2175 34.3061L7.20022 32.4153C6.70239 32.36 6.32229 31.9449 6.31091 31.4441Z" stroke="black"/>
</svg>
