<svg width="45" height="73" viewBox="0 0 45 73" fill="none" xmlns="http://www.w3.org/2000/svg">
<path d="M5.00101 65.5324C4.89761 65.1176 12.7785 47.1135 13.3271 45.861C13.3486 45.8119 13.3665 45.7674 13.3864 45.7175C13.4882 45.4618 13.8358 44.6345 14.107 44.5398C14.4284 44.4277 15.3926 44.4277 15.4997 44.7641C15.6069 45.1006 16.0354 45.6614 16.2496 45.9979C16.4639 46.3344 18.3922 46.6708 18.8208 46.5587C19.2493 46.4465 21.8204 45.2128 22.356 44.5398C22.8917 43.8669 25.3557 42.0913 25.6771 42.0913C25.9985 42.0913 28.0339 41.8859 28.3553 42.0913C28.6767 42.2966 30.2837 42.9885 30.605 43.5493C30.9264 44.1101 39.7111 65.1027 39.9253 65.5324C40.1396 65.9621 39.9253 67.9999 38.854 67.9999C37.7827 67.9999 6.17944 67.9809 5.75092 67.9999C5.3224 68.0188 5.10814 65.9621 5.00101 65.5324Z" fill="#D8B4FE" stroke="black"/>
<path d="M22.262 14.9181H28.1447C28.737 14.9181 29.316 15.0934 29.8088 15.4219L29.8621 15.4575C30.2095 15.6891 30.5048 15.9907 30.729 16.343L30.9118 16.6303C31.0815 16.897 31.2034 17.1912 31.2719 17.4997V17.4997C31.3505 17.8532 31.3576 18.2189 31.2928 18.5752L31.245 18.8383C31.1941 19.118 31.1038 19.389 30.9766 19.6433L30.5542 20.4882C30.4445 20.7076 30.3083 20.9127 30.1487 21.0989L29.7753 21.5345C29.3092 22.0783 29.0531 22.7708 29.0531 23.4869V32.6703C29.0531 33.0775 29.1359 33.4803 29.2966 33.8544L42.3916 64.3379C42.5523 64.712 42.6352 65.1149 42.6352 65.522V67.1912C42.6352 67.7349 42.4874 68.2684 42.2077 68.7347L42.0466 69.0032C41.7758 69.4545 41.3911 69.8266 40.931 70.0822L40.3089 70.4278C39.8632 70.6754 39.3618 70.8054 38.852 70.8054H21.2694" stroke="black" stroke-width="3"/>
<path d="M22.3733 14.9181H16.4905C15.8982 14.9181 15.3192 15.0934 14.8264 15.4219L14.7731 15.4575C14.4257 15.6891 14.1305 15.9907 13.9063 16.343L13.7234 16.6303C13.5537 16.897 13.4319 17.1912 13.3633 17.4997V17.4997C13.2848 17.8532 13.2777 18.2189 13.3424 18.5752L13.3903 18.8383C13.4411 19.118 13.5315 19.389 13.6586 19.6433L14.0811 20.4882C14.1908 20.7076 14.327 20.9127 14.4866 21.0989L14.86 21.5345C15.326 22.0783 15.5822 22.7708 15.5822 23.4869V32.6703C15.5822 33.0775 15.4993 33.4803 15.3386 33.8544L2.24361 64.3379C2.08292 64.712 2.00004 65.1149 2.00004 65.522V67.1912C2.00004 67.7349 2.14782 68.2684 2.42756 68.7347L2.58869 69.0032C2.85946 69.4545 3.24418 69.8266 3.70424 70.0822L4.32637 70.4278C4.77204 70.6754 5.27347 70.8054 5.7833 70.8054H23.3658" stroke="black" stroke-width="3"/>
<rect x="21.6495" y="24.3254" width="5.00982" height="0.556646" rx="0.278323" fill="black" stroke="black" stroke-width="0.556646"/>
<rect x="21.6495" y="28.7786" width="5.00982" height="0.556646" rx="0.278323" fill="black" stroke="black" stroke-width="0.556646"/>
<rect x="21.6495" y="26.552" width="5.00982" height="0.556646" rx="0.278323" fill="black" stroke="black" stroke-width="0.556646"/>
<circle cx="27.7171" cy="7.68174" r="3.20121" fill="#D8B4FE" stroke="black" stroke-width="0.5"/>
<circle cx="20.3694" cy="2.11526" r="1.86526" fill="#D8B4FE" stroke="black" stroke-width="0.5"/>
</svg>
