<svg width="40" height="43" viewBox="0 0 40 43" fill="none" xmlns="http://www.w3.org/2000/svg">
<path d="M2.77212 14.3995L18.7888 1.94205C19.5032 1.38637 20.5018 1.37976 21.2236 1.92594L37.7069 14.3998C38.2064 14.7779 38.5 15.3681 38.5 15.9946V37.5279C38.5 37.8384 38.4277 38.1446 38.2889 38.4223L37.8401 39.3199C37.621 39.758 37.2488 40.1005 36.794 40.2824L35.3576 40.857C35.1214 40.9515 34.8693 41 34.6148 41H5.47214C5.16165 41 4.85542 40.9277 4.57771 40.7889L3.47506 40.2375C3.16375 40.0819 2.89845 39.8477 2.70538 39.5581L2.3359 39.0038C2.11688 38.6753 2 38.2893 2 37.8945V15.9782C2 15.361 2.28495 14.7784 2.77212 14.3995Z" stroke="black" stroke-width="3"/>
<path d="M14 39.5V23C14 21.8954 14.8954 21 16 21H24C25.1046 21 26 21.8954 26 23V40" stroke="black" stroke-width="3"/>
</svg>
