<svg width="566" height="152" viewBox="0 0 566 152" fill="none" xmlns="http://www.w3.org/2000/svg">
<mask id="path-1-outside-1_83_148" maskUnits="userSpaceOnUse" x="30" y="21" width="506" height="113" fill="black">
<rect fill="white" x="30" y="21" width="506" height="113"/>
<path d="M40.0182 130.3C37.4182 130.3 35.4682 130.1 34.1682 129.7C32.8682 129.2 32.2182 128.45 32.2182 127.45C32.2182 127.05 32.3182 126.65 32.5182 126.25C32.6182 125.75 32.8182 125.25 33.1182 124.75L76.9182 27.55C77.3182 26.85 77.8682 26.3 78.5682 25.9C79.2682 25.5 80.1682 25.2 81.2682 25C82.4682 24.8 83.6682 24.7 84.8682 24.7H91.4682C92.7682 24.7 93.9182 24.8 94.9182 25C96.0182 25.2 96.9182 25.5 97.6182 25.9C98.3182 26.3 98.7682 26.85 98.9682 27.55L122.518 124.75C122.618 125.05 122.668 125.45 122.668 125.95C122.768 126.45 122.818 126.8 122.818 127C122.818 127.9 122.218 128.7 121.018 129.4C119.818 130 117.918 130.3 115.318 130.3H110.518C108.618 130.3 106.968 130.1 105.568 129.7C104.268 129.3 103.518 128.55 103.318 127.45L87.1182 57.1C86.7182 55.6 86.4182 54.05 86.2182 52.45C86.1182 50.85 86.0182 49.3 85.9182 47.8H85.4682C85.0682 49.3 84.5682 50.85 83.9682 52.45C83.4682 54.05 82.9182 55.6 82.3182 57.1L51.1182 127.45C50.7182 128.45 49.8682 129.2 48.5682 129.7C47.3682 130.1 45.9182 130.3 44.2182 130.3H40.0182ZM54.1182 106.3V90.55H107.068V106.3H54.1182ZM146.025 130.3C140.825 130.3 138.375 128.8 138.675 125.8L147.525 41.8H122.025C120.725 41.8 119.775 41.3 119.175 40.3C118.575 39.2 118.375 37.6 118.575 35.5L119.175 31.3C119.375 29 119.825 27.4 120.525 26.5C121.325 25.5 122.425 25 123.825 25H194.175C195.675 25 196.675 25.55 197.175 26.65C197.775 27.65 197.975 29.2 197.775 31.3L197.175 35.5C196.975 37.8 196.475 39.45 195.675 40.45C194.975 41.35 193.875 41.8 192.375 41.8H167.475L158.625 125.95C158.525 127.35 157.775 128.45 156.375 129.25C155.075 129.95 153.025 130.3 150.225 130.3H146.025ZM233.519 131.05C224.719 131.05 217.119 129.3 210.719 125.8C204.419 122.3 199.569 117.25 196.169 110.65C192.769 104.05 191.069 96.25 191.069 87.25C191.069 78.95 191.769 71.4 193.169 64.6C194.669 57.8 196.819 51.85 199.619 46.75C202.519 41.65 206.119 37.45 210.419 34.15C214.719 30.75 219.719 28.2 225.419 26.5C231.219 24.8 237.669 23.95 244.769 23.95C253.569 23.95 261.119 25.7 267.419 29.2C273.719 32.7 278.569 37.7 281.969 44.2C285.369 50.7 287.069 58.45 287.069 67.45C287.069 75.85 286.369 83.45 284.969 90.25C283.569 97.05 281.419 103 278.519 108.1C275.619 113.2 272.019 117.45 267.719 120.85C263.419 124.25 258.419 126.8 252.719 128.5C247.019 130.2 240.619 131.05 233.519 131.05ZM235.169 114.25C239.269 114.25 243.019 113.65 246.419 112.45C249.819 111.25 252.769 109.45 255.269 107.05C257.769 104.65 259.869 101.65 261.569 98.05C263.369 94.45 264.669 90.25 265.469 85.45C266.269 80.55 266.669 75.15 266.669 69.25C266.669 60.15 264.569 53.15 260.369 48.25C256.169 43.25 250.369 40.75 242.969 40.75C238.769 40.75 234.969 41.35 231.569 42.55C228.269 43.65 225.319 45.45 222.719 47.95C220.219 50.35 218.119 53.35 216.419 56.95C214.719 60.55 213.419 64.75 212.519 69.55C211.719 74.25 211.319 79.6 211.319 85.6C211.319 94.7 213.419 101.75 217.619 106.75C221.919 111.75 227.769 114.25 235.169 114.25ZM419.102 130.3C413.802 130.3 411.302 128.8 411.602 125.8L421.802 29.05C422.002 27.55 422.752 26.45 424.052 25.75C425.352 25.05 427.402 24.7 430.202 24.7H433.952C439.352 24.7 441.902 26.2 441.602 29.2L431.552 125.95C431.452 127.45 430.702 128.55 429.302 129.25C427.902 129.95 425.752 130.3 422.852 130.3H419.102ZM445.083 130.3C442.083 130.3 439.983 130.1 438.783 129.7C437.483 129.2 436.833 128.5 436.833 127.6C436.833 127.1 437.033 126.6 437.433 126.1C437.733 125.5 438.133 124.85 438.633 124.15L475.533 75.4L451.983 30.85C451.683 30.15 451.433 29.55 451.233 29.05C451.033 28.45 450.933 27.9 450.933 27.4C450.933 26.6 451.633 25.95 453.033 25.45C454.533 24.95 456.783 24.7 459.783 24.7H464.133C466.133 24.7 467.783 24.9 469.083 25.3C470.483 25.6 471.483 26.3 472.083 27.4L488.433 58.75L511.833 27.25C512.733 26.15 513.883 25.45 515.283 25.15C516.783 24.85 518.483 24.7 520.383 24.7H524.883C527.783 24.7 529.883 24.95 531.183 25.45C532.483 25.85 533.133 26.5 533.133 27.4C533.133 27.8 532.983 28.3 532.683 28.9C532.383 29.5 531.983 30.15 531.483 30.85L498.033 75.1L523.983 124.15C524.383 124.75 524.633 125.35 524.733 125.95C524.933 126.45 525.033 126.9 525.033 127.3C525.033 128.2 524.333 128.95 522.933 129.55C521.633 130.05 519.333 130.3 516.033 130.3H511.833C509.833 130.3 508.133 130.1 506.733 129.7C505.333 129.2 504.283 128.25 503.583 126.85L485.133 91.6L458.733 127.15C457.633 128.55 456.333 129.45 454.833 129.85C453.333 130.15 451.633 130.3 449.733 130.3H445.083Z"/>
<path d="M300.336 130.3C295.036 130.3 292.536 128.8 292.836 125.8L303.036 29.05C303.236 27.55 303.986 26.45 305.286 25.75C306.586 25.05 308.636 24.7 311.436 24.7H318.336C320.236 24.7 321.836 25 323.136 25.6C324.536 26.2 325.586 27.2 326.286 28.6L345.486 71.8C346.286 73.4 347.036 75.1 347.736 76.9C348.436 78.7 348.886 80.15 349.086 81.25C349.686 79.95 350.436 78.5 351.336 76.9C352.336 75.3 353.236 73.85 354.036 72.55L382.986 28.75C383.986 27.25 385.236 26.2 386.736 25.6C388.236 25 389.986 24.7 391.986 24.7H398.886C404.286 24.7 406.836 26.2 406.536 29.2L396.486 125.95C396.386 127.45 395.636 128.55 394.236 129.25C392.836 129.95 390.686 130.3 387.786 130.3H384.336C381.736 130.3 379.836 129.95 378.636 129.25C377.436 128.45 376.886 127.3 376.986 125.8L383.286 65.2C383.486 63.9 383.636 62.6 383.736 61.3C383.836 60 383.986 58.75 384.186 57.55L383.586 57.4C382.886 58.4 382.186 59.45 381.486 60.55C380.886 61.55 380.236 62.55 379.536 63.55L355.836 99.85C354.936 101.25 353.936 102.2 352.836 102.7C351.736 103.2 350.186 103.45 348.186 103.45H345.636C343.736 103.45 342.286 103.2 341.286 102.7C340.386 102.2 339.636 101.25 339.036 99.85L322.686 63.25C322.286 62.25 321.836 61.25 321.336 60.25C320.936 59.15 320.486 58.05 319.986 56.95L319.386 57.1C319.286 58.4 319.186 59.7 319.086 61C318.986 62.3 318.836 63.6 318.636 64.9L312.336 125.95C312.236 127.45 311.486 128.55 310.086 129.25C308.786 129.95 306.686 130.3 303.786 130.3H300.336Z"/>
</mask>
<path d="M40.0182 130.3C37.4182 130.3 35.4682 130.1 34.1682 129.7C32.8682 129.2 32.2182 128.45 32.2182 127.45C32.2182 127.05 32.3182 126.65 32.5182 126.25C32.6182 125.75 32.8182 125.25 33.1182 124.75L76.9182 27.55C77.3182 26.85 77.8682 26.3 78.5682 25.9C79.2682 25.5 80.1682 25.2 81.2682 25C82.4682 24.8 83.6682 24.7 84.8682 24.7H91.4682C92.7682 24.7 93.9182 24.8 94.9182 25C96.0182 25.2 96.9182 25.5 97.6182 25.9C98.3182 26.3 98.7682 26.85 98.9682 27.55L122.518 124.75C122.618 125.05 122.668 125.45 122.668 125.95C122.768 126.45 122.818 126.8 122.818 127C122.818 127.9 122.218 128.7 121.018 129.4C119.818 130 117.918 130.3 115.318 130.3H110.518C108.618 130.3 106.968 130.1 105.568 129.7C104.268 129.3 103.518 128.55 103.318 127.45L87.1182 57.1C86.7182 55.6 86.4182 54.05 86.2182 52.45C86.1182 50.85 86.0182 49.3 85.9182 47.8H85.4682C85.0682 49.3 84.5682 50.85 83.9682 52.45C83.4682 54.05 82.9182 55.6 82.3182 57.1L51.1182 127.45C50.7182 128.45 49.8682 129.2 48.5682 129.7C47.3682 130.1 45.9182 130.3 44.2182 130.3H40.0182ZM54.1182 106.3V90.55H107.068V106.3H54.1182ZM146.025 130.3C140.825 130.3 138.375 128.8 138.675 125.8L147.525 41.8H122.025C120.725 41.8 119.775 41.3 119.175 40.3C118.575 39.2 118.375 37.6 118.575 35.5L119.175 31.3C119.375 29 119.825 27.4 120.525 26.5C121.325 25.5 122.425 25 123.825 25H194.175C195.675 25 196.675 25.55 197.175 26.65C197.775 27.65 197.975 29.2 197.775 31.3L197.175 35.5C196.975 37.8 196.475 39.45 195.675 40.45C194.975 41.35 193.875 41.8 192.375 41.8H167.475L158.625 125.95C158.525 127.35 157.775 128.45 156.375 129.25C155.075 129.95 153.025 130.3 150.225 130.3H146.025ZM233.519 131.05C224.719 131.05 217.119 129.3 210.719 125.8C204.419 122.3 199.569 117.25 196.169 110.65C192.769 104.05 191.069 96.25 191.069 87.25C191.069 78.95 191.769 71.4 193.169 64.6C194.669 57.8 196.819 51.85 199.619 46.75C202.519 41.65 206.119 37.45 210.419 34.15C214.719 30.75 219.719 28.2 225.419 26.5C231.219 24.8 237.669 23.95 244.769 23.95C253.569 23.95 261.119 25.7 267.419 29.2C273.719 32.7 278.569 37.7 281.969 44.2C285.369 50.7 287.069 58.45 287.069 67.45C287.069 75.85 286.369 83.45 284.969 90.25C283.569 97.05 281.419 103 278.519 108.1C275.619 113.2 272.019 117.45 267.719 120.85C263.419 124.25 258.419 126.8 252.719 128.5C247.019 130.2 240.619 131.05 233.519 131.05ZM235.169 114.25C239.269 114.25 243.019 113.65 246.419 112.45C249.819 111.25 252.769 109.45 255.269 107.05C257.769 104.65 259.869 101.65 261.569 98.05C263.369 94.45 264.669 90.25 265.469 85.45C266.269 80.55 266.669 75.15 266.669 69.25C266.669 60.15 264.569 53.15 260.369 48.25C256.169 43.25 250.369 40.75 242.969 40.75C238.769 40.75 234.969 41.35 231.569 42.55C228.269 43.65 225.319 45.45 222.719 47.95C220.219 50.35 218.119 53.35 216.419 56.95C214.719 60.55 213.419 64.75 212.519 69.55C211.719 74.25 211.319 79.6 211.319 85.6C211.319 94.7 213.419 101.75 217.619 106.75C221.919 111.75 227.769 114.25 235.169 114.25ZM419.102 130.3C413.802 130.3 411.302 128.8 411.602 125.8L421.802 29.05C422.002 27.55 422.752 26.45 424.052 25.75C425.352 25.05 427.402 24.7 430.202 24.7H433.952C439.352 24.7 441.902 26.2 441.602 29.2L431.552 125.95C431.452 127.45 430.702 128.55 429.302 129.25C427.902 129.95 425.752 130.3 422.852 130.3H419.102ZM445.083 130.3C442.083 130.3 439.983 130.1 438.783 129.7C437.483 129.2 436.833 128.5 436.833 127.6C436.833 127.1 437.033 126.6 437.433 126.1C437.733 125.5 438.133 124.85 438.633 124.15L475.533 75.4L451.983 30.85C451.683 30.15 451.433 29.55 451.233 29.05C451.033 28.45 450.933 27.9 450.933 27.4C450.933 26.6 451.633 25.95 453.033 25.45C454.533 24.95 456.783 24.7 459.783 24.7H464.133C466.133 24.7 467.783 24.9 469.083 25.3C470.483 25.6 471.483 26.3 472.083 27.4L488.433 58.75L511.833 27.25C512.733 26.15 513.883 25.45 515.283 25.15C516.783 24.85 518.483 24.7 520.383 24.7H524.883C527.783 24.7 529.883 24.95 531.183 25.45C532.483 25.85 533.133 26.5 533.133 27.4C533.133 27.8 532.983 28.3 532.683 28.9C532.383 29.5 531.983 30.15 531.483 30.85L498.033 75.1L523.983 124.15C524.383 124.75 524.633 125.35 524.733 125.95C524.933 126.45 525.033 126.9 525.033 127.3C525.033 128.2 524.333 128.95 522.933 129.55C521.633 130.05 519.333 130.3 516.033 130.3H511.833C509.833 130.3 508.133 130.1 506.733 129.7C505.333 129.2 504.283 128.25 503.583 126.85L485.133 91.6L458.733 127.15C457.633 128.55 456.333 129.45 454.833 129.85C453.333 130.15 451.633 130.3 449.733 130.3H445.083Z" fill="black"/>
<path d="M300.336 130.3C295.036 130.3 292.536 128.8 292.836 125.8L303.036 29.05C303.236 27.55 303.986 26.45 305.286 25.75C306.586 25.05 308.636 24.7 311.436 24.7H318.336C320.236 24.7 321.836 25 323.136 25.6C324.536 26.2 325.586 27.2 326.286 28.6L345.486 71.8C346.286 73.4 347.036 75.1 347.736 76.9C348.436 78.7 348.886 80.15 349.086 81.25C349.686 79.95 350.436 78.5 351.336 76.9C352.336 75.3 353.236 73.85 354.036 72.55L382.986 28.75C383.986 27.25 385.236 26.2 386.736 25.6C388.236 25 389.986 24.7 391.986 24.7H398.886C404.286 24.7 406.836 26.2 406.536 29.2L396.486 125.95C396.386 127.45 395.636 128.55 394.236 129.25C392.836 129.95 390.686 130.3 387.786 130.3H384.336C381.736 130.3 379.836 129.95 378.636 129.25C377.436 128.45 376.886 127.3 376.986 125.8L383.286 65.2C383.486 63.9 383.636 62.6 383.736 61.3C383.836 60 383.986 58.75 384.186 57.55L383.586 57.4C382.886 58.4 382.186 59.45 381.486 60.55C380.886 61.55 380.236 62.55 379.536 63.55L355.836 99.85C354.936 101.25 353.936 102.2 352.836 102.7C351.736 103.2 350.186 103.45 348.186 103.45H345.636C343.736 103.45 342.286 103.2 341.286 102.7C340.386 102.2 339.636 101.25 339.036 99.85L322.686 63.25C322.286 62.25 321.836 61.25 321.336 60.25C320.936 59.15 320.486 58.05 319.986 56.95L319.386 57.1C319.286 58.4 319.186 59.7 319.086 61C318.986 62.3 318.836 63.6 318.636 64.9L312.336 125.95C312.236 127.45 311.486 128.55 310.086 129.25C308.786 129.95 306.686 130.3 303.786 130.3H300.336Z" fill="#713B9A"/>
<path d="M34.1682 129.7L33.4502 131.567L33.5143 131.591L33.58 131.612L34.1682 129.7ZM32.5182 126.25L34.307 127.144L34.4268 126.905L34.4793 126.642L32.5182 126.25ZM33.1182 124.75L34.8331 125.779L34.8934 125.679L34.9416 125.572L33.1182 124.75ZM76.9182 27.55L75.1817 26.5577L75.1341 26.6409L75.0947 26.7283L76.9182 27.55ZM78.5682 25.9L79.5604 27.6365L79.5604 27.6365L78.5682 25.9ZM81.2682 25L80.9394 23.0272L80.9249 23.0296L80.9104 23.0323L81.2682 25ZM94.9182 25L94.5259 26.9612L94.5431 26.9646L94.5604 26.9677L94.9182 25ZM97.6182 25.9L96.6259 27.6365L96.6259 27.6365L97.6182 25.9ZM98.9682 27.55L100.912 27.0791L100.902 27.0396L100.891 27.0006L98.9682 27.55ZM122.518 124.75L120.574 125.221L120.594 125.303L120.621 125.382L122.518 124.75ZM122.668 125.95H120.668V126.148L120.707 126.342L122.668 125.95ZM121.018 129.4L121.913 131.189L121.97 131.16L122.026 131.128L121.018 129.4ZM105.568 129.7L104.98 131.612L104.999 131.617L105.019 131.623L105.568 129.7ZM103.318 127.45L105.286 127.092L105.278 127.046L105.267 127.001L103.318 127.45ZM87.1182 57.1L89.0672 56.6512L89.0595 56.6178L89.0506 56.5847L87.1182 57.1ZM86.2182 52.45L84.2221 52.5748L84.2259 52.6366L84.2336 52.6981L86.2182 52.45ZM85.9182 47.8L87.9137 47.667L87.7893 45.8H85.9182V47.8ZM85.4682 47.8V45.8H83.9316L83.5357 47.2847L85.4682 47.8ZM83.9682 52.45L82.0955 51.7478L82.0759 51.8001L82.0592 51.8534L83.9682 52.45ZM82.3182 57.1L84.1464 57.9108L84.1614 57.8771L84.1751 57.8428L82.3182 57.1ZM51.1182 127.45L49.2899 126.639L49.2749 126.673L49.2612 126.707L51.1182 127.45ZM48.5682 129.7L49.2006 131.597L49.2437 131.583L49.2861 131.567L48.5682 129.7ZM54.1182 106.3H52.1182V108.3H54.1182V106.3ZM54.1182 90.55V88.55H52.1182V90.55H54.1182ZM107.068 90.55H109.068V88.55H107.068V90.55ZM107.068 106.3V108.3H109.068V106.3H107.068ZM40.0182 130.3V128.3C37.4709 128.3 35.7635 128.098 34.7563 127.788L34.1682 129.7L33.58 131.612C35.1728 132.102 37.3654 132.3 40.0182 132.3V130.3ZM34.1682 129.7L34.8861 127.833C34.4258 127.656 34.2582 127.5 34.217 127.453C34.2015 127.435 34.2075 127.437 34.2149 127.457C34.2221 127.476 34.2182 127.479 34.2182 127.45H32.2182H30.2182C30.2182 128.427 30.5515 129.331 31.1943 130.072C31.8032 130.775 32.6105 131.244 33.4502 131.567L34.1682 129.7ZM32.2182 127.45H34.2182C34.2182 127.396 34.2293 127.3 34.307 127.144L32.5182 126.25L30.7293 125.356C30.407 126 30.2182 126.704 30.2182 127.45H32.2182ZM32.5182 126.25L34.4793 126.642C34.5284 126.397 34.6344 126.11 34.8331 125.779L33.1182 124.75L31.4032 123.721C31.0019 124.39 30.7079 125.103 30.557 125.858L32.5182 126.25ZM33.1182 124.75L34.9416 125.572L78.7416 28.3717L76.9182 27.55L75.0947 26.7283L31.2947 123.928L33.1182 124.75ZM76.9182 27.55L78.6547 28.5423C78.8775 28.1523 79.1705 27.8593 79.5604 27.6365L78.5682 25.9L77.5759 24.1635C76.5658 24.7407 75.7589 25.5477 75.1817 26.5577L76.9182 27.55ZM78.5682 25.9L79.5604 27.6365C80.0037 27.3832 80.6692 27.1417 81.6259 26.9677L81.2682 25L80.9104 23.0323C79.6671 23.2583 78.5326 23.6168 77.5759 24.1635L78.5682 25.9ZM81.2682 25L81.597 26.9728C82.6898 26.7906 83.7798 26.7 84.8682 26.7V24.7V22.7C83.5565 22.7 82.2465 22.8093 80.9394 23.0272L81.2682 25ZM84.8682 24.7V26.7H91.4682V24.7V22.7H84.8682V24.7ZM91.4682 24.7V26.7C92.6704 26.7 93.6846 26.7929 94.5259 26.9612L94.9182 25L95.3104 23.0388C94.1517 22.8071 92.8659 22.7 91.4682 22.7V24.7ZM94.9182 25L94.5604 26.9677C95.5171 27.1417 96.1826 27.3832 96.6259 27.6365L97.6182 25.9L98.6104 24.1635C97.6537 23.6168 96.5192 23.2583 95.2759 23.0323L94.9182 25ZM97.6182 25.9L96.6259 27.6365C96.9258 27.8079 97.0045 27.9574 97.0451 28.0994L98.9682 27.55L100.891 27.0006C100.532 25.7426 99.7105 24.7921 98.6104 24.1635L97.6182 25.9ZM98.9682 27.55L97.0244 28.0209L120.574 125.221L122.518 124.75L124.462 124.279L100.912 27.0791L98.9682 27.55ZM122.518 124.75L120.621 125.382C120.62 125.379 120.633 125.42 120.646 125.523C120.659 125.624 120.668 125.764 120.668 125.95H122.668H124.668C124.668 125.345 124.611 124.705 124.416 124.118L122.518 124.75ZM122.668 125.95L120.707 126.342C120.753 126.57 120.783 126.744 120.801 126.87C120.821 127.011 120.818 127.04 120.818 127H122.818H124.818C124.818 126.578 124.728 126.049 124.629 125.558L122.668 125.95ZM122.818 127H120.818C120.818 127.001 120.818 126.999 120.819 126.995C120.819 126.991 120.82 126.989 120.82 126.991C120.819 126.992 120.809 127.02 120.768 127.075C120.678 127.196 120.463 127.408 120.01 127.672L121.018 129.4L122.026 131.128C123.482 130.278 124.818 128.946 124.818 127H122.818ZM121.018 129.4L120.124 127.611C119.356 127.995 117.846 128.3 115.318 128.3V130.3V132.3C117.99 132.3 120.28 132.005 121.913 131.189L121.018 129.4ZM115.318 130.3V128.3H110.518V130.3V132.3H115.318V130.3ZM110.518 130.3V128.3C108.751 128.3 107.294 128.113 106.118 127.777L105.568 129.7L105.019 131.623C106.642 132.087 108.486 132.3 110.518 132.3V130.3ZM105.568 129.7L106.156 127.788C105.385 127.551 105.321 127.284 105.286 127.092L103.318 127.45L101.35 127.808C101.716 129.816 103.152 131.049 104.98 131.612L105.568 129.7ZM103.318 127.45L105.267 127.001L89.0672 56.6512L87.1182 57.1L85.1692 57.5488L101.369 127.899L103.318 127.45ZM87.1182 57.1L89.0506 56.5847C88.6749 55.1758 88.3919 53.7152 88.2027 52.2019L86.2182 52.45L84.2336 52.6981C84.4444 54.3848 84.7614 56.0242 85.1857 57.6153L87.1182 57.1ZM86.2182 52.45L88.2143 52.3252C88.1141 50.7227 88.0139 49.1699 87.9137 47.667L85.9182 47.8L83.9226 47.933C84.0224 49.4301 84.1222 50.9773 84.2221 52.5748L86.2182 52.45ZM85.9182 47.8V45.8H85.4682V47.8V49.8H85.9182V47.8ZM85.4682 47.8L83.5357 47.2847C83.1541 48.7155 82.6748 50.203 82.0955 51.7478L83.9682 52.45L85.8408 53.1522C86.4615 51.497 86.9822 49.8845 87.4006 48.3153L85.4682 47.8ZM83.9682 52.45L82.0592 51.8534C81.5741 53.4059 81.0413 54.907 80.4612 56.3572L82.3182 57.1L84.1751 57.8428C84.795 56.293 85.3623 54.6941 85.8771 53.0465L83.9682 52.45ZM82.3182 57.1L80.4899 56.2892L49.2899 126.639L51.1182 127.45L52.9464 128.261L84.1464 57.9108L82.3182 57.1ZM51.1182 127.45L49.2612 126.707C49.1243 127.049 48.7917 127.471 47.8502 127.833L48.5682 129.7L49.2861 131.567C50.9446 130.929 52.312 129.851 52.9751 128.193L51.1182 127.45ZM48.5682 129.7L47.9357 127.803C46.9962 128.116 45.7722 128.3 44.2182 128.3V130.3V132.3C46.0641 132.3 47.7401 132.084 49.2006 131.597L48.5682 129.7ZM44.2182 130.3V128.3H40.0182V130.3V132.3H44.2182V130.3ZM54.1182 106.3H56.1182V90.55H54.1182H52.1182V106.3H54.1182ZM54.1182 90.55V92.55H107.068V90.55V88.55H54.1182V90.55ZM107.068 90.55H105.068V106.3H107.068H109.068V90.55H107.068ZM107.068 106.3V104.3H54.1182V106.3V108.3H107.068V106.3ZM138.675 125.8L136.686 125.59L136.685 125.601L138.675 125.8ZM147.525 41.8L149.514 42.0096L149.747 39.8H147.525V41.8ZM119.175 40.3L117.419 41.2577L117.439 41.2938L117.46 41.329L119.175 40.3ZM118.575 35.5L116.595 35.2171L116.588 35.2636L116.584 35.3104L118.575 35.5ZM119.175 31.3L121.155 31.5828L121.163 31.5282L121.167 31.4733L119.175 31.3ZM120.525 26.5L118.963 25.2506L118.955 25.2613L118.946 25.2721L120.525 26.5ZM197.175 26.65L195.354 27.4776L195.401 27.5813L195.46 27.679L197.175 26.65ZM197.775 31.3L199.755 31.5828L199.761 31.5364L199.766 31.4896L197.775 31.3ZM197.175 35.5L195.195 35.2171L195.187 35.2718L195.182 35.3267L197.175 35.5ZM195.675 40.45L194.113 39.2006L194.105 39.2113L194.096 39.2221L195.675 40.45ZM167.475 41.8V39.8H165.674L165.486 41.5908L167.475 41.8ZM158.625 125.95L156.636 125.741L156.632 125.774L156.63 125.808L158.625 125.95ZM156.375 129.25L157.323 131.011L157.345 130.999L157.367 130.986L156.375 129.25ZM146.025 130.3V128.3C143.537 128.3 142.078 127.927 141.332 127.469C140.997 127.265 140.848 127.07 140.77 126.907C140.689 126.737 140.619 126.461 140.665 125.999L138.675 125.8L136.685 125.601C136.581 126.639 136.704 127.675 137.161 128.631C137.62 129.593 138.352 130.335 139.243 130.881C140.946 131.923 143.313 132.3 146.025 132.3V130.3ZM138.675 125.8L140.664 126.01L149.514 42.0096L147.525 41.8L145.536 41.5904L136.686 125.59L138.675 125.8ZM147.525 41.8V39.8H122.025V41.8V43.8H147.525V41.8ZM122.025 41.8V39.8C121.331 39.8 121.081 39.5901 120.89 39.271L119.175 40.3L117.46 41.329C118.468 43.0099 120.119 43.8 122.025 43.8V41.8ZM119.175 40.3L120.931 39.3423C120.612 38.7589 120.38 37.6356 120.566 35.6896L118.575 35.5L116.584 35.3104C116.369 37.5644 116.537 39.6411 117.419 41.2577L119.175 40.3ZM118.575 35.5L120.555 35.7828L121.155 31.5828L119.175 31.3L117.195 31.0171L116.595 35.2171L118.575 35.5ZM119.175 31.3L121.167 31.4733C121.362 29.2349 121.781 28.142 122.104 27.7279L120.525 26.5L118.946 25.2721C117.868 26.658 117.388 28.765 117.182 31.1267L119.175 31.3ZM120.525 26.5L122.087 27.7494C122.468 27.2722 122.968 27 123.825 27V25V23C121.882 23 120.181 23.7278 118.963 25.2506L120.525 26.5ZM123.825 25V27H194.175V25V23H123.825V25ZM194.175 25V27C194.69 27 194.96 27.0955 195.086 27.1649C195.185 27.2194 195.271 27.2956 195.354 27.4776L197.175 26.65L198.996 25.8224C198.578 24.9044 197.915 24.1555 197.014 23.6601C196.14 23.1795 195.159 23 194.175 23V25ZM197.175 26.65L195.46 27.679C195.723 28.1184 195.972 29.1343 195.784 31.1104L197.775 31.3L199.766 31.4896C199.978 29.2656 199.826 27.1816 198.89 25.621L197.175 26.65ZM197.775 31.3L195.795 31.0171L195.195 35.2171L197.175 35.5L199.155 35.7828L199.755 31.5828L197.775 31.3ZM197.175 35.5L195.182 35.3267C194.993 37.5075 194.538 38.67 194.113 39.2006L195.675 40.45L197.237 41.6994C198.412 40.23 198.957 38.0925 199.167 35.6733L197.175 35.5ZM195.675 40.45L194.096 39.2221C193.888 39.4897 193.468 39.8 192.375 39.8V41.8V43.8C194.281 43.8 196.062 43.2103 197.254 41.6779L195.675 40.45ZM192.375 41.8V39.8H167.475V41.8V43.8H192.375V41.8ZM167.475 41.8L165.486 41.5908L156.636 125.741L158.625 125.95L160.614 126.159L169.464 42.0092L167.475 41.8ZM158.625 125.95L156.63 125.808C156.585 126.435 156.304 126.987 155.383 127.514L156.375 129.25L157.367 130.986C159.246 129.913 160.465 128.265 160.62 126.092L158.625 125.95ZM156.375 129.25L155.427 127.489C154.577 127.946 152.941 128.3 150.225 128.3V130.3V132.3C153.109 132.3 155.572 131.954 157.323 131.011L156.375 129.25ZM150.225 130.3V128.3H146.025V130.3V132.3H150.225V130.3ZM210.719 125.8L209.748 127.548L209.76 127.555L210.719 125.8ZM196.169 110.65L197.947 109.734L196.169 110.65ZM193.169 64.6L191.216 64.1692L191.213 64.1829L191.21 64.1967L193.169 64.6ZM199.619 46.75L197.881 45.7614L197.873 45.7744L197.866 45.7875L199.619 46.75ZM210.419 34.15L211.637 35.7366L211.648 35.7278L211.66 35.7188L210.419 34.15ZM225.419 26.5L224.857 24.5807L224.848 24.5834L225.419 26.5ZM267.419 29.2L268.391 27.4517L268.391 27.4517L267.419 29.2ZM281.969 44.2L280.197 45.127L280.197 45.127L281.969 44.2ZM284.969 90.25L283.01 89.8467L283.01 89.8467L284.969 90.25ZM278.519 108.1L276.781 107.111L276.781 107.111L278.519 108.1ZM267.719 120.85L268.96 122.419L268.96 122.419L267.719 120.85ZM252.719 128.5L253.291 130.417L253.291 130.417L252.719 128.5ZM255.269 107.05L253.884 105.607L253.884 105.607L255.269 107.05ZM261.569 98.05L259.78 97.1556L259.77 97.1757L259.761 97.196L261.569 98.05ZM265.469 85.45L267.442 85.7788L267.443 85.7723L265.469 85.45ZM260.369 48.25L258.838 49.5364L258.844 49.544L258.851 49.5516L260.369 48.25ZM231.569 42.55L232.202 44.4474L232.218 44.4418L232.235 44.436L231.569 42.55ZM222.719 47.95L224.104 49.3928L224.106 49.3917L222.719 47.95ZM216.419 56.95L214.611 56.096L214.611 56.096L216.419 56.95ZM212.519 69.55L210.554 69.1814L210.551 69.1979L210.548 69.2144L212.519 69.55ZM217.619 106.75L216.088 108.036L216.095 108.045L216.103 108.054L217.619 106.75ZM233.519 131.05V129.05C224.986 129.05 217.73 127.354 211.679 124.045L210.719 125.8L209.76 127.555C216.509 131.246 224.453 133.05 233.519 133.05V131.05ZM210.719 125.8L211.691 124.052C205.747 120.749 201.172 115.994 197.947 109.734L196.169 110.65L194.391 111.566C197.966 118.506 203.092 123.851 209.748 127.548L210.719 125.8ZM196.169 110.65L197.947 109.734C194.721 103.471 193.069 95.9982 193.069 87.25H191.069H189.069C189.069 96.5018 190.818 104.629 194.391 111.566L196.169 110.65ZM191.069 87.25H193.069C193.069 79.0601 193.76 71.6478 195.128 65.0033L193.169 64.6L191.21 64.1967C189.778 71.1521 189.069 78.8399 189.069 87.25H191.069ZM193.169 64.6L195.122 65.0308C196.589 58.3813 198.68 52.6167 201.372 47.7125L199.619 46.75L197.866 45.7875C194.959 51.0833 192.749 57.2187 191.216 64.1692L193.169 64.6ZM199.619 46.75L201.358 47.7386C204.137 42.8514 207.566 38.8611 211.637 35.7366L210.419 34.15L209.202 32.5634C204.673 36.0389 200.902 40.4486 197.881 45.7614L199.619 46.75ZM210.419 34.15L211.66 35.7188C215.745 32.489 220.513 30.0503 225.991 28.4166L225.419 26.5L224.848 24.5834C218.926 26.3497 213.694 29.011 209.179 32.5812L210.419 34.15ZM225.419 26.5L225.982 28.4192C231.571 26.7812 237.827 25.95 244.769 25.95V23.95V21.95C237.511 21.95 230.868 22.8188 224.857 24.5807L225.419 26.5ZM244.769 23.95V25.95C253.304 25.95 260.504 27.6461 266.448 30.9483L267.419 29.2L268.391 27.4517C261.735 23.7538 253.835 21.95 244.769 21.95V23.95ZM267.419 29.2L266.448 30.9483C272.4 34.2551 276.975 38.9665 280.197 45.127L281.969 44.2L283.742 43.273C280.164 36.4335 275.038 31.1449 268.391 27.4517L267.419 29.2ZM281.969 44.2L280.197 45.127C283.417 51.2831 285.069 58.7006 285.069 67.45H287.069H289.069C289.069 58.1994 287.321 50.1169 283.742 43.273L281.969 44.2ZM287.069 67.45H285.069C285.069 75.7417 284.378 83.2036 283.01 89.8467L284.969 90.25L286.928 90.6533C288.361 83.6964 289.069 75.9583 289.069 67.45H287.069ZM284.969 90.25L283.01 89.8467C281.645 96.4779 279.56 102.224 276.781 107.111L278.519 108.1L280.258 109.089C283.279 103.776 285.494 97.6221 286.928 90.6533L284.969 90.25ZM278.519 108.1L276.781 107.111C273.999 112.004 270.563 116.052 266.479 119.281L267.719 120.85L268.96 122.419C273.475 118.848 277.24 114.396 280.258 109.089L278.519 108.1ZM267.719 120.85L266.479 119.281C262.394 122.511 257.626 124.95 252.148 126.583L252.719 128.5L253.291 130.417C259.213 128.65 264.445 125.989 268.96 122.419L267.719 120.85ZM252.719 128.5L252.148 126.583C246.665 128.219 240.462 129.05 233.519 129.05V131.05V133.05C240.777 133.05 247.374 132.181 253.291 130.417L252.719 128.5ZM235.169 114.25V116.25C239.465 116.25 243.444 115.621 247.085 114.336L246.419 112.45L245.754 110.564C242.595 111.679 239.073 112.25 235.169 112.25V114.25ZM246.419 112.45L247.085 114.336C250.742 113.045 253.941 111.098 256.654 108.493L255.269 107.05L253.884 105.607C251.598 107.802 248.896 109.455 245.754 110.564L246.419 112.45ZM255.269 107.05L256.654 108.493C259.354 105.901 261.589 102.692 263.378 98.904L261.569 98.05L259.761 97.196C258.15 100.608 256.184 103.399 253.884 105.607L255.269 107.05ZM261.569 98.05L263.358 98.9444C265.264 95.1334 266.616 90.7358 267.442 85.7788L265.469 85.45L263.497 85.1212C262.723 89.7642 261.475 93.7666 259.78 97.1556L261.569 98.05ZM265.469 85.45L267.443 85.7723C268.263 80.7481 268.669 75.2385 268.669 69.25H266.669H264.669C264.669 75.0615 264.275 80.3519 263.495 85.1277L265.469 85.45ZM266.669 69.25H268.669C268.669 59.8664 266.505 52.335 261.888 46.9484L260.369 48.25L258.851 49.5516C262.634 53.965 264.669 60.4336 264.669 69.25H266.669ZM260.369 48.25L261.901 46.9636C257.267 41.4477 250.872 38.75 242.969 38.75V40.75V42.75C249.867 42.75 255.071 45.0523 258.838 49.5364L260.369 48.25ZM242.969 40.75V38.75C238.579 38.75 234.55 39.3773 230.904 40.664L231.569 42.55L232.235 44.436C235.389 43.3227 238.959 42.75 242.969 42.75V40.75ZM231.569 42.55L230.937 40.6526C227.344 41.8501 224.139 43.8101 221.333 46.5083L222.719 47.95L224.106 49.3917C226.499 47.0899 229.194 45.4499 232.202 44.4474L231.569 42.55ZM222.719 47.95L221.334 46.5072C218.634 49.0992 216.4 52.308 214.611 56.096L216.419 56.95L218.228 57.804C219.839 54.392 221.804 51.6008 224.104 49.3928L222.719 47.95ZM216.419 56.95L214.611 56.096C212.824 59.8806 211.478 64.2499 210.554 69.1814L212.519 69.55L214.485 69.9186C215.36 65.2501 216.615 61.2194 218.228 57.804L216.419 56.95ZM212.519 69.55L210.548 69.2144C209.725 74.0493 209.319 79.5149 209.319 85.6H211.319H213.319C213.319 79.6851 213.714 74.4507 214.491 69.8856L212.519 69.55ZM211.319 85.6H209.319C209.319 94.9869 211.485 102.557 216.088 108.036L217.619 106.75L219.151 105.464C215.354 100.943 213.319 94.4131 213.319 85.6H211.319ZM217.619 106.75L216.103 108.054C220.832 113.553 227.266 116.25 235.169 116.25V114.25V112.25C228.272 112.25 223.007 109.947 219.136 105.446L217.619 106.75ZM292.836 125.8L290.847 125.59L290.846 125.601L292.836 125.8ZM303.036 29.05L301.054 28.7857L301.05 28.8129L301.047 28.8403L303.036 29.05ZM305.286 25.75L304.338 23.989L304.338 23.9891L305.286 25.75ZM323.136 25.6L322.298 27.4159L322.323 27.4274L322.348 27.4383L323.136 25.6ZM326.286 28.6L328.114 27.7877L328.095 27.7462L328.075 27.7056L326.286 28.6ZM345.486 71.8L343.659 72.6123L343.677 72.6538L343.697 72.6944L345.486 71.8ZM347.736 76.9L345.872 77.6249L345.872 77.6249L347.736 76.9ZM349.086 81.25L347.118 81.6078L348.25 87.8335L350.902 82.0881L349.086 81.25ZM351.336 76.9L349.64 75.84L349.616 75.8792L349.593 75.9195L351.336 76.9ZM354.036 72.55L352.368 71.4472L352.35 71.4742L352.333 71.5018L354.036 72.55ZM382.986 28.75L381.322 27.6406L381.318 27.6472L382.986 28.75ZM406.536 29.2L408.525 29.4066L408.526 29.399L406.536 29.2ZM396.486 125.95L394.497 125.743L394.493 125.78L394.491 125.817L396.486 125.95ZM394.236 129.25L393.342 127.461L393.342 127.461L394.236 129.25ZM378.636 129.25L377.527 130.914L377.577 130.947L377.628 130.978L378.636 129.25ZM376.986 125.8L374.997 125.593L374.993 125.63L374.991 125.667L376.986 125.8ZM383.286 65.2L381.309 64.8959L381.302 64.9444L381.297 64.9932L383.286 65.2ZM383.736 61.3L385.73 61.4534L385.73 61.4534L383.736 61.3ZM384.186 57.55L386.159 57.8788L386.462 56.0575L384.671 55.6097L384.186 57.55ZM383.586 57.4L384.071 55.4597L382.737 55.1261L381.948 56.2531L383.586 57.4ZM381.486 60.55L379.799 59.4762L379.785 59.4984L379.771 59.521L381.486 60.55ZM379.536 63.55L377.898 62.4031L377.879 62.4296L377.861 62.4566L379.536 63.55ZM355.836 99.85L354.161 98.7566L354.154 98.7685L355.836 99.85ZM352.836 102.7L352.009 100.879L352.009 100.879L352.836 102.7ZM341.286 102.7L340.315 104.448L340.353 104.469L340.392 104.489L341.286 102.7ZM339.036 99.85L340.874 99.0622L340.868 99.0482L340.862 99.0343L339.036 99.85ZM322.686 63.25L320.829 63.9928L320.844 64.0296L320.86 64.0657L322.686 63.25ZM321.336 60.25L319.457 60.9335L319.496 61.0416L319.547 61.1444L321.336 60.25ZM319.986 56.95L321.807 56.1224L321.117 54.6056L319.501 55.0097L319.986 56.95ZM319.386 57.1L318.901 55.1597L317.503 55.5093L317.392 56.9466L319.386 57.1ZM319.086 61L321.08 61.1534L321.08 61.1534L319.086 61ZM318.636 64.9L316.659 64.5959L316.652 64.6451L316.647 64.6947L318.636 64.9ZM312.336 125.95L310.347 125.745L310.343 125.781L310.341 125.817L312.336 125.95ZM310.086 129.25L309.192 127.461L309.165 127.475L309.138 127.489L310.086 129.25ZM300.336 130.3V128.3C297.795 128.3 296.292 127.926 295.515 127.46C295.166 127.251 295.012 127.052 294.933 126.89C294.852 126.724 294.781 126.455 294.826 125.999L292.836 125.8L290.846 125.601C290.742 126.645 290.87 127.688 291.339 128.647C291.81 129.611 292.556 130.349 293.457 130.89C295.181 131.924 297.578 132.3 300.336 132.3V130.3ZM292.836 125.8L294.825 126.01L305.025 29.2597L303.036 29.05L301.047 28.8403L290.847 125.59L292.836 125.8ZM303.036 29.05L305.019 29.3143C305.136 28.4314 305.516 27.8979 306.234 27.5109L305.286 25.75L304.338 23.9891C302.457 25.0021 301.336 26.6686 301.054 28.7857L303.036 29.05ZM305.286 25.75L306.234 27.5109C307.084 27.0536 308.72 26.7 311.436 26.7V24.7V22.7C308.552 22.7 306.089 23.0464 304.338 23.989L305.286 25.75ZM311.436 24.7V26.7H318.336V24.7V22.7H311.436V24.7ZM318.336 24.7V26.7C320.037 26.7 321.332 26.97 322.298 27.4159L323.136 25.6L323.974 23.7841C322.34 23.03 320.435 22.7 318.336 22.7V24.7ZM323.136 25.6L322.348 27.4383C323.301 27.8464 324.002 28.5048 324.497 29.4944L326.286 28.6L328.075 27.7056C327.17 25.8952 325.772 24.5536 323.924 23.7617L323.136 25.6ZM326.286 28.6L324.459 29.4123L343.659 72.6123L345.486 71.8L347.314 70.9877L328.114 27.7877L326.286 28.6ZM345.486 71.8L343.697 72.6944C344.468 74.2349 345.193 75.878 345.872 77.6249L347.736 76.9L349.6 76.1751C348.879 74.322 348.105 72.5651 347.275 70.9056L345.486 71.8ZM347.736 76.9L345.872 77.6249C346.554 79.3784 346.952 80.6915 347.118 81.6078L349.086 81.25L351.054 80.8922C350.82 79.6085 350.318 78.0216 349.6 76.1751L347.736 76.9ZM349.086 81.25L350.902 82.0881C351.475 80.8478 352.199 79.4463 353.079 77.8805L351.336 76.9L349.593 75.9195C348.674 77.5537 347.898 79.0522 347.27 80.4119L349.086 81.25ZM351.336 76.9L353.032 77.96C354.034 76.3569 354.937 74.9029 355.739 73.5982L354.036 72.55L352.333 71.5018C351.536 72.7971 350.638 74.2431 349.64 75.84L351.336 76.9ZM354.036 72.55L355.705 73.6528L384.655 29.8528L382.986 28.75L381.318 27.6472L352.368 71.4472L354.036 72.55ZM382.986 28.75L384.65 29.8594C385.453 28.6554 386.397 27.8895 387.479 27.4569L386.736 25.6L385.993 23.743C384.075 24.5105 382.519 25.8446 381.322 27.6406L382.986 28.75ZM386.736 25.6L387.479 27.4569C388.694 26.971 390.182 26.7 391.986 26.7V24.7V22.7C389.79 22.7 387.778 23.029 385.993 23.743L386.736 25.6ZM391.986 24.7V26.7H398.886V24.7V22.7H391.986V24.7ZM398.886 24.7V26.7C401.481 26.7 403.028 27.0746 403.835 27.5489C404.199 27.7631 404.358 27.9658 404.438 28.1257C404.519 28.2881 404.591 28.5518 404.546 29.001L406.536 29.2L408.526 29.399C408.631 28.3482 408.497 27.2994 408.016 26.3368C407.533 25.3717 406.773 24.6369 405.863 24.1011C404.119 23.0754 401.692 22.7 398.886 22.7V24.7ZM406.536 29.2L404.547 28.9934L394.497 125.743L396.486 125.95L398.475 126.157L408.525 29.4066L406.536 29.2ZM396.486 125.95L394.491 125.817C394.44 126.574 394.139 127.063 393.342 127.461L394.236 129.25L395.131 131.039C397.133 130.037 398.332 128.326 398.482 126.083L396.486 125.95ZM394.236 129.25L393.342 127.461C392.366 127.949 390.597 128.3 387.786 128.3V130.3V132.3C390.775 132.3 393.306 131.951 395.131 131.039L394.236 129.25ZM387.786 130.3V128.3H384.336V130.3V132.3H387.786V130.3ZM384.336 130.3V128.3C381.83 128.3 380.372 127.947 379.644 127.522L378.636 129.25L377.628 130.978C379.3 131.953 381.642 132.3 384.336 132.3V130.3ZM378.636 129.25L379.746 127.586C379.172 127.203 378.927 126.756 378.982 125.933L376.986 125.8L374.991 125.667C374.845 127.844 375.7 129.697 377.527 130.914L378.636 129.25ZM376.986 125.8L378.975 126.007L385.275 65.4068L383.286 65.2L381.297 64.9932L374.997 125.593L376.986 125.8ZM383.286 65.2L385.263 65.5041C385.471 64.1545 385.626 62.8043 385.73 61.4534L383.736 61.3L381.742 61.1466C381.646 62.3957 381.502 63.6454 381.309 64.8959L383.286 65.2ZM383.736 61.3L385.73 61.4534C385.826 60.208 385.969 59.0167 386.159 57.8788L384.186 57.55L382.213 57.2212C382.003 58.4833 381.846 59.792 381.742 61.1466L383.736 61.3ZM384.186 57.55L384.671 55.6097L384.071 55.4597L383.586 57.4L383.101 59.3403L383.701 59.4903L384.186 57.55ZM383.586 57.4L381.948 56.2531C381.23 57.2787 380.514 58.3532 379.799 59.4762L381.486 60.55L383.173 61.6237C383.859 60.5468 384.543 59.5213 385.225 58.5469L383.586 57.4ZM381.486 60.55L379.771 59.521C379.196 60.479 378.572 61.4397 377.898 62.4031L379.536 63.55L381.175 64.6969C381.9 63.6603 382.576 62.621 383.201 61.579L381.486 60.55ZM379.536 63.55L377.861 62.4566L354.161 98.7566L355.836 99.85L357.511 100.943L381.211 64.6434L379.536 63.55ZM355.836 99.85L354.154 98.7685C353.386 99.9629 352.65 100.588 352.009 100.879L352.836 102.7L353.664 104.521C355.223 103.812 356.486 102.537 357.518 100.932L355.836 99.85ZM352.836 102.7L352.009 100.879C351.285 101.208 350.064 101.45 348.186 101.45V103.45V105.45C350.308 105.45 352.188 105.192 353.664 104.521L352.836 102.7ZM348.186 103.45V101.45H345.636V103.45V105.45H348.186V103.45ZM345.636 103.45V101.45C343.858 101.45 342.773 101.207 342.181 100.911L341.286 102.7L340.392 104.489C341.8 105.193 343.615 105.45 345.636 105.45V103.45ZM341.286 102.7L342.257 100.952C341.892 100.748 341.38 100.242 340.874 99.0622L339.036 99.85L337.198 100.638C337.892 102.258 338.881 103.652 340.315 104.448L341.286 102.7ZM339.036 99.85L340.862 99.0343L324.512 62.4342L322.686 63.25L320.86 64.0657L337.21 100.666L339.036 99.85ZM322.686 63.25L324.543 62.5072C324.122 61.4538 323.649 60.4033 323.125 59.3556L321.336 60.25L319.547 61.1444C320.023 62.0967 320.451 63.0462 320.829 63.9928L322.686 63.25ZM321.336 60.25L323.216 59.5665C322.797 58.4162 322.328 57.2681 321.807 56.1224L319.986 56.95L318.165 57.7776C318.645 58.8319 319.075 59.8838 319.457 60.9335L321.336 60.25ZM319.986 56.95L319.501 55.0097L318.901 55.1597L319.386 57.1L319.871 59.0403L320.471 58.8903L319.986 56.95ZM319.386 57.1L317.392 56.9466C317.392 56.9491 317.392 56.9517 317.391 56.9542C317.391 56.9568 317.391 56.9593 317.391 56.9618C317.391 56.9644 317.39 56.9669 317.39 56.9695C317.39 56.972 317.39 56.9745 317.39 56.9771C317.389 56.9796 317.389 56.9821 317.389 56.9847C317.389 56.9872 317.389 56.9898 317.389 56.9923C317.388 56.9948 317.388 56.9974 317.388 56.9999C317.388 57.0025 317.388 57.005 317.387 57.0075C317.387 57.0101 317.387 57.0126 317.387 57.0152C317.387 57.0177 317.386 57.0202 317.386 57.0228C317.386 57.0253 317.386 57.0279 317.386 57.0304C317.385 57.0329 317.385 57.0355 317.385 57.038C317.385 57.0405 317.385 57.0431 317.384 57.0456C317.384 57.0482 317.384 57.0507 317.384 57.0532C317.384 57.0558 317.383 57.0583 317.383 57.0609C317.383 57.0634 317.383 57.0659 317.383 57.0685C317.382 57.071 317.382 57.0736 317.382 57.0761C317.382 57.0786 317.382 57.0812 317.381 57.0837C317.381 57.0863 317.381 57.0888 317.381 57.0913C317.381 57.0939 317.381 57.0964 317.38 57.0989C317.38 57.1015 317.38 57.104 317.38 57.1066C317.38 57.1091 317.379 57.1116 317.379 57.1142C317.379 57.1167 317.379 57.1193 317.379 57.1218C317.378 57.1243 317.378 57.1269 317.378 57.1294C317.378 57.132 317.378 57.1345 317.377 57.137C317.377 57.1396 317.377 57.1421 317.377 57.1446C317.377 57.1472 317.376 57.1497 317.376 57.1523C317.376 57.1548 317.376 57.1573 317.376 57.1599C317.375 57.1624 317.375 57.165 317.375 57.1675C317.375 57.17 317.375 57.1726 317.374 57.1751C317.374 57.1777 317.374 57.1802 317.374 57.1827C317.374 57.1853 317.373 57.1878 317.373 57.1904C317.373 57.1929 317.373 57.1954 317.373 57.198C317.372 57.2005 317.372 57.203 317.372 57.2056C317.372 57.2081 317.372 57.2107 317.372 57.2132C317.371 57.2157 317.371 57.2183 317.371 57.2208C317.371 57.2234 317.371 57.2259 317.37 57.2284C317.37 57.231 317.37 57.2335 317.37 57.2361C317.37 57.2386 317.369 57.2411 317.369 57.2437C317.369 57.2462 317.369 57.2488 317.369 57.2513C317.368 57.2538 317.368 57.2564 317.368 57.2589C317.368 57.2614 317.368 57.264 317.367 57.2665C317.367 57.2691 317.367 57.2716 317.367 57.2741C317.367 57.2767 317.366 57.2792 317.366 57.2818C317.366 57.2843 317.366 57.2868 317.366 57.2894C317.365 57.2919 317.365 57.2945 317.365 57.297C317.365 57.2995 317.365 57.3021 317.364 57.3046C317.364 57.3071 317.364 57.3097 317.364 57.3122C317.364 57.3148 317.364 57.3173 317.363 57.3198C317.363 57.3224 317.363 57.3249 317.363 57.3275C317.363 57.33 317.362 57.3325 317.362 57.3351C317.362 57.3376 317.362 57.3402 317.362 57.3427C317.361 57.3452 317.361 57.3478 317.361 57.3503C317.361 57.3529 317.361 57.3554 317.36 57.3579C317.36 57.3605 317.36 57.363 317.36 57.3655C317.36 57.3681 317.359 57.3706 317.359 57.3732C317.359 57.3757 317.359 57.3782 317.359 57.3808C317.358 57.3833 317.358 57.3859 317.358 57.3884C317.358 57.3909 317.358 57.3935 317.357 57.396C317.357 57.3986 317.357 57.4011 317.357 57.4036C317.357 57.4062 317.356 57.4087 317.356 57.4113C317.356 57.4138 317.356 57.4163 317.356 57.4189C317.356 57.4214 317.355 57.4239 317.355 57.4265C317.355 57.429 317.355 57.4316 317.355 57.4341C317.354 57.4366 317.354 57.4392 317.354 57.4417C317.354 57.4443 317.354 57.4468 317.353 57.4493C317.353 57.4519 317.353 57.4544 317.353 57.457C317.353 57.4595 317.352 57.462 317.352 57.4646C317.352 57.4671 317.352 57.4696 317.352 57.4722C317.351 57.4747 317.351 57.4773 317.351 57.4798C317.351 57.4823 317.351 57.4849 317.35 57.4874C317.35 57.49 317.35 57.4925 317.35 57.495C317.35 57.4976 317.349 57.5001 317.349 57.5027C317.349 57.5052 317.349 57.5077 317.349 57.5103C317.348 57.5128 317.348 57.5154 317.348 57.5179C317.348 57.5204 317.348 57.523 317.347 57.5255C317.347 57.528 317.347 57.5306 317.347 57.5331C317.347 57.5357 317.347 57.5382 317.346 57.5407C317.346 57.5433 317.346 57.5458 317.346 57.5484C317.346 57.5509 317.345 57.5534 317.345 57.556C317.345 57.5585 317.345 57.5611 317.345 57.5636C317.344 57.5661 317.344 57.5687 317.344 57.5712C317.344 57.5738 317.344 57.5763 317.343 57.5788C317.343 57.5814 317.343 57.5839 317.343 57.5864C317.343 57.589 317.342 57.5915 317.342 57.5941C317.342 57.5966 317.342 57.5991 317.342 57.6017C317.341 57.6042 317.341 57.6068 317.341 57.6093C317.341 57.6118 317.341 57.6144 317.34 57.6169C317.34 57.6195 317.34 57.622 317.34 57.6245C317.34 57.6271 317.339 57.6296 317.339 57.6321C317.339 57.6347 317.339 57.6372 317.339 57.6398C317.339 57.6423 317.338 57.6448 317.338 57.6474C317.338 57.6499 317.338 57.6525 317.338 57.655C317.337 57.6575 317.337 57.6601 317.337 57.6626C317.337 57.6652 317.337 57.6677 317.336 57.6702C317.336 57.6728 317.336 57.6753 317.336 57.6779C317.336 57.6804 317.335 57.6829 317.335 57.6855C317.335 57.688 317.335 57.6905 317.335 57.6931C317.334 57.6956 317.334 57.6982 317.334 57.7007C317.334 57.7032 317.334 57.7058 317.333 57.7083C317.333 57.7109 317.333 57.7134 317.333 57.7159C317.333 57.7185 317.332 57.721 317.332 57.7236C317.332 57.7261 317.332 57.7286 317.332 57.7312C317.331 57.7337 317.331 57.7363 317.331 57.7388C317.331 57.7413 317.331 57.7439 317.331 57.7464C317.33 57.7489 317.33 57.7515 317.33 57.754C317.33 57.7566 317.33 57.7591 317.329 57.7616C317.329 57.7642 317.329 57.7667 317.329 57.7693C317.329 57.7718 317.328 57.7743 317.328 57.7769C317.328 57.7794 317.328 57.782 317.328 57.7845C317.327 57.787 317.327 57.7896 317.327 57.7921C317.327 57.7946 317.327 57.7972 317.326 57.7997C317.326 57.8023 317.326 57.8048 317.326 57.8073C317.326 57.8099 317.325 57.8124 317.325 57.815C317.325 57.8175 317.325 57.82 317.325 57.8226C317.324 57.8251 317.324 57.8277 317.324 57.8302C317.324 57.8327 317.324 57.8353 317.323 57.8378C317.323 57.8404 317.323 57.8429 317.323 57.8454C317.323 57.848 317.322 57.8505 317.322 57.853C317.322 57.8556 317.322 57.8581 317.322 57.8607C317.322 57.8632 317.321 57.8657 317.321 57.8683C317.321 57.8708 317.321 57.8734 317.321 57.8759C317.32 57.8784 317.32 57.881 317.32 57.8835C317.32 57.8861 317.32 57.8886 317.319 57.8911C317.319 57.8937 317.319 57.8962 317.319 57.8988C317.319 57.9013 317.318 57.9038 317.318 57.9064C317.318 57.9089 317.318 57.9114 317.318 57.914C317.317 57.9165 317.317 57.9191 317.317 57.9216C317.317 57.9241 317.317 57.9267 317.316 57.9292C317.316 57.9318 317.316 57.9343 317.316 57.9368C317.316 57.9394 317.315 57.9419 317.315 57.9445C317.315 57.947 317.315 57.9495 317.315 57.9521C317.314 57.9546 317.314 57.9571 317.314 57.9597C317.314 57.9622 317.314 57.9648 317.314 57.9673C317.313 57.9698 317.313 57.9724 317.313 57.9749C317.313 57.9775 317.313 57.98 317.312 57.9825C317.312 57.9851 317.312 57.9876 317.312 57.9902C317.312 57.9927 317.311 57.9952 317.311 57.9978C317.311 58.0003 317.311 58.0029 317.311 58.0054C317.31 58.0079 317.31 58.0105 317.31 58.013C317.31 58.0155 317.31 58.0181 317.309 58.0206C317.309 58.0232 317.309 58.0257 317.309 58.0282C317.309 58.0308 317.308 58.0333 317.308 58.0359C317.308 58.0384 317.308 58.0409 317.308 58.0435C317.307 58.046 317.307 58.0486 317.307 58.0511C317.307 58.0536 317.307 58.0562 317.306 58.0587C317.306 58.0613 317.306 58.0638 317.306 58.0663C317.306 58.0689 317.306 58.0714 317.305 58.0739C317.305 58.0765 317.305 58.079 317.305 58.0816C317.305 58.0841 317.304 58.0866 317.304 58.0892C317.304 58.0917 317.304 58.0943 317.304 58.0968C317.303 58.0993 317.303 58.1019 317.303 58.1044C317.303 58.107 317.303 58.1095 317.302 58.112C317.302 58.1146 317.302 58.1171 317.302 58.1197C317.302 58.1222 317.301 58.1247 317.301 58.1273C317.301 58.1298 317.301 58.1323 317.301 58.1349C317.3 58.1374 317.3 58.14 317.3 58.1425C317.3 58.145 317.3 58.1476 317.299 58.1501C317.299 58.1527 317.299 58.1552 317.299 58.1577C317.299 58.1603 317.298 58.1628 317.298 58.1654C317.298 58.1679 317.298 58.1704 317.298 58.173C317.297 58.1755 317.297 58.178 317.297 58.1806C317.297 58.1831 317.297 58.1857 317.297 58.1882C317.296 58.1907 317.296 58.1933 317.296 58.1958C317.296 58.1984 317.296 58.2009 317.295 58.2034C317.295 58.206 317.295 58.2085 317.295 58.2111C317.295 58.2136 317.294 58.2161 317.294 58.2187C317.294 58.2212 317.294 58.2238 317.294 58.2263C317.293 58.2288 317.293 58.2314 317.293 58.2339C317.293 58.2364 317.293 58.239 317.292 58.2415C317.292 58.2441 317.292 58.2466 317.292 58.2491C317.292 58.2517 317.291 58.2542 317.291 58.2568C317.291 58.2593 317.291 58.2618 317.291 58.2644C317.29 58.2669 317.29 58.2695 317.29 58.272C317.29 58.2745 317.29 58.2771 317.289 58.2796C317.289 58.2822 317.289 58.2847 317.289 58.2872C317.289 58.2898 317.289 58.2923 317.288 58.2948C317.288 58.2974 317.288 58.2999 317.288 58.3025C317.288 58.305 317.287 58.3075 317.287 58.3101C317.287 58.3126 317.287 58.3152 317.287 58.3177C317.286 58.3202 317.286 58.3228 317.286 58.3253C317.286 58.3279 317.286 58.3304 317.285 58.3329C317.285 58.3355 317.285 58.338 317.285 58.3405C317.285 58.3431 317.284 58.3456 317.284 58.3482C317.284 58.3507 317.284 58.3532 317.284 58.3558C317.283 58.3583 317.283 58.3609 317.283 58.3634C317.283 58.3659 317.283 58.3685 317.282 58.371C317.282 58.3736 317.282 58.3761 317.282 58.3786C317.282 58.3812 317.281 58.3837 317.281 58.3863C317.281 58.3888 317.281 58.3913 317.281 58.3939C317.281 58.3964 317.28 58.3989 317.28 58.4015C317.28 58.404 317.28 58.4066 317.28 58.4091C317.279 58.4116 317.279 58.4142 317.279 58.4167C317.279 58.4193 317.279 58.4218 317.278 58.4243C317.278 58.4269 317.278 58.4294 317.278 58.432C317.278 58.4345 317.277 58.437 317.277 58.4396C317.277 58.4421 317.277 58.4447 317.277 58.4472C317.276 58.4497 317.276 58.4523 317.276 58.4548C317.276 58.4573 317.276 58.4599 317.275 58.4624C317.275 58.465 317.275 58.4675 317.275 58.47C317.275 58.4726 317.274 58.4751 317.274 58.4777C317.274 58.4802 317.274 58.4827 317.274 58.4853C317.273 58.4878 317.273 58.4904 317.273 58.4929C317.273 58.4954 317.273 58.498 317.272 58.5005C317.272 58.503 317.272 58.5056 317.272 58.5081C317.272 58.5107 317.272 58.5132 317.271 58.5157C317.271 58.5183 317.271 58.5208 317.271 58.5234C317.271 58.5259 317.27 58.5284 317.27 58.531C317.27 58.5335 317.27 58.5361 317.27 58.5386C317.269 58.5411 317.269 58.5437 317.269 58.5462C317.269 58.5488 317.269 58.5513 317.268 58.5538C317.268 58.5564 317.268 58.5589 317.268 58.5614C317.268 58.564 317.267 58.5665 317.267 58.5691C317.267 58.5716 317.267 58.5741 317.267 58.5767C317.266 58.5792 317.266 58.5818 317.266 58.5843C317.266 58.5868 317.266 58.5894 317.265 58.5919C317.265 58.5945 317.265 58.597 317.265 58.5995C317.265 58.6021 317.264 58.6046 317.264 58.6072C317.264 58.6097 317.264 58.6122 317.264 58.6148C317.264 58.6173 317.263 58.6198 317.263 58.6224C317.263 58.6249 317.263 58.6275 317.263 58.63C317.262 58.6325 317.262 58.6351 317.262 58.6376C317.262 58.6402 317.262 58.6427 317.261 58.6452C317.261 58.6478 317.261 58.6503 317.261 58.6529C317.261 58.6554 317.26 58.6579 317.26 58.6605C317.26 58.663 317.26 58.6655 317.26 58.6681C317.259 58.6706 317.259 58.6732 317.259 58.6757C317.259 58.6782 317.259 58.6808 317.258 58.6833C317.258 58.6859 317.258 58.6884 317.258 58.6909C317.258 58.6935 317.257 58.696 317.257 58.6986C317.257 58.7011 317.257 58.7036 317.257 58.7062C317.256 58.7087 317.256 58.7113 317.256 58.7138C317.256 58.7163 317.256 58.7189 317.256 58.7214C317.255 58.7239 317.255 58.7265 317.255 58.729C317.255 58.7316 317.255 58.7341 317.254 58.7366C317.254 58.7392 317.254 58.7417 317.254 58.7443C317.254 58.7468 317.253 58.7493 317.253 58.7519C317.253 58.7544 317.253 58.757 317.253 58.7595C317.252 58.762 317.252 58.7646 317.252 58.7671C317.252 58.7697 317.252 58.7722 317.251 58.7747C317.251 58.7773 317.251 58.7798 317.251 58.7823C317.251 58.7849 317.25 58.7874 317.25 58.79C317.25 58.7925 317.25 58.795 317.25 58.7976C317.249 58.8001 317.249 58.8027 317.249 58.8052C317.249 58.8077 317.249 58.8103 317.248 58.8128C317.248 58.8154 317.248 58.8179 317.248 58.8204C317.248 58.823 317.247 58.8255 317.247 58.828C317.247 58.8306 317.247 58.8331 317.247 58.8357C317.247 58.8382 317.246 58.8407 317.246 58.8433C317.246 58.8458 317.246 58.8484 317.246 58.8509C317.245 58.8534 317.245 58.856 317.245 58.8585C317.245 58.8611 317.245 58.8636 317.244 58.8661C317.244 58.8687 317.244 58.8712 317.244 58.8738C317.244 58.8763 317.243 58.8788 317.243 58.8814C317.243 58.8839 317.243 58.8864 317.243 58.889C317.242 58.8915 317.242 58.8941 317.242 58.8966C317.242 58.8991 317.242 58.9017 317.241 58.9042C317.241 58.9068 317.241 58.9093 317.241 58.9118C317.241 58.9144 317.24 58.9169 317.24 58.9195C317.24 58.922 317.24 58.9245 317.24 58.9271C317.239 58.9296 317.239 58.9322 317.239 58.9347C317.239 58.9372 317.239 58.9398 317.239 58.9423C317.238 58.9448 317.238 58.9474 317.238 58.9499C317.238 58.9525 317.238 58.955 317.237 58.9575C317.237 58.9601 317.237 58.9626 317.237 58.9652C317.237 58.9677 317.236 58.9702 317.236 58.9728C317.236 58.9753 317.236 58.9779 317.236 58.9804C317.235 58.9829 317.235 58.9855 317.235 58.988C317.235 58.9905 317.235 58.9931 317.234 58.9956C317.234 58.9982 317.234 59.0007 317.234 59.0032C317.234 59.0058 317.233 59.0083 317.233 59.0109C317.233 59.0134 317.233 59.0159 317.233 59.0185C317.232 59.021 317.232 59.0236 317.232 59.0261C317.232 59.0286 317.232 59.0312 317.231 59.0337C317.231 59.0363 317.231 59.0388 317.231 59.0413C317.231 59.0439 317.231 59.0464 317.23 59.0489C317.23 59.0515 317.23 59.054 317.23 59.0566C317.23 59.0591 317.229 59.0616 317.229 59.0642C317.229 59.0667 317.229 59.0693 317.229 59.0718C317.228 59.0743 317.228 59.0769 317.228 59.0794C317.228 59.082 317.228 59.0845 317.227 59.087C317.227 59.0896 317.227 59.0921 317.227 59.0947C317.227 59.0972 317.226 59.0997 317.226 59.1023C317.226 59.1048 317.226 59.1073 317.226 59.1099C317.225 59.1124 317.225 59.115 317.225 59.1175C317.225 59.12 317.225 59.1226 317.224 59.1251C317.224 59.1277 317.224 59.1302 317.224 59.1327C317.224 59.1353 317.223 59.1378 317.223 59.1404C317.223 59.1429 317.223 59.1454 317.223 59.148C317.222 59.1505 317.222 59.153 317.222 59.1556C317.222 59.1581 317.222 59.1607 317.222 59.1632C317.221 59.1657 317.221 59.1683 317.221 59.1708C317.221 59.1734 317.221 59.1759 317.22 59.1784C317.22 59.181 317.22 59.1835 317.22 59.1861C317.22 59.1886 317.219 59.1911 317.219 59.1937C317.219 59.1962 317.219 59.1988 317.219 59.2013C317.218 59.2038 317.218 59.2064 317.218 59.2089C317.218 59.2114 317.218 59.214 317.217 59.2165C317.217 59.2191 317.217 59.2216 317.217 59.2241C317.217 59.2267 317.216 59.2292 317.216 59.2318C317.216 59.2343 317.216 59.2368 317.216 59.2394C317.215 59.2419 317.215 59.2445 317.215 59.247C317.215 59.2495 317.215 59.2521 317.214 59.2546C317.214 59.2572 317.214 59.2597 317.214 59.2622C317.214 59.2648 317.214 59.2673 317.213 59.2698C317.213 59.2724 317.213 59.2749 317.213 59.2775C317.213 59.28 317.212 59.2825 317.212 59.2851C317.212 59.2876 317.212 59.2902 317.212 59.2927C317.211 59.2952 317.211 59.2978 317.211 59.3003C317.211 59.3029 317.211 59.3054 317.21 59.3079C317.21 59.3105 317.21 59.313 317.21 59.3155C317.21 59.3181 317.209 59.3206 317.209 59.3232C317.209 59.3257 317.209 59.3282 317.209 59.3308C317.208 59.3333 317.208 59.3359 317.208 59.3384C317.208 59.3409 317.208 59.3435 317.207 59.346C317.207 59.3486 317.207 59.3511 317.207 59.3536C317.207 59.3562 317.206 59.3587 317.206 59.3613C317.206 59.3638 317.206 59.3663 317.206 59.3689C317.206 59.3714 317.205 59.3739 317.205 59.3765C317.205 59.379 317.205 59.3816 317.205 59.3841C317.204 59.3866 317.204 59.3892 317.204 59.3917C317.204 59.3943 317.204 59.3968 317.203 59.3993C317.203 59.4019 317.203 59.4044 317.203 59.407C317.203 59.4095 317.202 59.412 317.202 59.4146C317.202 59.4171 317.202 59.4197 317.202 59.4222C317.201 59.4247 317.201 59.4273 317.201 59.4298C317.201 59.4323 317.201 59.4349 317.2 59.4374C317.2 59.44 317.2 59.4425 317.2 59.445C317.2 59.4476 317.199 59.4501 317.199 59.4527C317.199 59.4552 317.199 59.4577 317.199 59.4603C317.198 59.4628 317.198 59.4654 317.198 59.4679C317.198 59.4704 317.198 59.473 317.197 59.4755C317.197 59.478 317.197 59.4806 317.197 59.4831C317.197 59.4857 317.197 59.4882 317.196 59.4907C317.196 59.4933 317.196 59.4958 317.196 59.4984C317.196 59.5009 317.195 59.5034 317.195 59.506C317.195 59.5085 317.195 59.5111 317.195 59.5136C317.194 59.5161 317.194 59.5187 317.194 59.5212C317.194 59.5238 317.194 59.5263 317.193 59.5288C317.193 59.5314 317.193 59.5339 317.193 59.5364C317.193 59.539 317.192 59.5415 317.192 59.5441C317.192 59.5466 317.192 59.5491 317.192 59.5517C317.191 59.5542 317.191 59.5568 317.191 59.5593C317.191 59.5618 317.191 59.5644 317.19 59.5669C317.19 59.5695 317.19 59.572 317.19 59.5745C317.19 59.5771 317.189 59.5796 317.189 59.5822C317.189 59.5847 317.189 59.5872 317.189 59.5898C317.189 59.5923 317.188 59.5948 317.188 59.5974C317.188 59.5999 317.188 59.6025 317.188 59.605C317.187 59.6075 317.187 59.6101 317.187 59.6126C317.187 59.6152 317.187 59.6177 317.186 59.6202C317.186 59.6228 317.186 59.6253 317.186 59.6279C317.186 59.6304 317.185 59.6329 317.185 59.6355C317.185 59.638 317.185 59.6405 317.185 59.6431C317.184 59.6456 317.184 59.6482 317.184 59.6507C317.184 59.6532 317.184 59.6558 317.183 59.6583C317.183 59.6609 317.183 59.6634 317.183 59.6659C317.183 59.6685 317.182 59.671 317.182 59.6736C317.182 59.6761 317.182 59.6786 317.182 59.6812C317.181 59.6837 317.181 59.6863 317.181 59.6888C317.181 59.6913 317.181 59.6939 317.181 59.6964C317.18 59.6989 317.18 59.7015 317.18 59.704C317.18 59.7066 317.18 59.7091 317.179 59.7116C317.179 59.7142 317.179 59.7167 317.179 59.7193C317.179 59.7218 317.178 59.7243 317.178 59.7269C317.178 59.7294 317.178 59.732 317.178 59.7345C317.177 59.737 317.177 59.7396 317.177 59.7421C317.177 59.7447 317.177 59.7472 317.176 59.7497C317.176 59.7523 317.176 59.7548 317.176 59.7573C317.176 59.7599 317.175 59.7624 317.175 59.765C317.175 59.7675 317.175 59.77 317.175 59.7726C317.174 59.7751 317.174 59.7777 317.174 59.7802C317.174 59.7827 317.174 59.7853 317.173 59.7878C317.173 59.7904 317.173 59.7929 317.173 59.7954C317.173 59.798 317.172 59.8005 317.172 59.803C317.172 59.8056 317.172 59.8081 317.172 59.8107C317.172 59.8132 317.171 59.8157 317.171 59.8183C317.171 59.8208 317.171 59.8234 317.171 59.8259C317.17 59.8284 317.17 59.831 317.17 59.8335C317.17 59.8361 317.17 59.8386 317.169 59.8411C317.169 59.8437 317.169 59.8462 317.169 59.8488C317.169 59.8513 317.168 59.8538 317.168 59.8564C317.168 59.8589 317.168 59.8614 317.168 59.864C317.167 59.8665 317.167 59.8691 317.167 59.8716C317.167 59.8741 317.167 59.8767 317.166 59.8792C317.166 59.8818 317.166 59.8843 317.166 59.8868C317.166 59.8894 317.165 59.8919 317.165 59.8945C317.165 59.897 317.165 59.8995 317.165 59.9021C317.164 59.9046 317.164 59.9072 317.164 59.9097C317.164 59.9122 317.164 59.9148 317.164 59.9173C317.163 59.9198 317.163 59.9224 317.163 59.9249C317.163 59.9275 317.163 59.93 317.162 59.9325C317.162 59.9351 317.162 59.9376 317.162 59.9402C317.162 59.9427 317.161 59.9452 317.161 59.9478C317.161 59.9503 317.161 59.9529 317.161 59.9554C317.16 59.9579 317.16 59.9605 317.16 59.963C317.16 59.9656 317.16 59.9681 317.159 59.9706C317.159 59.9732 317.159 59.9757 317.159 59.9782C317.159 59.9808 317.158 59.9833 317.158 59.9859C317.158 59.9884 317.158 59.9909 317.158 59.9935C317.157 59.996 317.157 59.9986 317.157 60.0011C317.157 60.0036 317.157 60.0062 317.156 60.0087C317.156 60.0113 317.156 60.0138 317.156 60.0163C317.156 60.0189 317.156 60.0214 317.155 60.0239C317.155 60.0265 317.155 60.029 317.155 60.0316C317.155 60.0341 317.154 60.0366 317.154 60.0392C317.154 60.0417 317.154 60.0443 317.154 60.0468C317.153 60.0493 317.153 60.0519 317.153 60.0544C317.153 60.057 317.153 60.0595 317.152 60.062C317.152 60.0646 317.152 60.0671 317.152 60.0697C317.152 60.0722 317.151 60.0747 317.151 60.0773C317.151 60.0798 317.151 60.0823 317.151 60.0849C317.15 60.0874 317.15 60.09 317.15 60.0925C317.15 60.095 317.15 60.0976 317.149 60.1001C317.149 60.1027 317.149 60.1052 317.149 60.1077C317.149 60.1103 317.148 60.1128 317.148 60.1154C317.148 60.1179 317.148 60.1204 317.148 60.123C317.147 60.1255 317.147 60.1281 317.147 60.1306C317.147 60.1331 317.147 60.1357 317.147 60.1382C317.146 60.1407 317.146 60.1433 317.146 60.1458C317.146 60.1484 317.146 60.1509 317.145 60.1534C317.145 60.156 317.145 60.1585 317.145 60.1611C317.145 60.1636 317.144 60.1661 317.144 60.1687C317.144 60.1712 317.144 60.1738 317.144 60.1763C317.143 60.1788 317.143 60.1814 317.143 60.1839C317.143 60.1864 317.143 60.189 317.142 60.1915C317.142 60.1941 317.142 60.1966 317.142 60.1991C317.142 60.2017 317.141 60.2042 317.141 60.2068C317.141 60.2093 317.141 60.2118 317.141 60.2144C317.14 60.2169 317.14 60.2195 317.14 60.222C317.14 60.2245 317.14 60.2271 317.139 60.2296C317.139 60.2322 317.139 60.2347 317.139 60.2372C317.139 60.2398 317.139 60.2423 317.138 60.2448C317.138 60.2474 317.138 60.2499 317.138 60.2525C317.138 60.255 317.137 60.2575 317.137 60.2601C317.137 60.2626 317.137 60.2652 317.137 60.2677C317.136 60.2702 317.136 60.2728 317.136 60.2753C317.136 60.2779 317.136 60.2804 317.135 60.2829C317.135 60.2855 317.135 60.288 317.135 60.2906C317.135 60.2931 317.134 60.2956 317.134 60.2982C317.134 60.3007 317.134 60.3032 317.134 60.3058C317.133 60.3083 317.133 60.3109 317.133 60.3134C317.133 60.3159 317.133 60.3185 317.132 60.321C317.132 60.3236 317.132 60.3261 317.132 60.3286C317.132 60.3312 317.131 60.3337 317.131 60.3363C317.131 60.3388 317.131 60.3413 317.131 60.3439C317.131 60.3464 317.13 60.3489 317.13 60.3515C317.13 60.354 317.13 60.3566 317.13 60.3591C317.129 60.3616 317.129 60.3642 317.129 60.3667C317.129 60.3693 317.129 60.3718 317.128 60.3743C317.128 60.3769 317.128 60.3794 317.128 60.382C317.128 60.3845 317.127 60.387 317.127 60.3896C317.127 60.3921 317.127 60.3947 317.127 60.3972C317.126 60.3997 317.126 60.4023 317.126 60.4048C317.126 60.4073 317.126 60.4099 317.125 60.4124C317.125 60.415 317.125 60.4175 317.125 60.42C317.125 60.4226 317.124 60.4251 317.124 60.4277C317.124 60.4302 317.124 60.4327 317.124 60.4353C317.123 60.4378 317.123 60.4404 317.123 60.4429C317.123 60.4454 317.123 60.448 317.122 60.4505C317.122 60.4531 317.122 60.4556 317.122 60.4581C317.122 60.4607 317.122 60.4632 317.121 60.4657C317.121 60.4683 317.121 60.4708 317.121 60.4734C317.121 60.4759 317.12 60.4784 317.12 60.481C317.12 60.4835 317.12 60.4861 317.12 60.4886C317.119 60.4911 317.119 60.4937 317.119 60.4962C317.119 60.4988 317.119 60.5013 317.118 60.5038C317.118 60.5064 317.118 60.5089 317.118 60.5114C317.118 60.514 317.117 60.5165 317.117 60.5191C317.117 60.5216 317.117 60.5241 317.117 60.5267C317.116 60.5292 317.116 60.5318 317.116 60.5343C317.116 60.5368 317.116 60.5394 317.115 60.5419C317.115 60.5445 317.115 60.547 317.115 60.5495C317.115 60.5521 317.114 60.5546 317.114 60.5572C317.114 60.5597 317.114 60.5622 317.114 60.5648C317.114 60.5673 317.113 60.5698 317.113 60.5724C317.113 60.5749 317.113 60.5775 317.113 60.58C317.112 60.5825 317.112 60.5851 317.112 60.5876C317.112 60.5902 317.112 60.5927 317.111 60.5952C317.111 60.5978 317.111 60.6003 317.111 60.6029C317.111 60.6054 317.11 60.6079 317.11 60.6105C317.11 60.613 317.11 60.6156 317.11 60.6181C317.109 60.6206 317.109 60.6232 317.109 60.6257C317.109 60.6282 317.109 60.6308 317.108 60.6333C317.108 60.6359 317.108 60.6384 317.108 60.6409C317.108 60.6435 317.107 60.646 317.107 60.6486C317.107 60.6511 317.107 60.6536 317.107 60.6562C317.106 60.6587 317.106 60.6613 317.106 60.6638C317.106 60.6663 317.106 60.6689 317.106 60.6714C317.105 60.6739 317.105 60.6765 317.105 60.679C317.105 60.6816 317.105 60.6841 317.104 60.6866C317.104 60.6892 317.104 60.6917 317.104 60.6943C317.104 60.6968 317.103 60.6993 317.103 60.7019C317.103 60.7044 317.103 60.707 317.103 60.7095C317.102 60.712 317.102 60.7146 317.102 60.7171C317.102 60.7197 317.102 60.7222 317.101 60.7247C317.101 60.7273 317.101 60.7298 317.101 60.7323C317.101 60.7349 317.1 60.7374 317.1 60.74C317.1 60.7425 317.1 60.745 317.1 60.7476C317.099 60.7501 317.099 60.7527 317.099 60.7552C317.099 60.7577 317.099 60.7603 317.098 60.7628C317.098 60.7654 317.098 60.7679 317.098 60.7704C317.098 60.773 317.097 60.7755 317.097 60.7781C317.097 60.7806 317.097 60.7831 317.097 60.7857C317.097 60.7882 317.096 60.7907 317.096 60.7933C317.096 60.7958 317.096 60.7984 317.096 60.8009C317.095 60.8034 317.095 60.806 317.095 60.8085C317.095 60.8111 317.095 60.8136 317.094 60.8161C317.094 60.8187 317.094 60.8212 317.094 60.8238C317.094 60.8263 317.093 60.8288 317.093 60.8314C317.093 60.8339 317.093 60.8364 317.093 60.839C317.092 60.8415 317.092 60.8441 317.092 60.8466L319.086 61L321.08 61.1534C321.08 61.1509 321.081 61.1483 321.081 61.1458C321.081 61.1432 321.081 61.1407 321.081 61.1382C321.082 61.1356 321.082 61.1331 321.082 61.1305C321.082 61.128 321.082 61.1255 321.083 61.1229C321.083 61.1204 321.083 61.1178 321.083 61.1153C321.083 61.1128 321.084 61.1102 321.084 61.1077C321.084 61.1051 321.084 61.1026 321.084 61.1001C321.085 61.0975 321.085 61.095 321.085 61.0925C321.085 61.0899 321.085 61.0874 321.086 61.0848C321.086 61.0823 321.086 61.0798 321.086 61.0772C321.086 61.0747 321.086 61.0721 321.087 61.0696C321.087 61.0671 321.087 61.0645 321.087 61.062C321.087 61.0594 321.088 61.0569 321.088 61.0544C321.088 61.0518 321.088 61.0493 321.088 61.0468C321.089 61.0442 321.089 61.0417 321.089 61.0391C321.089 61.0366 321.089 61.0341 321.09 61.0315C321.09 61.029 321.09 61.0264 321.09 61.0239C321.09 61.0214 321.091 61.0188 321.091 61.0163C321.091 61.0137 321.091 61.0112 321.091 61.0087C321.092 61.0061 321.092 61.0036 321.092 61.001C321.092 60.9985 321.092 60.996 321.093 60.9934C321.093 60.9909 321.093 60.9884 321.093 60.9858C321.093 60.9833 321.094 60.9807 321.094 60.9782C321.094 60.9757 321.094 60.9731 321.094 60.9706C321.095 60.968 321.095 60.9655 321.095 60.963C321.095 60.9604 321.095 60.9579 321.095 60.9553C321.096 60.9528 321.096 60.9503 321.096 60.9477C321.096 60.9452 321.096 60.9426 321.097 60.9401C321.097 60.9376 321.097 60.935 321.097 60.9325C321.097 60.93 321.098 60.9274 321.098 60.9249C321.098 60.9223 321.098 60.9198 321.098 60.9173C321.099 60.9147 321.099 60.9122 321.099 60.9096C321.099 60.9071 321.099 60.9046 321.1 60.902C321.1 60.8995 321.1 60.8969 321.1 60.8944C321.1 60.8919 321.101 60.8893 321.101 60.8868C321.101 60.8843 321.101 60.8817 321.101 60.8792C321.102 60.8766 321.102 60.8741 321.102 60.8716C321.102 60.869 321.102 60.8665 321.103 60.8639C321.103 60.8614 321.103 60.8589 321.103 60.8563C321.103 60.8538 321.103 60.8512 321.104 60.8487C321.104 60.8462 321.104 60.8436 321.104 60.8411C321.104 60.8385 321.105 60.836 321.105 60.8335C321.105 60.8309 321.105 60.8284 321.105 60.8259C321.106 60.8233 321.106 60.8208 321.106 60.8182C321.106 60.8157 321.106 60.8132 321.107 60.8106C321.107 60.8081 321.107 60.8055 321.107 60.803C321.107 60.8005 321.108 60.7979 321.108 60.7954C321.108 60.7928 321.108 60.7903 321.108 60.7878C321.109 60.7852 321.109 60.7827 321.109 60.7801C321.109 60.7776 321.109 60.7751 321.11 60.7725C321.11 60.77 321.11 60.7675 321.11 60.7649C321.11 60.7624 321.111 60.7598 321.111 60.7573C321.111 60.7548 321.111 60.7522 321.111 60.7497C321.111 60.7471 321.112 60.7446 321.112 60.7421C321.112 60.7395 321.112 60.737 321.112 60.7344C321.113 60.7319 321.113 60.7294 321.113 60.7268C321.113 60.7243 321.113 60.7218 321.114 60.7192C321.114 60.7167 321.114 60.7141 321.114 60.7116C321.114 60.7091 321.115 60.7065 321.115 60.704C321.115 60.7014 321.115 60.6989 321.115 60.6964C321.116 60.6938 321.116 60.6913 321.116 60.6887C321.116 60.6862 321.116 60.6837 321.117 60.6811C321.117 60.6786 321.117 60.676 321.117 60.6735C321.117 60.671 321.118 60.6684 321.118 60.6659C321.118 60.6634 321.118 60.6608 321.118 60.6583C321.119 60.6557 321.119 60.6532 321.119 60.6507C321.119 60.6481 321.119 60.6456 321.12 60.643C321.12 60.6405 321.12 60.638 321.12 60.6354C321.12 60.6329 321.12 60.6303 321.121 60.6278C321.121 60.6253 321.121 60.6227 321.121 60.6202C321.121 60.6176 321.122 60.6151 321.122 60.6126C321.122 60.61 321.122 60.6075 321.122 60.605C321.123 60.6024 321.123 60.5999 321.123 60.5973C321.123 60.5948 321.123 60.5923 321.124 60.5897C321.124 60.5872 321.124 60.5846 321.124 60.5821C321.124 60.5796 321.125 60.577 321.125 60.5745C321.125 60.5719 321.125 60.5694 321.125 60.5669C321.126 60.5643 321.126 60.5618 321.126 60.5593C321.126 60.5567 321.126 60.5542 321.127 60.5516C321.127 60.5491 321.127 60.5466 321.127 60.544C321.127 60.5415 321.128 60.5389 321.128 60.5364C321.128 60.5339 321.128 60.5313 321.128 60.5288C321.128 60.5262 321.129 60.5237 321.129 60.5212C321.129 60.5186 321.129 60.5161 321.129 60.5135C321.13 60.511 321.13 60.5085 321.13 60.5059C321.13 60.5034 321.13 60.5009 321.131 60.4983C321.131 60.4958 321.131 60.4932 321.131 60.4907C321.131 60.4882 321.132 60.4856 321.132 60.4831C321.132 60.4805 321.132 60.478 321.132 60.4755C321.133 60.4729 321.133 60.4704 321.133 60.4678C321.133 60.4653 321.133 60.4628 321.134 60.4602C321.134 60.4577 321.134 60.4551 321.134 60.4526C321.134 60.4501 321.135 60.4475 321.135 60.445C321.135 60.4425 321.135 60.4399 321.135 60.4374C321.136 60.4348 321.136 60.4323 321.136 60.4298C321.136 60.4272 321.136 60.4247 321.136 60.4221C321.137 60.4196 321.137 60.4171 321.137 60.4145C321.137 60.412 321.137 60.4094 321.138 60.4069C321.138 60.4044 321.138 60.4018 321.138 60.3993C321.138 60.3968 321.139 60.3942 321.139 60.3917C321.139 60.3891 321.139 60.3866 321.139 60.3841C321.14 60.3815 321.14 60.379 321.14 60.3764C321.14 60.3739 321.14 60.3714 321.141 60.3688C321.141 60.3663 321.141 60.3637 321.141 60.3612C321.141 60.3587 321.142 60.3561 321.142 60.3536C321.142 60.351 321.142 60.3485 321.142 60.346C321.143 60.3434 321.143 60.3409 321.143 60.3384C321.143 60.3358 321.143 60.3333 321.144 60.3307C321.144 60.3282 321.144 60.3257 321.144 60.3231C321.144 60.3206 321.145 60.318 321.145 60.3155C321.145 60.313 321.145 60.3104 321.145 60.3079C321.145 60.3053 321.146 60.3028 321.146 60.3003C321.146 60.2977 321.146 60.2952 321.146 60.2926C321.147 60.2901 321.147 60.2876 321.147 60.285C321.147 60.2825 321.147 60.28 321.148 60.2774C321.148 60.2749 321.148 60.2723 321.148 60.2698C321.148 60.2673 321.149 60.2647 321.149 60.2622C321.149 60.2596 321.149 60.2571 321.149 60.2546C321.15 60.252 321.15 60.2495 321.15 60.2469C321.15 60.2444 321.15 60.2419 321.151 60.2393C321.151 60.2368 321.151 60.2343 321.151 60.2317C321.151 60.2292 321.152 60.2266 321.152 60.2241C321.152 60.2216 321.152 60.219 321.152 60.2165C321.153 60.2139 321.153 60.2114 321.153 60.2089C321.153 60.2063 321.153 60.2038 321.153 60.2012C321.154 60.1987 321.154 60.1962 321.154 60.1936C321.154 60.1911 321.154 60.1885 321.155 60.186C321.155 60.1835 321.155 60.1809 321.155 60.1784C321.155 60.1759 321.156 60.1733 321.156 60.1708C321.156 60.1682 321.156 60.1657 321.156 60.1632C321.157 60.1606 321.157 60.1581 321.157 60.1555C321.157 60.153 321.157 60.1505 321.158 60.1479C321.158 60.1454 321.158 60.1428 321.158 60.1403C321.158 60.1378 321.159 60.1352 321.159 60.1327C321.159 60.1301 321.159 60.1276 321.159 60.1251C321.16 60.1225 321.16 60.12 321.16 60.1175C321.16 60.1149 321.16 60.1124 321.161 60.1098C321.161 60.1073 321.161 60.1048 321.161 60.1022C321.161 60.0997 321.161 60.0971 321.162 60.0946C321.162 60.0921 321.162 60.0895 321.162 60.087C321.162 60.0844 321.163 60.0819 321.163 60.0794C321.163 60.0768 321.163 60.0743 321.163 60.0718C321.164 60.0692 321.164 60.0667 321.164 60.0641C321.164 60.0616 321.164 60.0591 321.165 60.0565C321.165 60.054 321.165 60.0514 321.165 60.0489C321.165 60.0464 321.166 60.0438 321.166 60.0413C321.166 60.0387 321.166 60.0362 321.166 60.0337C321.167 60.0311 321.167 60.0286 321.167 60.026C321.167 60.0235 321.167 60.021 321.168 60.0184C321.168 60.0159 321.168 60.0134 321.168 60.0108C321.168 60.0083 321.169 60.0057 321.169 60.0032C321.169 60.0007 321.169 59.9981 321.169 59.9956C321.17 59.993 321.17 59.9905 321.17 59.988C321.17 59.9854 321.17 59.9829 321.17 59.9803C321.171 59.9778 321.171 59.9753 321.171 59.9727C321.171 59.9702 321.171 59.9676 321.172 59.9651C321.172 59.9626 321.172 59.96 321.172 59.9575C321.172 59.955 321.173 59.9524 321.173 59.9499C321.173 59.9473 321.173 59.9448 321.173 59.9423C321.174 59.9397 321.174 59.9372 321.174 59.9346C321.174 59.9321 321.174 59.9296 321.175 59.927C321.175 59.9245 321.175 59.9219 321.175 59.9194C321.175 59.9169 321.176 59.9143 321.176 59.9118C321.176 59.9093 321.176 59.9067 321.176 59.9042C321.177 59.9016 321.177 59.8991 321.177 59.8966C321.177 59.894 321.177 59.8915 321.178 59.8889C321.178 59.8864 321.178 59.8839 321.178 59.8813C321.178 59.8788 321.178 59.8762 321.179 59.8737C321.179 59.8712 321.179 59.8686 321.179 59.8661C321.179 59.8635 321.18 59.861 321.18 59.8585C321.18 59.8559 321.18 59.8534 321.18 59.8509C321.181 59.8483 321.181 59.8458 321.181 59.8432C321.181 59.8407 321.181 59.8382 321.182 59.8356C321.182 59.8331 321.182 59.8305 321.182 59.828C321.182 59.8255 321.183 59.8229 321.183 59.8204C321.183 59.8178 321.183 59.8153 321.183 59.8128C321.184 59.8102 321.184 59.8077 321.184 59.8051C321.184 59.8026 321.184 59.8001 321.185 59.7975C321.185 59.795 321.185 59.7925 321.185 59.7899C321.185 59.7874 321.186 59.7848 321.186 59.7823C321.186 59.7798 321.186 59.7772 321.186 59.7747C321.186 59.7721 321.187 59.7696 321.187 59.7671C321.187 59.7645 321.187 59.762 321.187 59.7594C321.188 59.7569 321.188 59.7544 321.188 59.7518C321.188 59.7493 321.188 59.7468 321.189 59.7442C321.189 59.7417 321.189 59.7391 321.189 59.7366C321.189 59.7341 321.19 59.7315 321.19 59.729C321.19 59.7264 321.19 59.7239 321.19 59.7214C321.191 59.7188 321.191 59.7163 321.191 59.7137C321.191 59.7112 321.191 59.7087 321.192 59.7061C321.192 59.7036 321.192 59.701 321.192 59.6985C321.192 59.696 321.193 59.6934 321.193 59.6909C321.193 59.6884 321.193 59.6858 321.193 59.6833C321.194 59.6807 321.194 59.6782 321.194 59.6757C321.194 59.6731 321.194 59.6706 321.195 59.668C321.195 59.6655 321.195 59.663 321.195 59.6604C321.195 59.6579 321.195 59.6553 321.196 59.6528C321.196 59.6503 321.196 59.6477 321.196 59.6452C321.196 59.6426 321.197 59.6401 321.197 59.6376C321.197 59.635 321.197 59.6325 321.197 59.63C321.198 59.6274 321.198 59.6249 321.198 59.6223C321.198 59.6198 321.198 59.6173 321.199 59.6147C321.199 59.6122 321.199 59.6096 321.199 59.6071C321.199 59.6046 321.2 59.602 321.2 59.5995C321.2 59.5969 321.2 59.5944 321.2 59.5919C321.201 59.5893 321.201 59.5868 321.201 59.5842C321.201 59.5817 321.201 59.5792 321.202 59.5766C321.202 59.5741 321.202 59.5716 321.202 59.569C321.202 59.5665 321.203 59.5639 321.203 59.5614C321.203 59.5589 321.203 59.5563 321.203 59.5538C321.203 59.5512 321.204 59.5487 321.204 59.5462C321.204 59.5436 321.204 59.5411 321.204 59.5385C321.205 59.536 321.205 59.5335 321.205 59.5309C321.205 59.5284 321.205 59.5259 321.206 59.5233C321.206 59.5208 321.206 59.5182 321.206 59.5157C321.206 59.5132 321.207 59.5106 321.207 59.5081C321.207 59.5055 321.207 59.503 321.207 59.5005C321.208 59.4979 321.208 59.4954 321.208 59.4928C321.208 59.4903 321.208 59.4878 321.209 59.4852C321.209 59.4827 321.209 59.4801 321.209 59.4776C321.209 59.4751 321.21 59.4725 321.21 59.47C321.21 59.4675 321.21 59.4649 321.21 59.4624C321.211 59.4598 321.211 59.4573 321.211 59.4548C321.211 59.4522 321.211 59.4497 321.211 59.4471C321.212 59.4446 321.212 59.4421 321.212 59.4395C321.212 59.437 321.212 59.4344 321.213 59.4319C321.213 59.4294 321.213 59.4268 321.213 59.4243C321.213 59.4217 321.214 59.4192 321.214 59.4167C321.214 59.4141 321.214 59.4116 321.214 59.4091C321.215 59.4065 321.215 59.404 321.215 59.4014C321.215 59.3989 321.215 59.3964 321.216 59.3938C321.216 59.3913 321.216 59.3887 321.216 59.3862C321.216 59.3837 321.217 59.3811 321.217 59.3786C321.217 59.376 321.217 59.3735 321.217 59.371C321.218 59.3684 321.218 59.3659 321.218 59.3634C321.218 59.3608 321.218 59.3583 321.219 59.3557C321.219 59.3532 321.219 59.3507 321.219 59.3481C321.219 59.3456 321.22 59.343 321.22 59.3405C321.22 59.338 321.22 59.3354 321.22 59.3329C321.22 59.3303 321.221 59.3278 321.221 59.3253C321.221 59.3227 321.221 59.3202 321.221 59.3176C321.222 59.3151 321.222 59.3126 321.222 59.31C321.222 59.3075 321.222 59.305 321.223 59.3024C321.223 59.2999 321.223 59.2973 321.223 59.2948C321.223 59.2923 321.224 59.2897 321.224 59.2872C321.224 59.2846 321.224 59.2821 321.224 59.2796C321.225 59.277 321.225 59.2745 321.225 59.2719C321.225 59.2694 321.225 59.2669 321.226 59.2643C321.226 59.2618 321.226 59.2592 321.226 59.2567C321.226 59.2542 321.227 59.2516 321.227 59.2491C321.227 59.2466 321.227 59.244 321.227 59.2415C321.228 59.2389 321.228 59.2364 321.228 59.2339C321.228 59.2313 321.228 59.2288 321.228 59.2262C321.229 59.2237 321.229 59.2212 321.229 59.2186C321.229 59.2161 321.229 59.2135 321.23 59.211C321.23 59.2085 321.23 59.2059 321.23 59.2034C321.23 59.2009 321.231 59.1983 321.231 59.1958C321.231 59.1932 321.231 59.1907 321.231 59.1882C321.232 59.1856 321.232 59.1831 321.232 59.1805C321.232 59.178 321.232 59.1755 321.233 59.1729C321.233 59.1704 321.233 59.1678 321.233 59.1653C321.233 59.1628 321.234 59.1602 321.234 59.1577C321.234 59.1551 321.234 59.1526 321.234 59.1501C321.235 59.1475 321.235 59.145 321.235 59.1425C321.235 59.1399 321.235 59.1374 321.236 59.1348C321.236 59.1323 321.236 59.1298 321.236 59.1272C321.236 59.1247 321.236 59.1221 321.237 59.1196C321.237 59.1171 321.237 59.1145 321.237 59.112C321.237 59.1094 321.238 59.1069 321.238 59.1044C321.238 59.1018 321.238 59.0993 321.238 59.0967C321.239 59.0942 321.239 59.0917 321.239 59.0891C321.239 59.0866 321.239 59.0841 321.24 59.0815C321.24 59.079 321.24 59.0764 321.24 59.0739C321.24 59.0714 321.241 59.0688 321.241 59.0663C321.241 59.0637 321.241 59.0612 321.241 59.0587C321.242 59.0561 321.242 59.0536 321.242 59.051C321.242 59.0485 321.242 59.046 321.243 59.0434C321.243 59.0409 321.243 59.0384 321.243 59.0358C321.243 59.0333 321.244 59.0307 321.244 59.0282C321.244 59.0257 321.244 59.0231 321.244 59.0206C321.245 59.018 321.245 59.0155 321.245 59.013C321.245 59.0104 321.245 59.0079 321.245 59.0053C321.246 59.0028 321.246 59.0003 321.246 58.9977C321.246 58.9952 321.246 58.9926 321.247 58.9901C321.247 58.9876 321.247 58.985 321.247 58.9825C321.247 58.98 321.248 58.9774 321.248 58.9749C321.248 58.9723 321.248 58.9698 321.248 58.9673C321.249 58.9647 321.249 58.9622 321.249 58.9596C321.249 58.9571 321.249 58.9546 321.25 58.952C321.25 58.9495 321.25 58.9469 321.25 58.9444C321.25 58.9419 321.251 58.9393 321.251 58.9368C321.251 58.9342 321.251 58.9317 321.251 58.9292C321.252 58.9266 321.252 58.9241 321.252 58.9216C321.252 58.919 321.252 58.9165 321.253 58.9139C321.253 58.9114 321.253 58.9089 321.253 58.9063C321.253 58.9038 321.253 58.9012 321.254 58.8987C321.254 58.8962 321.254 58.8936 321.254 58.8911C321.254 58.8885 321.255 58.886 321.255 58.8835C321.255 58.8809 321.255 58.8784 321.255 58.8759C321.256 58.8733 321.256 58.8708 321.256 58.8682C321.256 58.8657 321.256 58.8632 321.257 58.8606C321.257 58.8581 321.257 58.8555 321.257 58.853C321.257 58.8505 321.258 58.8479 321.258 58.8454C321.258 58.8428 321.258 58.8403 321.258 58.8378C321.259 58.8352 321.259 58.8327 321.259 58.8301C321.259 58.8276 321.259 58.8251 321.26 58.8225C321.26 58.82 321.26 58.8175 321.26 58.8149C321.26 58.8124 321.261 58.8098 321.261 58.8073C321.261 58.8048 321.261 58.8022 321.261 58.7997C321.261 58.7971 321.262 58.7946 321.262 58.7921C321.262 58.7895 321.262 58.787 321.262 58.7844C321.263 58.7819 321.263 58.7794 321.263 58.7768C321.263 58.7743 321.263 58.7717 321.264 58.7692C321.264 58.7667 321.264 58.7641 321.264 58.7616C321.264 58.7591 321.265 58.7565 321.265 58.754C321.265 58.7514 321.265 58.7489 321.265 58.7464C321.266 58.7438 321.266 58.7413 321.266 58.7387C321.266 58.7362 321.266 58.7337 321.267 58.7311C321.267 58.7286 321.267 58.726 321.267 58.7235C321.267 58.721 321.268 58.7184 321.268 58.7159C321.268 58.7134 321.268 58.7108 321.268 58.7083C321.269 58.7057 321.269 58.7032 321.269 58.7007C321.269 58.6981 321.269 58.6956 321.27 58.693C321.27 58.6905 321.27 58.688 321.27 58.6854C321.27 58.6829 321.27 58.6803 321.271 58.6778C321.271 58.6753 321.271 58.6727 321.271 58.6702C321.271 58.6676 321.272 58.6651 321.272 58.6626C321.272 58.66 321.272 58.6575 321.272 58.655C321.273 58.6524 321.273 58.6499 321.273 58.6473C321.273 58.6448 321.273 58.6423 321.274 58.6397C321.274 58.6372 321.274 58.6346 321.274 58.6321C321.274 58.6296 321.275 58.627 321.275 58.6245C321.275 58.6219 321.275 58.6194 321.275 58.6169C321.276 58.6143 321.276 58.6118 321.276 58.6092C321.276 58.6067 321.276 58.6042 321.277 58.6016C321.277 58.5991 321.277 58.5966 321.277 58.594C321.277 58.5915 321.278 58.5889 321.278 58.5864C321.278 58.5839 321.278 58.5813 321.278 58.5788C321.278 58.5762 321.279 58.5737 321.279 58.5712C321.279 58.5686 321.279 58.5661 321.279 58.5635C321.28 58.561 321.28 58.5585 321.28 58.5559C321.28 58.5534 321.28 58.5509 321.281 58.5483C321.281 58.5458 321.281 58.5432 321.281 58.5407C321.281 58.5382 321.282 58.5356 321.282 58.5331C321.282 58.5305 321.282 58.528 321.282 58.5255C321.283 58.5229 321.283 58.5204 321.283 58.5178C321.283 58.5153 321.283 58.5128 321.284 58.5102C321.284 58.5077 321.284 58.5051 321.284 58.5026C321.284 58.5001 321.285 58.4975 321.285 58.495C321.285 58.4925 321.285 58.4899 321.285 58.4874C321.286 58.4848 321.286 58.4823 321.286 58.4798C321.286 58.4772 321.286 58.4747 321.286 58.4721C321.287 58.4696 321.287 58.4671 321.287 58.4645C321.287 58.462 321.287 58.4594 321.288 58.4569C321.288 58.4544 321.288 58.4518 321.288 58.4493C321.288 58.4467 321.289 58.4442 321.289 58.4417C321.289 58.4391 321.289 58.4366 321.289 58.4341C321.29 58.4315 321.29 58.429 321.29 58.4264C321.29 58.4239 321.29 58.4214 321.291 58.4188C321.291 58.4163 321.291 58.4137 321.291 58.4112C321.291 58.4087 321.292 58.4061 321.292 58.4036C321.292 58.401 321.292 58.3985 321.292 58.396C321.293 58.3934 321.293 58.3909 321.293 58.3884C321.293 58.3858 321.293 58.3833 321.294 58.3807C321.294 58.3782 321.294 58.3757 321.294 58.3731C321.294 58.3706 321.295 58.368 321.295 58.3655C321.295 58.363 321.295 58.3604 321.295 58.3579C321.295 58.3553 321.296 58.3528 321.296 58.3503C321.296 58.3477 321.296 58.3452 321.296 58.3426C321.297 58.3401 321.297 58.3376 321.297 58.335C321.297 58.3325 321.297 58.33 321.298 58.3274C321.298 58.3249 321.298 58.3223 321.298 58.3198C321.298 58.3173 321.299 58.3147 321.299 58.3122C321.299 58.3096 321.299 58.3071 321.299 58.3046C321.3 58.302 321.3 58.2995 321.3 58.2969C321.3 58.2944 321.3 58.2919 321.301 58.2893C321.301 58.2868 321.301 58.2842 321.301 58.2817C321.301 58.2792 321.302 58.2766 321.302 58.2741C321.302 58.2716 321.302 58.269 321.302 58.2665C321.303 58.2639 321.303 58.2614 321.303 58.2589C321.303 58.2563 321.303 58.2538 321.303 58.2512C321.304 58.2487 321.304 58.2462 321.304 58.2436C321.304 58.2411 321.304 58.2385 321.305 58.236C321.305 58.2335 321.305 58.2309 321.305 58.2284C321.305 58.2259 321.306 58.2233 321.306 58.2208C321.306 58.2182 321.306 58.2157 321.306 58.2132C321.307 58.2106 321.307 58.2081 321.307 58.2055C321.307 58.203 321.307 58.2005 321.308 58.1979C321.308 58.1954 321.308 58.1928 321.308 58.1903C321.308 58.1878 321.309 58.1852 321.309 58.1827C321.309 58.1801 321.309 58.1776 321.309 58.1751C321.31 58.1725 321.31 58.17 321.31 58.1675C321.31 58.1649 321.31 58.1624 321.311 58.1598C321.311 58.1573 321.311 58.1548 321.311 58.1522C321.311 58.1497 321.311 58.1471 321.312 58.1446C321.312 58.1421 321.312 58.1395 321.312 58.137C321.312 58.1344 321.313 58.1319 321.313 58.1294C321.313 58.1268 321.313 58.1243 321.313 58.1217C321.314 58.1192 321.314 58.1167 321.314 58.1141C321.314 58.1116 321.314 58.1091 321.315 58.1065C321.315 58.104 321.315 58.1014 321.315 58.0989C321.315 58.0964 321.316 58.0938 321.316 58.0913C321.316 58.0887 321.316 58.0862 321.316 58.0837C321.317 58.0811 321.317 58.0786 321.317 58.076C321.317 58.0735 321.317 58.071 321.318 58.0684C321.318 58.0659 321.318 58.0634 321.318 58.0608C321.318 58.0583 321.319 58.0557 321.319 58.0532C321.319 58.0507 321.319 58.0481 321.319 58.0456C321.32 58.043 321.32 58.0405 321.32 58.038C321.32 58.0354 321.32 58.0329 321.32 58.0303C321.321 58.0278 321.321 58.0253 321.321 58.0227C321.321 58.0202 321.321 58.0176 321.322 58.0151C321.322 58.0126 321.322 58.01 321.322 58.0075C321.322 58.005 321.323 58.0024 321.323 57.9999C321.323 57.9973 321.323 57.9948 321.323 57.9923C321.324 57.9897 321.324 57.9872 321.324 57.9846C321.324 57.9821 321.324 57.9796 321.325 57.977C321.325 57.9745 321.325 57.9719 321.325 57.9694C321.325 57.9669 321.326 57.9643 321.326 57.9618C321.326 57.9592 321.326 57.9567 321.326 57.9542C321.327 57.9516 321.327 57.9491 321.327 57.9466C321.327 57.944 321.327 57.9415 321.328 57.9389C321.328 57.9364 321.328 57.9339 321.328 57.9313C321.328 57.9288 321.328 57.9262 321.329 57.9237C321.329 57.9212 321.329 57.9186 321.329 57.9161C321.329 57.9135 321.33 57.911 321.33 57.9085C321.33 57.9059 321.33 57.9034 321.33 57.9008C321.331 57.8983 321.331 57.8958 321.331 57.8932C321.331 57.8907 321.331 57.8882 321.332 57.8856C321.332 57.8831 321.332 57.8805 321.332 57.878C321.332 57.8755 321.333 57.8729 321.333 57.8704C321.333 57.8678 321.333 57.8653 321.333 57.8628C321.334 57.8602 321.334 57.8577 321.334 57.8551C321.334 57.8526 321.334 57.8501 321.335 57.8475C321.335 57.845 321.335 57.8425 321.335 57.8399C321.335 57.8374 321.336 57.8348 321.336 57.8323C321.336 57.8298 321.336 57.8272 321.336 57.8247C321.336 57.8221 321.337 57.8196 321.337 57.8171C321.337 57.8145 321.337 57.812 321.337 57.8094C321.338 57.8069 321.338 57.8044 321.338 57.8018C321.338 57.7993 321.338 57.7967 321.339 57.7942C321.339 57.7917 321.339 57.7891 321.339 57.7866C321.339 57.7841 321.34 57.7815 321.34 57.779C321.34 57.7764 321.34 57.7739 321.34 57.7714C321.341 57.7688 321.341 57.7663 321.341 57.7637C321.341 57.7612 321.341 57.7587 321.342 57.7561C321.342 57.7536 321.342 57.751 321.342 57.7485C321.342 57.746 321.343 57.7434 321.343 57.7409C321.343 57.7383 321.343 57.7358 321.343 57.7333C321.344 57.7307 321.344 57.7282 321.344 57.7257C321.344 57.7231 321.344 57.7206 321.345 57.718C321.345 57.7155 321.345 57.713 321.345 57.7104C321.345 57.7079 321.345 57.7053 321.346 57.7028C321.346 57.7003 321.346 57.6977 321.346 57.6952C321.346 57.6926 321.347 57.6901 321.347 57.6876C321.347 57.685 321.347 57.6825 321.347 57.68C321.348 57.6774 321.348 57.6749 321.348 57.6723C321.348 57.6698 321.348 57.6673 321.349 57.6647C321.349 57.6622 321.349 57.6596 321.349 57.6571C321.349 57.6546 321.35 57.652 321.35 57.6495C321.35 57.6469 321.35 57.6444 321.35 57.6419C321.351 57.6393 321.351 57.6368 321.351 57.6342C321.351 57.6317 321.351 57.6292 321.352 57.6266C321.352 57.6241 321.352 57.6216 321.352 57.619C321.352 57.6165 321.353 57.6139 321.353 57.6114C321.353 57.6089 321.353 57.6063 321.353 57.6038C321.353 57.6012 321.354 57.5987 321.354 57.5962C321.354 57.5936 321.354 57.5911 321.354 57.5885C321.355 57.586 321.355 57.5835 321.355 57.5809C321.355 57.5784 321.355 57.5758 321.356 57.5733C321.356 57.5708 321.356 57.5682 321.356 57.5657C321.356 57.5632 321.357 57.5606 321.357 57.5581C321.357 57.5555 321.357 57.553 321.357 57.5505C321.358 57.5479 321.358 57.5454 321.358 57.5428C321.358 57.5403 321.358 57.5378 321.359 57.5352C321.359 57.5327 321.359 57.5301 321.359 57.5276C321.359 57.5251 321.36 57.5225 321.36 57.52C321.36 57.5175 321.36 57.5149 321.36 57.5124C321.361 57.5098 321.361 57.5073 321.361 57.5048C321.361 57.5022 321.361 57.4997 321.361 57.4971C321.362 57.4946 321.362 57.4921 321.362 57.4895C321.362 57.487 321.362 57.4844 321.363 57.4819C321.363 57.4794 321.363 57.4768 321.363 57.4743C321.363 57.4717 321.364 57.4692 321.364 57.4667C321.364 57.4641 321.364 57.4616 321.364 57.4591C321.365 57.4565 321.365 57.454 321.365 57.4514C321.365 57.4489 321.365 57.4464 321.366 57.4438C321.366 57.4413 321.366 57.4387 321.366 57.4362C321.366 57.4337 321.367 57.4311 321.367 57.4286C321.367 57.426 321.367 57.4235 321.367 57.421C321.368 57.4184 321.368 57.4159 321.368 57.4133C321.368 57.4108 321.368 57.4083 321.369 57.4057C321.369 57.4032 321.369 57.4007 321.369 57.3981C321.369 57.3956 321.37 57.393 321.37 57.3905C321.37 57.388 321.37 57.3854 321.37 57.3829C321.37 57.3803 321.371 57.3778 321.371 57.3753C321.371 57.3727 321.371 57.3702 321.371 57.3676C321.372 57.3651 321.372 57.3626 321.372 57.36C321.372 57.3575 321.372 57.355 321.373 57.3524C321.373 57.3499 321.373 57.3473 321.373 57.3448C321.373 57.3423 321.374 57.3397 321.374 57.3372C321.374 57.3346 321.374 57.3321 321.374 57.3296C321.375 57.327 321.375 57.3245 321.375 57.3219C321.375 57.3194 321.375 57.3169 321.376 57.3143C321.376 57.3118 321.376 57.3092 321.376 57.3067C321.376 57.3042 321.377 57.3016 321.377 57.2991C321.377 57.2966 321.377 57.294 321.377 57.2915C321.378 57.2889 321.378 57.2864 321.378 57.2839C321.378 57.2813 321.378 57.2788 321.378 57.2762C321.379 57.2737 321.379 57.2712 321.379 57.2686C321.379 57.2661 321.379 57.2635 321.38 57.261C321.38 57.2585 321.38 57.2559 321.38 57.2534L319.386 57.1ZM319.086 61L317.092 60.8466C316.996 62.0957 316.852 63.3454 316.659 64.5959L318.636 64.9L320.613 65.2041C320.821 63.8545 320.976 62.5043 321.08 61.1534L319.086 61ZM318.636 64.9L316.647 64.6947L310.347 125.745L312.336 125.95L314.326 126.155L320.626 65.1053L318.636 64.9ZM312.336 125.95L310.341 125.817C310.29 126.574 309.989 127.063 309.192 127.461L310.086 129.25L310.981 131.039C312.983 130.037 314.182 128.326 314.332 126.083L312.336 125.95ZM310.086 129.25L309.138 127.489C308.295 127.943 306.616 128.3 303.786 128.3V130.3V132.3C306.756 132.3 309.277 131.957 311.034 131.011L310.086 129.25ZM303.786 130.3V128.3H300.336V130.3V132.3H303.786V130.3ZM411.602 125.8L409.613 125.59L409.612 125.601L411.602 125.8ZM421.802 29.05L419.82 28.7857L419.816 28.8129L419.813 28.8403L421.802 29.05ZM424.052 25.75L423.104 23.989L423.104 23.9891L424.052 25.75ZM441.602 29.2L443.591 29.4066L443.592 29.399L441.602 29.2ZM431.552 125.95L429.563 125.743L429.559 125.78L429.557 125.817L431.552 125.95ZM429.302 129.25L430.197 131.039L430.197 131.039L429.302 129.25ZM419.102 130.3V128.3C416.561 128.3 415.058 127.926 414.281 127.46C413.932 127.251 413.778 127.052 413.699 126.89C413.618 126.724 413.547 126.455 413.592 125.999L411.602 125.8L409.612 125.601C409.508 126.645 409.636 127.688 410.105 128.647C410.576 129.611 411.322 130.349 412.223 130.89C413.947 131.924 416.344 132.3 419.102 132.3V130.3ZM411.602 125.8L413.591 126.01L423.791 29.2597L421.802 29.05L419.813 28.8403L409.613 125.59L411.602 125.8ZM421.802 29.05L423.785 29.3143C423.902 28.4314 424.282 27.8979 425 27.5109L424.052 25.75L423.104 23.9891C421.223 25.0021 420.102 26.6686 419.82 28.7857L421.802 29.05ZM424.052 25.75L425 27.5109C425.85 27.0536 427.486 26.7 430.202 26.7V24.7V22.7C427.318 22.7 424.855 23.0464 423.104 23.989L424.052 25.75ZM430.202 24.7V26.7H433.952V24.7V22.7H430.202V24.7ZM433.952 24.7V26.7C436.547 26.7 438.094 27.0746 438.901 27.5489C439.265 27.7631 439.424 27.9658 439.504 28.1257C439.585 28.2881 439.657 28.5518 439.612 29.001L441.602 29.2L443.592 29.399C443.697 28.3482 443.563 27.2994 443.082 26.3368C442.599 25.3717 441.839 24.6369 440.929 24.1011C439.185 23.0754 436.758 22.7 433.952 22.7V24.7ZM441.602 29.2L439.613 28.9934L429.563 125.743L431.552 125.95L433.541 126.157L443.591 29.4066L441.602 29.2ZM431.552 125.95L429.557 125.817C429.506 126.574 429.205 127.063 428.408 127.461L429.302 129.25L430.197 131.039C432.199 130.037 433.398 128.326 433.548 126.083L431.552 125.95ZM429.302 129.25L428.408 127.461C427.432 127.949 425.663 128.3 422.852 128.3V130.3V132.3C425.841 132.3 428.372 131.951 430.197 131.039L429.302 129.25ZM422.852 130.3V128.3H419.102V130.3V132.3H422.852V130.3ZM438.783 129.7L438.065 131.567L438.107 131.583L438.15 131.597L438.783 129.7ZM437.433 126.1L438.994 127.349L439.127 127.184L439.221 126.994L437.433 126.1ZM438.633 124.15L437.038 122.943L437.021 122.965L437.005 122.988L438.633 124.15ZM475.533 75.4L477.127 76.6071L477.896 75.5914L477.301 74.4653L475.533 75.4ZM451.983 30.85L450.144 31.6378L450.176 31.7127L450.214 31.7847L451.983 30.85ZM451.233 29.05L449.335 29.6825L449.354 29.7382L449.376 29.7928L451.233 29.05ZM453.033 25.45L452.4 23.5526L452.38 23.5594L452.36 23.5665L453.033 25.45ZM469.083 25.3L468.494 27.2116L468.578 27.2373L468.664 27.2556L469.083 25.3ZM472.083 27.4L473.856 26.4752L473.847 26.4586L473.838 26.4423L472.083 27.4ZM488.433 58.75L486.659 59.6748L488.135 62.5045L490.038 59.9426L488.433 58.75ZM511.833 27.25L510.285 25.9835L510.255 26.0198L510.227 26.0573L511.833 27.25ZM515.283 25.15L514.89 23.1888L514.877 23.1915L514.864 23.1944L515.283 25.15ZM531.183 25.45L530.465 27.3167L530.529 27.3413L530.594 27.3616L531.183 25.45ZM532.683 28.9L530.894 28.0056L530.894 28.0056L532.683 28.9ZM531.483 30.85L533.078 32.056L533.094 32.0345L533.11 32.0125L531.483 30.85ZM498.033 75.1L496.437 73.8939L495.669 74.9097L496.265 76.0353L498.033 75.1ZM523.983 124.15L522.215 125.085L522.262 125.175L522.319 125.259L523.983 124.15ZM524.733 125.95L522.76 126.279L522.795 126.492L522.876 126.693L524.733 125.95ZM522.933 129.55L523.651 131.417L523.686 131.403L523.72 131.388L522.933 129.55ZM506.733 129.7L506.06 131.583L506.121 131.605L506.183 131.623L506.733 129.7ZM503.583 126.85L505.371 125.956L505.363 125.939L505.355 125.923L503.583 126.85ZM485.133 91.6L486.905 90.6725L485.427 87.8492L483.527 90.4076L485.133 91.6ZM458.733 127.15L460.305 128.386L460.322 128.364L460.338 128.342L458.733 127.15ZM454.833 129.85L455.225 131.811L455.287 131.799L455.348 131.782L454.833 129.85ZM445.083 130.3V128.3C442.083 128.3 440.277 128.09 439.415 127.803L438.783 129.7L438.15 131.597C439.689 132.11 442.082 132.3 445.083 132.3V130.3ZM438.783 129.7L439.501 127.833C439.015 127.646 438.83 127.487 438.786 127.439C438.771 127.423 438.788 127.438 438.807 127.485C438.827 127.534 438.833 127.578 438.833 127.6H436.833H434.833C434.833 129.749 436.48 130.957 438.065 131.567L438.783 129.7ZM436.833 127.6H438.833C438.833 127.623 438.827 127.625 438.84 127.593C438.854 127.556 438.895 127.474 438.994 127.349L437.433 126.1L435.871 124.851C435.268 125.604 434.833 126.531 434.833 127.6H436.833ZM437.433 126.1L439.221 126.994C439.464 126.51 439.805 125.95 440.26 125.312L438.633 124.15L437.005 122.988C436.46 123.75 436.001 124.49 435.644 125.206L437.433 126.1ZM438.633 124.15L440.227 125.357L477.127 76.6071L475.533 75.4L473.938 74.1929L437.038 122.943L438.633 124.15ZM475.533 75.4L477.301 74.4653L453.751 29.9153L451.983 30.85L450.214 31.7847L473.764 76.3347L475.533 75.4ZM451.983 30.85L453.821 30.0622C453.525 29.3715 453.282 28.7874 453.09 28.3072L451.233 29.05L449.376 29.7928C449.584 30.3126 449.84 30.9285 450.144 31.6378L451.983 30.85ZM451.233 29.05L453.13 28.4175C452.981 27.97 452.933 27.6368 452.933 27.4H450.933H448.933C448.933 28.1632 449.084 28.93 449.335 29.6825L451.233 29.05ZM450.933 27.4H452.933C452.933 27.5031 452.908 27.6095 452.865 27.6976C452.826 27.7784 452.793 27.802 452.819 27.7781C452.847 27.752 452.922 27.6908 453.074 27.6073C453.226 27.5246 453.432 27.4311 453.705 27.3335L453.033 25.45L452.36 23.5665C450.894 24.0899 448.933 25.1797 448.933 27.4H450.933ZM453.033 25.45L453.665 27.3474C454.852 26.9516 456.841 26.7 459.783 26.7V24.7V22.7C456.724 22.7 454.213 22.9484 452.4 23.5526L453.033 25.45ZM459.783 24.7V26.7H464.133V24.7V22.7H459.783V24.7ZM464.133 24.7V26.7C466.018 26.7 467.452 26.8907 468.494 27.2116L469.083 25.3L469.671 23.3884C468.113 22.9093 466.247 22.7 464.133 22.7V24.7ZM469.083 25.3L468.664 27.2556C469.584 27.4529 470.047 27.8452 470.327 28.3577L472.083 27.4L473.838 26.4423C472.918 24.7548 471.381 23.7471 469.502 23.3444L469.083 25.3ZM472.083 27.4L470.309 28.3248L486.659 59.6748L488.433 58.75L490.206 57.8252L473.856 26.4752L472.083 27.4ZM488.433 58.75L490.038 59.9426L513.438 28.4426L511.833 27.25L510.227 26.0573L486.827 57.5573L488.433 58.75ZM511.833 27.25L513.381 28.5165C513.991 27.7704 514.742 27.3113 515.702 27.1056L515.283 25.15L514.864 23.1944C513.024 23.5887 511.474 24.5296 510.285 25.9835L511.833 27.25ZM515.283 25.15L515.675 27.1112C517.019 26.8423 518.584 26.7 520.383 26.7V24.7V22.7C518.381 22.7 516.546 22.8577 514.89 23.1888L515.283 25.15ZM520.383 24.7V26.7H524.883V24.7V22.7H520.383V24.7ZM524.883 24.7V26.7C527.745 26.7 529.53 26.957 530.465 27.3167L531.183 25.45L531.901 23.5833C530.236 22.943 527.821 22.7 524.883 22.7V24.7ZM531.183 25.45L530.594 27.3616C530.822 27.4315 530.981 27.5005 531.088 27.5578C531.14 27.5859 531.176 27.6094 531.199 27.6262C531.222 27.6429 531.231 27.652 531.231 27.6517C531.227 27.6479 531.195 27.6127 531.166 27.5453C531.138 27.4772 531.133 27.4215 531.133 27.4H533.133H535.133C535.133 26.407 534.75 25.5144 534.059 24.8233C533.419 24.1834 532.594 23.7918 531.771 23.5384L531.183 25.45ZM533.133 27.4H531.133C531.133 27.3565 531.14 27.3833 531.104 27.5003C531.07 27.6144 531.006 27.7809 530.894 28.0056L532.683 28.9L534.471 29.7944C534.828 29.0812 535.133 28.2532 535.133 27.4H533.133ZM532.683 28.9L530.894 28.0056C530.651 28.4904 530.31 29.0501 529.855 29.6875L531.483 30.85L533.11 32.0125C533.655 31.2499 534.114 30.5096 534.471 29.7944L532.683 28.9ZM531.483 30.85L529.887 29.6439L496.437 73.8939L498.033 75.1L499.628 76.306L533.078 32.056L531.483 30.85ZM498.033 75.1L496.265 76.0353L522.215 125.085L523.983 124.15L525.75 123.215L499.8 74.1647L498.033 75.1ZM523.983 124.15L522.319 125.259C522.59 125.667 522.714 126.005 522.76 126.279L524.733 125.95L526.705 125.621C526.551 124.695 526.175 123.833 525.647 123.041L523.983 124.15ZM524.733 125.95L522.876 126.693C523.012 127.033 523.033 127.226 523.033 127.3H525.033H527.033C527.033 126.574 526.853 125.867 526.59 125.207L524.733 125.95ZM525.033 127.3H523.033C523.033 127.258 523.042 127.208 523.06 127.166C523.076 127.128 523.084 127.132 523.046 127.173C522.954 127.271 522.702 127.473 522.145 127.712L522.933 129.55L523.72 131.388C525.302 130.71 527.033 129.466 527.033 127.3H525.033ZM522.933 129.55L522.215 127.683C521.296 128.037 519.333 128.3 516.033 128.3V130.3V132.3C519.333 132.3 521.97 132.063 523.651 131.417L522.933 129.55ZM516.033 130.3V128.3H511.833V130.3V132.3H516.033V130.3ZM511.833 130.3V128.3C509.954 128.3 508.451 128.111 507.282 127.777L506.733 129.7L506.183 131.623C507.814 132.089 509.711 132.3 511.833 132.3V130.3ZM506.733 129.7L507.405 127.817C506.519 127.5 505.854 126.921 505.371 125.956L503.583 126.85L501.794 127.744C502.711 129.579 504.147 130.9 506.06 131.583L506.733 129.7ZM503.583 126.85L505.355 125.923L486.905 90.6725L485.133 91.6L483.361 92.5274L501.811 127.777L503.583 126.85ZM485.133 91.6L483.527 90.4076L457.127 125.958L458.733 127.15L460.338 128.342L486.738 92.7924L485.133 91.6ZM458.733 127.15L457.16 125.914C456.287 127.026 455.339 127.645 454.317 127.918L454.833 129.85L455.348 131.782C457.326 131.255 458.979 130.074 460.305 128.386L458.733 127.15ZM454.833 129.85L454.44 127.889C453.096 128.158 451.531 128.3 449.733 128.3V130.3V132.3C451.734 132.3 453.569 132.142 455.225 131.811L454.833 129.85ZM449.733 130.3V128.3H445.083V130.3V132.3H449.733V130.3Z" fill="black" mask="url(#path-1-outside-1_83_148)"/>
</svg>
