<svg width="26" height="49" viewBox="0 0 26 49" fill="none" xmlns="http://www.w3.org/2000/svg">
<path d="M12.201 1.73688L13.4178 6.19863C13.4713 6.39487 13.4637 6.60276 13.396 6.79457L10.557 14.8385C10.5193 14.9454 10.5 15.0579 10.5 15.1713V20.2036C10.5 20.3673 10.3673 20.5 10.2036 20.5C10.0809 20.5 9.97095 20.4245 9.92692 20.31L3.02268 2.35898C2.77076 1.70398 3.25425 1 3.95603 1H11.2362C11.6872 1 12.0823 1.30182 12.201 1.73688Z" fill="#2DAFC5" stroke="black"/>
<path d="M9 24V22.2071C9 21.7544 9.17986 21.3201 9.5 21V21C9.82014 20.6799 10.2544 20.5 10.7071 20.5H14.691C15.1868 20.5 15.6401 20.7801 15.8618 21.2236V21.2236C15.9527 21.4054 16 21.6058 16 21.809V24" stroke="black"/>
<path d="M9 24H16" stroke="black"/>
<path d="M9 24H16" stroke="black"/>
<circle cx="13" cy="35.5" r="12.5" fill="#FFB800" stroke="black"/>
<path d="M10.5 15.1732V19.5C10.5 20.0523 10.9477 20.5 11.5 20.5H15.0109C15.3195 20.5 15.6108 20.3575 15.8003 20.1139L18.9392 16.0782C18.9796 16.0262 19.0148 15.9703 19.0443 15.9114L21.5 11L24.9514 2.37139C25.2142 1.71453 24.7304 1 24.023 1H16.2047C15.7821 1 15.4051 1.26567 15.263 1.66366L10.5583 14.8369C10.5197 14.9448 10.5 15.0586 10.5 15.1732Z" fill="#86EDFF" stroke="black"/>
<circle cx="12.95" cy="35.55" r="11.25" fill="#FACC15"/>
<path d="M12.5 27L14.4084 32.8734L20.584 32.8734L15.5878 36.5033L17.4962 42.3766L12.5 38.7467L7.50383 42.3766L9.41219 36.5033L4.41602 32.8734L10.5916 32.8734L12.5 27Z" fill="#F8F8F8"/>
</svg>
