<svg width="418" height="152" viewBox="0 0 418 152" fill="none" xmlns="http://www.w3.org/2000/svg">
<path d="M81.7258 52.5153L401.899 7.27481C402.979 7.12224 403.982 7.86277 404.154 8.93961L415.683 81.1016C415.858 82.1953 415.111 83.2228 414.016 83.3933L53.0863 139.623C30.5293 143.138 9.42701 127.606 6.07684 105.024V105.024C2.72751 82.448 18.4033 61.4628 41.0021 58.2696L81.7258 52.5153ZM81.7258 52.5153L88.8323 93.5387M56.8527 56.1024L63.9593 97.1258" stroke="#1E1E1E" stroke-width="4" stroke-linecap="round"/>
<mask id="path-2-outside-1_83_159" maskUnits="userSpaceOnUse" x="70.9575" y="32.2979" width="305" height="90" fill="black">
<rect fill="white" x="70.9575" y="32.2979" width="305" height="90"/>
<path d="M79.7865 119.538C77.7065 119.538 76.1465 119.378 75.1065 119.058C74.0665 118.658 73.5465 118.058 73.5465 117.258C73.5465 116.938 73.6265 116.618 73.7865 116.298C73.8665 115.898 74.0265 115.498 74.2665 115.098L109.306 37.3378C109.626 36.7778 110.066 36.3378 110.626 36.0179C111.186 35.6979 111.906 35.4578 112.786 35.2978C113.746 35.1378 114.706 35.0578 115.666 35.0578H120.946C121.986 35.0578 122.906 35.1378 123.706 35.2978C124.586 35.4578 125.306 35.6979 125.866 36.0179C126.426 36.3378 126.786 36.7778 126.946 37.3378L145.786 115.098C145.866 115.338 145.906 115.658 145.906 116.058C145.986 116.458 146.026 116.738 146.026 116.898C146.026 117.618 145.546 118.258 144.586 118.818C143.626 119.298 142.106 119.538 140.026 119.538H136.186C134.666 119.538 133.346 119.378 132.226 119.058C131.186 118.738 130.586 118.138 130.426 117.258L117.466 60.9778C117.146 59.7778 116.906 58.5378 116.746 57.2578C116.666 55.9778 116.586 54.7378 116.506 53.5378H116.146C115.826 54.7378 115.426 55.9778 114.946 57.2578C114.546 58.5378 114.106 59.7778 113.626 60.9778L88.6665 117.258C88.3465 118.058 87.6665 118.658 86.6265 119.058C85.6665 119.378 84.5065 119.538 83.1465 119.538H79.7865ZM91.0665 100.338V87.7379H133.426V100.338H91.0665ZM164.592 119.538C160.432 119.538 158.472 118.338 158.712 115.938L165.792 48.7379H145.392C144.352 48.7379 143.592 48.3378 143.112 47.5378C142.632 46.6578 142.472 45.3778 142.632 43.6978L143.112 40.3378C143.272 38.4978 143.632 37.2178 144.192 36.4978C144.832 35.6978 145.712 35.2978 146.832 35.2978H203.112C204.312 35.2978 205.112 35.7378 205.512 36.6179C205.992 37.4178 206.152 38.6578 205.992 40.3378L205.512 43.6978C205.352 45.5378 204.952 46.8578 204.312 47.6579C203.752 48.3779 202.872 48.7379 201.672 48.7379H181.752L174.672 116.058C174.592 117.178 173.992 118.058 172.872 118.698C171.832 119.258 170.192 119.538 167.952 119.538H164.592ZM234.587 120.138C227.547 120.138 221.467 118.738 216.347 115.938C211.307 113.138 207.427 109.098 204.707 103.818C201.987 98.5379 200.627 92.2978 200.627 85.0978C200.627 78.4578 201.187 72.4178 202.307 66.9778C203.507 61.5379 205.227 56.7779 207.467 52.6979C209.787 48.6179 212.667 45.2578 216.107 42.6178C219.547 39.8978 223.547 37.8578 228.107 36.4978C232.747 35.1378 237.907 34.4578 243.587 34.4578C250.627 34.4578 256.667 35.8578 261.707 38.6578C266.747 41.4578 270.627 45.4578 273.347 50.6578C276.067 55.8578 277.427 62.0578 277.427 69.2578C277.427 75.9779 276.867 82.0579 275.747 87.4978C274.627 92.9378 272.907 97.6979 270.587 101.778C268.267 105.858 265.387 109.258 261.947 111.978C258.507 114.698 254.507 116.738 249.947 118.098C245.387 119.458 240.267 120.138 234.587 120.138ZM235.907 106.698C239.187 106.698 242.187 106.218 244.907 105.258C247.627 104.298 249.987 102.858 251.987 100.938C253.987 99.0179 255.667 96.6179 257.027 93.7378C258.467 90.8578 259.507 87.4978 260.147 83.6578C260.787 79.7378 261.107 75.4178 261.107 70.6978C261.107 63.4178 259.427 57.8178 256.067 53.8978C252.707 49.8978 248.067 47.8978 242.147 47.8978C238.787 47.8978 235.747 48.3778 233.027 49.3379C230.387 50.2178 228.027 51.6578 225.947 53.6578C223.947 55.5778 222.267 57.9779 220.907 60.8578C219.547 63.7378 218.507 67.0978 217.787 70.9378C217.147 74.6978 216.827 78.9779 216.827 83.7779C216.827 91.0579 218.507 96.6979 221.867 100.698C225.307 104.698 229.987 106.698 235.907 106.698Z"/>
<path d="M288.041 119.538C283.801 119.538 281.801 118.338 282.041 115.938L290.201 38.5378C290.361 37.3378 290.961 36.4578 292.001 35.8978C293.041 35.3378 294.681 35.0578 296.921 35.0578H302.441C303.961 35.0578 305.241 35.2978 306.281 35.7778C307.401 36.2578 308.241 37.0578 308.801 38.1778L324.161 72.7379C324.801 74.0179 325.401 75.3779 325.961 76.8179C326.521 78.2578 326.881 79.4178 327.041 80.2978C327.521 79.2578 328.121 78.0978 328.841 76.8179C329.641 75.5379 330.361 74.3779 331.001 73.3378L354.161 38.2979C354.961 37.0978 355.961 36.2578 357.161 35.7778C358.361 35.2978 359.761 35.0578 361.361 35.0578H366.881C371.201 35.0578 373.241 36.2578 373.001 38.6578L364.961 116.058C364.881 117.258 364.281 118.138 363.161 118.698C362.041 119.258 360.321 119.538 358.001 119.538H355.241C353.161 119.538 351.641 119.258 350.681 118.698C349.721 118.058 349.281 117.138 349.361 115.938L354.401 67.4579C354.561 66.4178 354.681 65.3778 354.761 64.3378C354.841 63.2978 354.961 62.2978 355.121 61.3379L354.641 61.2178C354.081 62.0178 353.521 62.8578 352.961 63.7378C352.481 64.5378 351.961 65.3379 351.401 66.1378L332.441 95.1779C331.721 96.2979 330.921 97.0579 330.041 97.4579C329.161 97.8579 327.921 98.0579 326.321 98.0579H324.281C322.761 98.0579 321.601 97.8579 320.801 97.4579C320.081 97.0579 319.481 96.2979 319.001 95.1779L305.921 65.8978C305.601 65.0978 305.241 64.2978 304.841 63.4978C304.521 62.6178 304.161 61.7378 303.761 60.8578L303.281 60.9778C303.201 62.0178 303.121 63.0578 303.041 64.0979C302.961 65.1378 302.841 66.1778 302.681 67.2178L297.641 116.058C297.561 117.258 296.961 118.138 295.841 118.698C294.801 119.258 293.121 119.538 290.801 119.538H288.041Z"/>
</mask>
<path d="M79.7865 119.538C77.7065 119.538 76.1465 119.378 75.1065 119.058C74.0665 118.658 73.5465 118.058 73.5465 117.258C73.5465 116.938 73.6265 116.618 73.7865 116.298C73.8665 115.898 74.0265 115.498 74.2665 115.098L109.306 37.3378C109.626 36.7778 110.066 36.3378 110.626 36.0179C111.186 35.6979 111.906 35.4578 112.786 35.2978C113.746 35.1378 114.706 35.0578 115.666 35.0578H120.946C121.986 35.0578 122.906 35.1378 123.706 35.2978C124.586 35.4578 125.306 35.6979 125.866 36.0179C126.426 36.3378 126.786 36.7778 126.946 37.3378L145.786 115.098C145.866 115.338 145.906 115.658 145.906 116.058C145.986 116.458 146.026 116.738 146.026 116.898C146.026 117.618 145.546 118.258 144.586 118.818C143.626 119.298 142.106 119.538 140.026 119.538H136.186C134.666 119.538 133.346 119.378 132.226 119.058C131.186 118.738 130.586 118.138 130.426 117.258L117.466 60.9778C117.146 59.7778 116.906 58.5378 116.746 57.2578C116.666 55.9778 116.586 54.7378 116.506 53.5378H116.146C115.826 54.7378 115.426 55.9778 114.946 57.2578C114.546 58.5378 114.106 59.7778 113.626 60.9778L88.6665 117.258C88.3465 118.058 87.6665 118.658 86.6265 119.058C85.6665 119.378 84.5065 119.538 83.1465 119.538H79.7865ZM91.0665 100.338V87.7379H133.426V100.338H91.0665ZM164.592 119.538C160.432 119.538 158.472 118.338 158.712 115.938L165.792 48.7379H145.392C144.352 48.7379 143.592 48.3378 143.112 47.5378C142.632 46.6578 142.472 45.3778 142.632 43.6978L143.112 40.3378C143.272 38.4978 143.632 37.2178 144.192 36.4978C144.832 35.6978 145.712 35.2978 146.832 35.2978H203.112C204.312 35.2978 205.112 35.7378 205.512 36.6179C205.992 37.4178 206.152 38.6578 205.992 40.3378L205.512 43.6978C205.352 45.5378 204.952 46.8578 204.312 47.6579C203.752 48.3779 202.872 48.7379 201.672 48.7379H181.752L174.672 116.058C174.592 117.178 173.992 118.058 172.872 118.698C171.832 119.258 170.192 119.538 167.952 119.538H164.592ZM234.587 120.138C227.547 120.138 221.467 118.738 216.347 115.938C211.307 113.138 207.427 109.098 204.707 103.818C201.987 98.5379 200.627 92.2978 200.627 85.0978C200.627 78.4578 201.187 72.4178 202.307 66.9778C203.507 61.5379 205.227 56.7779 207.467 52.6979C209.787 48.6179 212.667 45.2578 216.107 42.6178C219.547 39.8978 223.547 37.8578 228.107 36.4978C232.747 35.1378 237.907 34.4578 243.587 34.4578C250.627 34.4578 256.667 35.8578 261.707 38.6578C266.747 41.4578 270.627 45.4578 273.347 50.6578C276.067 55.8578 277.427 62.0578 277.427 69.2578C277.427 75.9779 276.867 82.0579 275.747 87.4978C274.627 92.9378 272.907 97.6979 270.587 101.778C268.267 105.858 265.387 109.258 261.947 111.978C258.507 114.698 254.507 116.738 249.947 118.098C245.387 119.458 240.267 120.138 234.587 120.138ZM235.907 106.698C239.187 106.698 242.187 106.218 244.907 105.258C247.627 104.298 249.987 102.858 251.987 100.938C253.987 99.0179 255.667 96.6179 257.027 93.7378C258.467 90.8578 259.507 87.4978 260.147 83.6578C260.787 79.7378 261.107 75.4178 261.107 70.6978C261.107 63.4178 259.427 57.8178 256.067 53.8978C252.707 49.8978 248.067 47.8978 242.147 47.8978C238.787 47.8978 235.747 48.3778 233.027 49.3379C230.387 50.2178 228.027 51.6578 225.947 53.6578C223.947 55.5778 222.267 57.9779 220.907 60.8578C219.547 63.7378 218.507 67.0978 217.787 70.9378C217.147 74.6978 216.827 78.9779 216.827 83.7779C216.827 91.0579 218.507 96.6979 221.867 100.698C225.307 104.698 229.987 106.698 235.907 106.698Z" fill="black"/>
<path d="M288.041 119.538C283.801 119.538 281.801 118.338 282.041 115.938L290.201 38.5378C290.361 37.3378 290.961 36.4578 292.001 35.8978C293.041 35.3378 294.681 35.0578 296.921 35.0578H302.441C303.961 35.0578 305.241 35.2978 306.281 35.7778C307.401 36.2578 308.241 37.0578 308.801 38.1778L324.161 72.7379C324.801 74.0179 325.401 75.3779 325.961 76.8179C326.521 78.2578 326.881 79.4178 327.041 80.2978C327.521 79.2578 328.121 78.0978 328.841 76.8179C329.641 75.5379 330.361 74.3779 331.001 73.3378L354.161 38.2979C354.961 37.0978 355.961 36.2578 357.161 35.7778C358.361 35.2978 359.761 35.0578 361.361 35.0578H366.881C371.201 35.0578 373.241 36.2578 373.001 38.6578L364.961 116.058C364.881 117.258 364.281 118.138 363.161 118.698C362.041 119.258 360.321 119.538 358.001 119.538H355.241C353.161 119.538 351.641 119.258 350.681 118.698C349.721 118.058 349.281 117.138 349.361 115.938L354.401 67.4579C354.561 66.4178 354.681 65.3778 354.761 64.3378C354.841 63.2978 354.961 62.2978 355.121 61.3379L354.641 61.2178C354.081 62.0178 353.521 62.8578 352.961 63.7378C352.481 64.5378 351.961 65.3379 351.401 66.1378L332.441 95.1779C331.721 96.2979 330.921 97.0579 330.041 97.4579C329.161 97.8579 327.921 98.0579 326.321 98.0579H324.281C322.761 98.0579 321.601 97.8579 320.801 97.4579C320.081 97.0579 319.481 96.2979 319.001 95.1779L305.921 65.8978C305.601 65.0978 305.241 64.2978 304.841 63.4978C304.521 62.6178 304.161 61.7378 303.761 60.8578L303.281 60.9778C303.201 62.0178 303.121 63.0578 303.041 64.0979C302.961 65.1378 302.841 66.1778 302.681 67.2178L297.641 116.058C297.561 117.258 296.961 118.138 295.841 118.698C294.801 119.258 293.121 119.538 290.801 119.538H288.041Z" fill="#713B9A"/>
<path d="M75.1065 119.058L74.3885 120.925L74.4526 120.949L74.5183 120.969L75.1065 119.058ZM73.7865 116.298L75.5753 117.192L75.6951 116.953L75.7476 116.69L73.7865 116.298ZM74.2665 115.098L75.9815 116.127L76.0417 116.026L76.0899 115.92L74.2665 115.098ZM109.306 37.3378L107.57 36.3456L107.522 36.4288L107.483 36.5162L109.306 37.3378ZM110.626 36.0179L111.619 37.7543L111.619 37.7543L110.626 36.0179ZM112.786 35.2978L112.458 33.3251L112.443 33.3275L112.429 33.3301L112.786 35.2978ZM123.706 35.2978L123.314 37.259L123.331 37.2624L123.349 37.2656L123.706 35.2978ZM125.866 36.0179L124.874 37.7543L124.874 37.7543L125.866 36.0179ZM126.946 37.3378L128.89 36.8669L128.881 36.8274L128.87 36.7884L126.946 37.3378ZM145.786 115.098L143.843 115.569L143.863 115.651L143.889 115.73L145.786 115.098ZM145.906 116.058H143.906V116.256L143.945 116.45L145.906 116.058ZM144.586 118.818L145.481 120.607L145.539 120.578L145.594 120.545L144.586 118.818ZM132.226 119.058L131.638 120.969L131.658 120.975L131.677 120.981L132.226 119.058ZM130.426 117.258L132.394 116.9L132.386 116.854L132.375 116.809L130.426 117.258ZM117.466 60.9778L119.415 60.529L119.408 60.4956L119.399 60.4625L117.466 60.9778ZM116.746 57.2578L114.75 57.3826L114.754 57.4444L114.762 57.5059L116.746 57.2578ZM116.506 53.5378L118.502 53.4048L118.378 51.5378H116.506V53.5378ZM116.146 53.5378V51.5378H114.61L114.214 53.0225L116.146 53.5378ZM114.946 57.2578L113.074 56.5556L113.054 56.6079L113.038 56.6613L114.946 57.2578ZM113.626 60.9778L115.455 61.7887L115.47 61.7549L115.483 61.7206L113.626 60.9778ZM88.6665 117.258L86.8382 116.447L86.8232 116.481L86.8095 116.515L88.6665 117.258ZM86.6265 119.058L87.2589 120.955L87.302 120.941L87.3444 120.925L86.6265 119.058ZM91.0665 100.338H89.0665V102.338H91.0665V100.338ZM91.0665 87.7379V85.7379H89.0665V87.7379H91.0665ZM133.426 87.7379H135.426V85.7379H133.426V87.7379ZM133.426 100.338V102.338H135.426V100.338H133.426ZM79.7865 119.538V117.538C77.7592 117.538 76.4418 117.376 75.6946 117.146L75.1065 119.058L74.5183 120.969C75.8511 121.379 77.6537 121.538 79.7865 121.538V119.538ZM75.1065 119.058L75.8244 117.191C75.6663 117.13 75.5642 117.076 75.5033 117.037C75.4433 116.998 75.4336 116.982 75.4478 116.998C75.4648 117.018 75.4952 117.06 75.5188 117.124C75.5423 117.187 75.5465 117.237 75.5465 117.258H73.5465H71.5465C71.5465 118.135 71.8473 118.951 72.4251 119.618C72.969 120.245 73.6788 120.652 74.3885 120.925L75.1065 119.058ZM73.5465 117.258H75.5465C75.5465 117.266 75.5452 117.269 75.5468 117.263C75.5485 117.256 75.5551 117.233 75.5753 117.192L73.7865 116.298L71.9976 115.403C71.7153 115.968 71.5465 116.592 71.5465 117.258H73.5465ZM73.7865 116.298L75.7476 116.69C75.7767 116.545 75.8427 116.358 75.9815 116.127L74.2665 115.098L72.5515 114.069C72.2102 114.638 71.9562 115.251 71.8253 115.906L73.7865 116.298ZM74.2665 115.098L76.0899 115.92L111.13 38.1595L109.306 37.3378L107.483 36.5162L72.443 114.276L74.2665 115.098ZM109.306 37.3378L111.043 38.3301C111.186 38.0802 111.369 37.8972 111.619 37.7543L110.626 36.0179L109.634 34.2814C108.764 34.7785 108.067 35.4755 107.57 36.3456L109.306 37.3378ZM110.626 36.0179L111.619 37.7543C111.922 37.5811 112.407 37.3995 113.144 37.2656L112.786 35.2978L112.429 33.3301C111.405 33.5162 110.451 33.8146 109.634 34.2814L110.626 36.0179ZM112.786 35.2978L113.115 37.2706C113.968 37.1285 114.818 37.0578 115.666 37.0578V35.0578V33.0578C114.595 33.0578 113.525 33.1472 112.458 33.3251L112.786 35.2978ZM115.666 35.0578V37.0578H120.946V35.0578V33.0578H115.666V35.0578ZM120.946 35.0578V37.0578C121.889 37.0578 122.673 37.1307 123.314 37.259L123.706 35.2978L124.099 33.3367C123.14 33.145 122.084 33.0578 120.946 33.0578V35.0578ZM123.706 35.2978L123.349 37.2656C124.085 37.3995 124.571 37.5811 124.874 37.7543L125.866 36.0179L126.859 34.2814C126.042 33.8146 125.087 33.5162 124.064 33.3301L123.706 35.2978ZM125.866 36.0179L124.874 37.7543C124.97 37.8092 125.003 37.8474 125.009 37.8543C125.012 37.8588 125.014 37.8612 125.015 37.8631C125.016 37.865 125.019 37.8721 125.023 37.8873L126.946 37.3378L128.87 36.7884C128.55 35.6704 127.819 34.83 126.859 34.2814L125.866 36.0179ZM126.946 37.3378L125.003 37.8088L143.843 115.569L145.786 115.098L147.73 114.627L128.89 36.8669L126.946 37.3378ZM145.786 115.098L143.889 115.73C143.878 115.697 143.884 115.703 143.892 115.766C143.9 115.827 143.906 115.922 143.906 116.058H145.906H147.906C147.906 115.553 147.859 114.992 147.684 114.465L145.786 115.098ZM145.906 116.058L143.945 116.45C143.981 116.628 144.004 116.759 144.017 116.851C144.023 116.896 144.026 116.923 144.027 116.936C144.029 116.952 144.026 116.936 144.026 116.898H146.026H148.026C148.026 116.516 147.946 116.057 147.868 115.666L145.906 116.058ZM146.026 116.898H144.026C144.026 116.851 144.035 116.801 144.05 116.757C144.065 116.716 144.078 116.703 144.066 116.718C144.036 116.758 143.912 116.896 143.579 117.09L144.586 118.818L145.594 120.545C146.811 119.836 148.026 118.664 148.026 116.898H146.026ZM144.586 118.818L143.692 117.029C143.165 117.293 142.035 117.538 140.026 117.538V119.538V121.538C142.178 121.538 144.088 121.303 145.481 120.607L144.586 118.818ZM140.026 119.538V117.538H136.186V119.538V121.538H140.026V119.538ZM136.186 119.538V117.538C134.799 117.538 133.672 117.391 132.776 117.135L132.226 119.058L131.677 120.981C133.021 121.365 134.534 121.538 136.186 121.538V119.538ZM132.226 119.058L132.815 117.146C132.521 117.056 132.424 116.967 132.411 116.954C132.405 116.948 132.406 116.948 132.408 116.952C132.409 116.954 132.402 116.941 132.394 116.9L130.426 117.258L128.459 117.616C128.784 119.404 130.07 120.487 131.638 120.969L132.226 119.058ZM130.426 117.258L132.375 116.809L119.415 60.529L117.466 60.9778L115.517 61.4267L128.477 117.707L130.426 117.258ZM117.466 60.9778L119.399 60.4625C119.103 59.3536 118.88 58.2031 118.731 57.0098L116.746 57.2578L114.762 57.5059C114.933 58.8726 115.19 60.2021 115.534 61.4932L117.466 60.9778ZM116.746 57.2578L118.743 57.1331C118.662 55.8505 118.582 54.6077 118.502 53.4048L116.506 53.5378L114.511 53.6709C114.591 54.868 114.671 56.1052 114.75 57.3826L116.746 57.2578ZM116.506 53.5378V51.5378H116.146V53.5378V55.5378H116.506V53.5378ZM116.146 53.5378L114.214 53.0225C113.912 54.1533 113.533 55.3309 113.074 56.5556L114.946 57.2578L116.819 57.9601C117.32 56.6248 117.74 55.3224 118.079 54.0532L116.146 53.5378ZM114.946 57.2578L113.038 56.6613C112.652 57.8937 112.23 59.0849 111.77 60.2351L113.626 60.9778L115.483 61.7206C115.983 60.4708 116.441 59.182 116.855 57.8544L114.946 57.2578ZM113.626 60.9778L111.798 60.167L86.8382 116.447L88.6665 117.258L90.4947 118.069L115.455 61.7887L113.626 60.9778ZM88.6665 117.258L86.8095 116.515C86.7526 116.657 86.59 116.929 85.9085 117.191L86.6265 119.058L87.3444 120.925C88.743 120.387 89.9403 119.458 90.5234 118.001L88.6665 117.258ZM86.6265 119.058L85.994 117.16C85.2945 117.394 84.3605 117.538 83.1465 117.538V119.538V121.538C84.6524 121.538 86.0385 121.362 87.2589 120.955L86.6265 119.058ZM83.1465 119.538V117.538H79.7865V119.538V121.538H83.1465V119.538ZM91.0665 100.338H93.0665V87.7379H91.0665H89.0665V100.338H91.0665ZM91.0665 87.7379V89.7379H133.426V87.7379V85.7379H91.0665V87.7379ZM133.426 87.7379H131.426V100.338H133.426H135.426V87.7379H133.426ZM133.426 100.338V98.3379H91.0665V100.338V102.338H133.426V100.338ZM158.712 115.938L156.723 115.728L156.722 115.739L158.712 115.938ZM165.792 48.7379L167.781 48.9474L168.014 46.7379H165.792V48.7379ZM143.112 47.5378L141.356 48.4956L141.376 48.5316L141.397 48.5668L143.112 47.5378ZM142.632 43.6978L140.652 43.415L140.645 43.4615L140.641 43.5082L142.632 43.6978ZM143.112 40.3378L145.092 40.6207L145.099 40.5661L145.104 40.5111L143.112 40.3378ZM144.192 36.4978L142.63 35.2485L142.621 35.2592L142.613 35.27L144.192 36.4978ZM205.512 36.6179L203.691 37.4455L203.738 37.5492L203.797 37.6468L205.512 36.6179ZM205.992 40.3378L207.972 40.6207L207.978 40.5742L207.983 40.5275L205.992 40.3378ZM205.512 43.6978L203.532 43.415L203.524 43.4696L203.519 43.5246L205.512 43.6978ZM204.312 47.6579L202.75 46.4085L202.741 46.4192L202.733 46.43L204.312 47.6579ZM181.752 48.7379V46.7379H179.951L179.763 48.5287L181.752 48.7379ZM174.672 116.058L172.683 115.849L172.679 115.882L172.677 115.915L174.672 116.058ZM172.872 118.698L173.82 120.459L173.842 120.447L173.864 120.434L172.872 118.698ZM164.592 119.538V117.538C162.624 117.538 161.548 117.239 161.046 116.932C160.834 116.803 160.773 116.701 160.749 116.651C160.722 116.594 160.671 116.449 160.702 116.137L158.712 115.938L156.722 115.739C156.633 116.627 156.737 117.532 157.14 118.375C157.545 119.224 158.189 119.873 158.957 120.344C160.416 121.236 162.4 121.538 164.592 121.538V119.538ZM158.712 115.938L160.701 116.147L167.781 48.9474L165.792 48.7379L163.803 48.5283L156.723 115.728L158.712 115.938ZM165.792 48.7379V46.7379H145.392V48.7379V50.7379H165.792V48.7379ZM145.392 48.7379V46.7379C145.129 46.7379 145.011 46.6881 144.973 46.668C144.945 46.6532 144.895 46.6229 144.827 46.5089L143.112 47.5378L141.397 48.5668C142.285 50.0477 143.746 50.7379 145.392 50.7379V48.7379ZM143.112 47.5378L144.868 46.5801C144.669 46.2167 144.477 45.4135 144.623 43.8875L142.632 43.6978L140.641 43.5082C140.466 45.3422 140.594 47.099 141.356 48.4956L143.112 47.5378ZM142.632 43.6978L144.612 43.9807L145.092 40.6207L143.112 40.3378L141.132 40.055L140.652 43.415L142.632 43.6978ZM143.112 40.3378L145.104 40.5111C145.259 38.7328 145.588 37.9598 145.77 37.7257L144.192 36.4978L142.613 35.27C141.675 36.4759 141.285 38.2629 141.119 40.1646L143.112 40.3378ZM144.192 36.4978L145.754 37.7472C145.975 37.47 146.255 37.2978 146.832 37.2978V35.2978V33.2978C145.169 33.2978 143.688 33.9257 142.63 35.2485L144.192 36.4978ZM146.832 35.2978V37.2978H203.112V35.2978V33.2978H146.832V35.2978ZM203.112 35.2978V37.2978C203.477 37.2978 203.622 37.3658 203.648 37.3803C203.652 37.3823 203.654 37.3838 203.655 37.3847C203.657 37.3856 203.657 37.3861 203.657 37.3861C203.657 37.3861 203.657 37.386 203.657 37.3857C203.657 37.3855 203.657 37.3854 203.657 37.3857C203.657 37.386 203.66 37.3894 203.666 37.3977C203.671 37.4062 203.68 37.4214 203.691 37.4455L205.512 36.6179L207.333 35.7902C206.965 34.9822 206.376 34.3159 205.576 33.8754C204.802 33.4499 203.946 33.2978 203.112 33.2978V35.2978ZM205.512 36.6179L203.797 37.6468C203.94 37.8862 204.149 38.5922 204.001 40.1482L205.992 40.3378L207.983 40.5275C208.155 38.7235 208.043 36.9495 207.227 35.5889L205.512 36.6179ZM205.992 40.3378L204.012 40.055L203.532 43.415L205.512 43.6978L207.492 43.9807L207.972 40.6207L205.992 40.3378ZM205.512 43.6978L203.519 43.5246C203.37 45.2453 203.015 46.0779 202.75 46.4085L204.312 47.6579L205.874 48.9072C206.889 47.6378 207.334 45.8304 207.504 43.8711L205.512 43.6978ZM204.312 47.6579L202.733 46.43C202.665 46.5176 202.465 46.7379 201.672 46.7379V48.7379V50.7379C203.278 50.7379 204.839 50.2381 205.89 48.8857L204.312 47.6579ZM201.672 48.7379V46.7379H181.752V48.7379V50.7379H201.672V48.7379ZM181.752 48.7379L179.763 48.5287L172.683 115.849L174.672 116.058L176.661 116.267L183.741 48.947L181.752 48.7379ZM174.672 116.058L172.677 115.915C172.652 116.263 172.521 116.595 171.88 116.961L172.872 118.698L173.864 120.434C175.463 119.521 176.531 118.093 176.667 116.2L174.672 116.058ZM172.872 118.698L171.924 116.937C171.334 117.254 170.108 117.538 167.952 117.538V119.538V121.538C170.276 121.538 172.329 121.261 173.82 120.459L172.872 118.698ZM167.952 119.538V117.538H164.592V119.538V121.538H167.952V119.538ZM216.347 115.938L215.376 117.686L215.388 117.693L216.347 115.938ZM204.707 103.818L206.485 102.902L204.707 103.818ZM202.307 66.9778L200.354 66.547L200.351 66.5608L200.348 66.5745L202.307 66.9778ZM207.467 52.6979L205.729 51.7092L205.721 51.7222L205.714 51.7353L207.467 52.6979ZM216.107 42.6178L217.325 44.2045L217.337 44.1957L217.348 44.1867L216.107 42.6178ZM228.107 36.4978L227.545 34.5786L227.536 34.5813L228.107 36.4978ZM261.707 38.6578L262.679 36.9095L262.679 36.9095L261.707 38.6578ZM273.347 50.6578L271.575 51.5848L271.575 51.5848L273.347 50.6578ZM275.747 87.4978L273.788 87.0945L273.788 87.0945L275.747 87.4978ZM270.587 101.778L268.849 100.789L268.849 100.789L270.587 101.778ZM261.947 111.978L263.188 113.547L263.188 113.547L261.947 111.978ZM249.947 118.098L250.519 120.014L250.519 120.014L249.947 118.098ZM251.987 100.938L250.602 99.4951L250.602 99.4951L251.987 100.938ZM257.027 93.7378L255.239 92.8434L255.229 92.8635L255.219 92.8838L257.027 93.7378ZM260.147 83.6578L262.12 83.9866L262.121 83.9801L260.147 83.6578ZM256.067 53.8978L254.536 55.1842L254.542 55.1919L254.549 55.1994L256.067 53.8978ZM233.027 49.3379L233.66 51.2352L233.677 51.2297L233.693 51.2238L233.027 49.3379ZM225.947 53.6578L227.332 55.1006L227.334 55.0995L225.947 53.6578ZM220.907 60.8578L219.099 60.0038L219.099 60.0038L220.907 60.8578ZM217.787 70.9378L215.822 70.5693L215.819 70.5857L215.816 70.6022L217.787 70.9378ZM221.867 100.698L220.336 101.984L220.343 101.993L220.351 102.002L221.867 100.698ZM234.587 120.138V118.138C227.814 118.138 222.078 116.792 217.307 114.183L216.347 115.938L215.388 117.693C220.857 120.684 227.281 122.138 234.587 122.138V120.138ZM216.347 115.938L217.319 114.19C212.635 111.587 209.03 107.842 206.485 102.902L204.707 103.818L202.929 104.734C205.824 110.354 209.98 114.688 215.376 117.686L216.347 115.938ZM204.707 103.818L206.485 102.902C203.939 97.9592 202.627 92.0461 202.627 85.0978H200.627H198.627C198.627 92.5496 200.036 99.1165 202.929 104.734L204.707 103.818ZM200.627 85.0978H202.627C202.627 78.5679 203.178 72.6657 204.266 67.3812L202.307 66.9778L200.348 66.5745C199.196 72.17 198.627 78.3478 198.627 85.0978H200.627ZM202.307 66.9778L204.26 67.4087C205.427 62.1192 207.088 57.5446 209.221 53.6604L207.467 52.6979L205.714 51.7353C203.367 56.0111 201.588 60.9565 200.354 66.547L202.307 66.9778ZM207.467 52.6979L209.206 53.6865C211.405 49.8193 214.114 46.6689 217.325 44.2045L216.107 42.6178L214.89 41.0312C211.221 43.8468 208.17 47.4164 205.729 51.7092L207.467 52.6979ZM216.107 42.6178L217.348 44.1867C220.573 41.6369 224.341 39.7082 228.679 38.4144L228.107 36.4978L227.536 34.5813C222.754 36.0075 218.522 38.1588 214.867 41.049L216.107 42.6178ZM228.107 36.4978L228.67 38.4171C233.099 37.119 238.065 36.4578 243.587 36.4578V34.4578V32.4578C237.749 32.4578 232.396 33.1567 227.545 34.5786L228.107 36.4978ZM243.587 34.4578V36.4578C250.362 36.4578 256.052 37.804 260.736 40.4062L261.707 38.6578L262.679 36.9095C257.283 33.9117 250.893 32.4578 243.587 32.4578V34.4578ZM261.707 38.6578L260.736 40.4062C265.428 43.0129 269.033 46.7244 271.575 51.5848L273.347 50.6578L275.12 49.7309C272.222 44.1913 268.067 39.9028 262.679 36.9095L261.707 38.6578ZM273.347 50.6578L271.575 51.5848C274.115 56.441 275.427 62.3085 275.427 69.2578H277.427H279.427C279.427 61.8072 278.019 55.2747 275.12 49.7309L273.347 50.6578ZM277.427 69.2578H275.427C275.427 75.8695 274.876 81.8114 273.788 87.0945L275.747 87.4978L277.706 87.9012C278.859 82.3043 279.427 76.0862 279.427 69.2578H277.427ZM275.747 87.4978L273.788 87.0945C272.703 92.3657 271.048 96.9215 268.849 100.789L270.587 101.778L272.326 102.766C274.767 98.4742 276.552 93.51 277.706 87.9012L275.747 87.4978ZM270.587 101.778L268.849 100.789C266.647 104.661 263.931 107.86 260.707 110.409L261.947 111.978L263.188 113.547C266.844 110.656 269.888 107.054 272.326 102.766L270.587 101.778ZM261.947 111.978L260.707 110.409C257.482 112.959 253.714 114.888 249.376 116.181L249.947 118.098L250.519 120.014C255.301 118.588 259.533 116.437 263.188 113.547L261.947 111.978ZM249.947 118.098L249.376 116.181C245.033 117.476 240.11 118.138 234.587 118.138V120.138V122.138C240.425 122.138 245.742 121.439 250.519 120.014L249.947 118.098ZM235.907 106.698V108.698C239.383 108.698 242.612 108.189 245.573 107.144L244.907 105.258L244.242 103.372C241.763 104.247 238.991 104.698 235.907 104.698V106.698ZM244.907 105.258L245.573 107.144C248.551 106.093 251.159 104.506 253.372 102.381L251.987 100.938L250.602 99.4951C248.816 101.21 246.704 102.503 244.242 103.372L244.907 105.258ZM251.987 100.938L253.372 102.381C255.572 100.269 257.387 97.6599 258.836 94.5919L257.027 93.7378L255.219 92.8838C253.948 95.5758 252.402 97.767 250.602 99.4951L251.987 100.938ZM257.027 93.7378L258.816 94.6323C260.362 91.5413 261.454 87.9837 262.12 83.9866L260.147 83.6578L258.175 83.3291C257.561 87.012 256.573 90.1744 255.239 92.8434L257.027 93.7378ZM260.147 83.6578L262.121 83.9801C262.782 79.9359 263.107 75.5063 263.107 70.6978H261.107H259.107C259.107 75.3294 258.793 79.5398 258.174 83.3356L260.147 83.6578ZM261.107 70.6978H263.107C263.107 63.1342 261.363 57.0028 257.586 52.5963L256.067 53.8978L254.549 55.1994C257.492 58.6329 259.107 63.7015 259.107 70.6978H261.107ZM256.067 53.8978L257.599 52.6115C253.805 48.0956 248.57 45.8978 242.147 45.8978V47.8978V49.8978C247.565 49.8978 251.609 51.7001 254.536 55.1842L256.067 53.8978ZM242.147 47.8978V45.8978C238.597 45.8978 235.328 46.4051 232.362 47.4519L233.027 49.3379L233.693 51.2238C236.167 50.3506 238.978 49.8978 242.147 49.8978V47.8978ZM233.027 49.3379L232.395 47.4405C229.462 48.418 226.847 50.018 224.561 52.2162L225.947 53.6578L227.334 55.0995C229.207 53.2977 231.312 52.0177 233.66 51.2352L233.027 49.3379ZM225.947 53.6578L224.562 52.2151C222.362 54.327 220.548 56.9358 219.099 60.0038L220.907 60.8578L222.716 61.7119C223.987 59.0199 225.532 56.8287 227.332 55.1006L225.947 53.6578ZM220.907 60.8578L219.099 60.0038C217.652 63.0685 216.566 66.5978 215.822 70.5693L217.787 70.9378L219.753 71.3064C220.448 67.5979 221.443 64.4072 222.716 61.7119L220.907 60.8578ZM217.787 70.9378L215.816 70.6022C215.153 74.4972 214.827 78.8927 214.827 83.7779H216.827H218.827C218.827 79.063 219.142 74.8985 219.759 71.2734L217.787 70.9378ZM216.827 83.7779H214.827C214.827 91.3448 216.573 97.5047 220.336 101.984L221.867 100.698L223.399 99.4115C220.442 95.891 218.827 90.7709 218.827 83.7779H216.827ZM221.867 100.698L220.351 102.002C224.22 106.501 229.484 108.698 235.907 108.698V106.698V104.698C230.49 104.698 226.395 102.895 223.384 99.3938L221.867 100.698ZM282.041 115.938L280.052 115.728L280.051 115.739L282.041 115.938ZM290.201 38.5378L288.218 38.2735L288.215 38.3008L288.212 38.3282L290.201 38.5378ZM292.001 35.8978L291.053 34.1369L291.053 34.1369L292.001 35.8978ZM306.281 35.7778L305.443 37.5938L305.468 37.6053L305.493 37.6161L306.281 35.7778ZM308.801 38.1778L310.628 37.3656L310.61 37.3241L310.59 37.2834L308.801 38.1778ZM324.161 72.7379L322.333 73.5501L322.352 73.5916L322.372 73.6323L324.161 72.7379ZM325.961 76.8179L324.097 77.5427L324.097 77.5427L325.961 76.8179ZM327.041 80.2978L325.073 80.6556L326.205 86.8813L328.857 81.136L327.041 80.2978ZM328.841 76.8179L327.145 75.7579L327.12 75.797L327.098 75.8373L328.841 76.8179ZM331.001 73.3378L329.332 72.2351L329.315 72.2621L329.298 72.2897L331.001 73.3378ZM354.161 38.2979L352.497 37.1884L352.492 37.1951L354.161 38.2979ZM373.001 38.6578L374.99 38.8645L374.991 38.8569L373.001 38.6578ZM364.961 116.058L362.972 115.851L362.968 115.888L362.965 115.925L364.961 116.058ZM363.161 118.698L362.266 116.909L362.266 116.909L363.161 118.698ZM350.681 118.698L349.571 120.362L349.621 120.395L349.673 120.425L350.681 118.698ZM349.361 115.938L347.372 115.731L347.368 115.768L347.365 115.805L349.361 115.938ZM354.401 67.4579L352.424 67.1537L352.417 67.2022L352.412 67.251L354.401 67.4579ZM354.761 64.3378L356.755 64.4912L356.755 64.4912L354.761 64.3378ZM355.121 61.3379L357.094 61.6666L357.397 59.8454L355.606 59.3976L355.121 61.3379ZM354.641 61.2178L355.126 59.2776L353.791 58.9439L353.002 60.0709L354.641 61.2178ZM352.961 63.7378L351.274 62.6641L351.259 62.6863L351.246 62.7089L352.961 63.7378ZM351.401 66.1378L349.762 64.9909L349.744 65.0174L349.726 65.0445L351.401 66.1378ZM332.441 95.1779L330.766 94.0844L330.758 94.0963L332.441 95.1779ZM330.041 97.4579L329.213 95.6371L329.213 95.6371L330.041 97.4579ZM320.801 97.4579L319.83 99.2062L319.868 99.2273L319.906 99.2467L320.801 97.4579ZM319.001 95.1779L320.839 94.39L320.833 94.376L320.827 94.3621L319.001 95.1779ZM305.921 65.8978L304.064 66.6406L304.079 66.6774L304.095 66.7136L305.921 65.8978ZM304.841 63.4978L302.961 64.1813L303.001 64.2894L303.052 64.3923L304.841 63.4978ZM303.761 60.8578L305.582 60.0302L304.892 58.5135L303.276 58.9176L303.761 60.8578ZM303.281 60.9778L302.796 59.0376L301.397 59.3872L301.287 60.8245L303.281 60.9778ZM303.041 64.0979L305.035 64.2512L305.035 64.2512L303.041 64.0979ZM302.681 67.2178L300.704 66.9137L300.697 66.963L300.691 67.0126L302.681 67.2178ZM297.641 116.058L295.651 115.853L295.648 115.889L295.645 115.925L297.641 116.058ZM295.841 118.698L294.946 116.909L294.919 116.923L294.893 116.937L295.841 118.698ZM288.041 119.538V117.538C286.029 117.538 284.916 117.239 284.39 116.923C284.166 116.788 284.102 116.683 284.078 116.634C284.052 116.581 284 116.443 284.031 116.137L282.041 115.938L280.051 115.739C279.961 116.633 280.07 117.545 280.484 118.391C280.9 119.242 281.556 119.887 282.332 120.353C283.805 121.237 285.812 121.538 288.041 121.538V119.538ZM282.041 115.938L284.03 116.148L292.19 38.7475L290.201 38.5378L288.212 38.3282L280.052 115.728L282.041 115.938ZM290.201 38.5378L292.183 38.8022C292.261 38.2193 292.49 37.9058 292.949 37.6588L292.001 35.8978L291.053 34.1369C289.431 35.0099 288.461 36.4564 288.218 38.2735L290.201 38.5378ZM292.001 35.8978L292.949 37.6588C293.538 37.3415 294.765 37.0578 296.921 37.0578V35.0578V33.0578C294.597 33.0578 292.543 33.3342 291.053 34.1369L292.001 35.8978ZM296.921 35.0578V37.0578H302.441V35.0578V33.0578H296.921V35.0578ZM302.441 35.0578V37.0578C303.762 37.0578 304.737 37.2679 305.443 37.5938L306.281 35.7778L307.119 33.9619C305.745 33.3278 304.16 33.0578 302.441 33.0578V35.0578ZM306.281 35.7778L305.493 37.6161C306.165 37.9042 306.657 38.3626 307.012 39.0723L308.801 38.1778L310.59 37.2834C309.825 35.7531 308.636 34.6114 307.069 33.9396L306.281 35.7778ZM308.801 38.1778L306.973 38.9901L322.333 73.5501L324.161 72.7379L325.988 71.9256L310.628 37.3656L308.801 38.1778ZM324.161 72.7379L322.372 73.6323C322.982 74.8528 323.557 76.1559 324.097 77.5427L325.961 76.8179L327.825 76.093C327.244 74.5998 326.619 73.1829 325.95 71.8434L324.161 72.7379ZM325.961 76.8179L324.097 77.5427C324.639 78.9362 324.947 79.9594 325.073 80.6556L327.041 80.2978L329.009 79.9401C328.815 78.8763 328.403 77.5795 327.825 76.093L325.961 76.8179ZM327.041 80.2978L328.857 81.136C329.309 80.1556 329.883 79.0441 330.584 77.7984L328.841 76.8179L327.098 75.8373C326.358 77.1516 325.732 78.3601 325.225 79.4597L327.041 80.2978ZM328.841 76.8179L330.537 77.8778C331.339 76.5948 332.061 75.4308 332.704 74.386L331.001 73.3378L329.298 72.2897C328.66 73.3249 327.943 74.4809 327.145 75.7579L328.841 76.8179ZM331.001 73.3378L332.669 74.4406L355.829 39.4006L354.161 38.2979L352.492 37.1951L329.332 72.2351L331.001 73.3378ZM354.161 38.2979L355.825 39.4072C356.428 38.5033 357.122 37.9474 357.904 37.6348L357.161 35.7778L356.418 33.9209C354.8 34.5683 353.494 35.6924 352.497 37.1885L354.161 38.2979ZM357.161 35.7778L357.904 37.6348C358.819 37.2688 359.957 37.0578 361.361 37.0578V35.0578V33.0578C359.565 33.0578 357.903 33.3268 356.418 33.9209L357.161 35.7778ZM361.361 35.0578V37.0578H366.881V35.0578V33.0578H361.361V35.0578ZM366.881 35.0578V37.0578C368.935 37.0578 370.086 37.3574 370.637 37.6817C370.874 37.821 370.941 37.9299 370.964 37.9773C370.989 38.0272 371.041 38.1596 371.011 38.4588L373.001 38.6578L374.991 38.8569C375.081 37.9561 374.967 37.0385 374.542 36.1884C374.116 35.3358 373.448 34.6947 372.665 34.234C371.176 33.3583 369.146 33.0578 366.881 33.0578V35.0578ZM373.001 38.6578L371.012 38.4512L362.972 115.851L364.961 116.058L366.95 116.264L374.99 38.8645L373.001 38.6578ZM364.961 116.058L362.965 115.925C362.935 116.381 362.784 116.65 362.266 116.909L363.161 118.698L364.055 120.487C365.778 119.625 366.827 118.134 366.956 116.191L364.961 116.058ZM363.161 118.698L362.266 116.909C361.571 117.257 360.232 117.538 358.001 117.538V119.538V121.538C360.41 121.538 362.511 121.259 364.055 120.487L363.161 118.698ZM358.001 119.538V117.538H355.241V119.538V121.538H358.001V119.538ZM355.241 119.538V117.538C353.255 117.538 352.177 117.255 351.689 116.97L350.681 118.698L349.673 120.425C351.105 121.26 353.067 121.538 355.241 121.538V119.538ZM350.681 118.698L351.79 117.034C351.457 116.811 351.322 116.594 351.356 116.071L349.361 115.938L347.365 115.805C347.24 117.682 347.985 119.304 349.571 120.362L350.681 118.698ZM349.361 115.938L351.35 116.145L356.39 67.6647L354.401 67.4579L352.412 67.251L347.372 115.731L349.361 115.938ZM354.401 67.4579L356.378 67.762C356.545 66.6724 356.671 65.5821 356.755 64.4912L354.761 64.3378L352.767 64.1844C352.691 65.1736 352.576 66.1633 352.424 67.1537L354.401 67.4579ZM354.761 64.3378L356.755 64.4912C356.831 63.5058 356.944 62.5646 357.094 61.6666L355.121 61.3379L353.148 61.0091C352.978 62.0311 352.851 63.0899 352.767 64.1845L354.761 64.3378ZM355.121 61.3379L355.606 59.3976L355.126 59.2776L354.641 61.2178L354.156 63.1581L354.636 63.2781L355.121 61.3379ZM354.641 61.2178L353.002 60.0709C352.424 60.8965 351.848 61.761 351.274 62.6641L352.961 63.7378L354.648 64.8116C355.193 63.9547 355.737 63.1392 356.279 62.3648L354.641 61.2178ZM352.961 63.7378L351.246 62.7089C350.791 63.4669 350.297 64.2276 349.762 64.9909L351.401 66.1378L353.039 67.2848C353.625 66.4481 354.171 65.6088 354.676 64.7668L352.961 63.7378ZM351.401 66.1378L349.726 65.0445L330.766 94.0845L332.441 95.1779L334.116 96.2712L353.076 67.2312L351.401 66.1378ZM332.441 95.1779L330.758 94.0963C330.171 95.0108 329.634 95.4457 329.213 95.6371L330.041 97.4579L330.868 99.2786C332.207 98.67 333.271 97.5849 334.123 96.2594L332.441 95.1779ZM330.041 97.4579L329.213 95.6371C328.709 95.8661 327.799 96.0579 326.321 96.0579V98.0579V100.058C328.043 100.058 329.612 99.8496 330.868 99.2786L330.041 97.4579ZM326.321 98.0579V96.0579H324.281V98.0579V100.058H326.321V98.0579ZM324.281 98.0579V96.0579C322.882 96.0579 322.087 95.865 321.695 95.669L320.801 97.4579L319.906 99.2467C321.114 99.8507 322.639 100.058 324.281 100.058V98.0579ZM320.801 97.4579L321.772 95.7095C321.586 95.6063 321.225 95.29 320.839 94.39L319.001 95.1779L317.163 95.9657C317.737 97.3057 318.575 98.5094 319.83 99.2062L320.801 97.4579ZM319.001 95.1779L320.827 94.3621L307.747 65.0821L305.921 65.8978L304.095 66.7136L317.175 95.9936L319.001 95.1779ZM305.921 65.8978L307.778 65.1551C307.436 64.3017 307.054 63.4511 306.63 62.6034L304.841 63.4978L303.052 64.3923C303.428 65.1446 303.765 65.894 304.064 66.6406L305.921 65.8978ZM304.841 63.4978L306.72 62.8144C306.382 61.884 306.002 60.956 305.582 60.0302L303.761 60.8578L301.94 61.6855C302.319 62.5197 302.66 63.3517 302.961 64.1813L304.841 63.4978ZM303.761 60.8578L303.276 58.9176L302.796 59.0376L303.281 60.9778L303.766 62.9181L304.246 62.7981L303.761 60.8578ZM303.281 60.9778L301.287 60.8245C301.287 60.8265 301.286 60.8285 301.286 60.8305C301.286 60.8326 301.286 60.8346 301.286 60.8366C301.286 60.8387 301.285 60.8407 301.285 60.8427C301.285 60.8448 301.285 60.8468 301.285 60.8488C301.285 60.8509 301.285 60.8529 301.284 60.8549C301.284 60.857 301.284 60.859 301.284 60.861C301.284 60.863 301.284 60.8651 301.283 60.8671C301.283 60.8691 301.283 60.8712 301.283 60.8732C301.283 60.8752 301.283 60.8773 301.283 60.8793C301.282 60.8813 301.282 60.8834 301.282 60.8854C301.282 60.8874 301.282 60.8895 301.282 60.8915C301.281 60.8935 301.281 60.8955 301.281 60.8976C301.281 60.8996 301.281 60.9016 301.281 60.9037C301.28 60.9057 301.28 60.9077 301.28 60.9098C301.28 60.9118 301.28 60.9138 301.28 60.9159C301.28 60.9179 301.279 60.9199 301.279 60.922C301.279 60.924 301.279 60.926 301.279 60.928C301.279 60.9301 301.278 60.9321 301.278 60.9341C301.278 60.9362 301.278 60.9382 301.278 60.9402C301.278 60.9423 301.278 60.9443 301.277 60.9463C301.277 60.9484 301.277 60.9504 301.277 60.9524C301.277 60.9545 301.277 60.9565 301.276 60.9585C301.276 60.9605 301.276 60.9626 301.276 60.9646C301.276 60.9666 301.276 60.9687 301.275 60.9707C301.275 60.9727 301.275 60.9748 301.275 60.9768C301.275 60.9788 301.275 60.9809 301.275 60.9829C301.274 60.9849 301.274 60.987 301.274 60.989C301.274 60.991 301.274 60.993 301.274 60.9951C301.273 60.9971 301.273 60.9991 301.273 61.0012C301.273 61.0032 301.273 61.0052 301.273 61.0073C301.273 61.0093 301.272 61.0113 301.272 61.0134C301.272 61.0154 301.272 61.0174 301.272 61.0195C301.272 61.0215 301.271 61.0235 301.271 61.0255C301.271 61.0276 301.271 61.0296 301.271 61.0316C301.271 61.0337 301.27 61.0357 301.27 61.0377C301.27 61.0398 301.27 61.0418 301.27 61.0438C301.27 61.0459 301.27 61.0479 301.269 61.0499C301.269 61.052 301.269 61.054 301.269 61.056C301.269 61.058 301.269 61.0601 301.268 61.0621C301.268 61.0641 301.268 61.0662 301.268 61.0682C301.268 61.0702 301.268 61.0723 301.268 61.0743C301.267 61.0763 301.267 61.0784 301.267 61.0804C301.267 61.0824 301.267 61.0845 301.267 61.0865C301.266 61.0885 301.266 61.0905 301.266 61.0926C301.266 61.0946 301.266 61.0966 301.266 61.0987C301.265 61.1007 301.265 61.1027 301.265 61.1048C301.265 61.1068 301.265 61.1088 301.265 61.1109C301.265 61.1129 301.264 61.1149 301.264 61.117C301.264 61.119 301.264 61.121 301.264 61.123C301.264 61.1251 301.263 61.1271 301.263 61.1291C301.263 61.1312 301.263 61.1332 301.263 61.1352C301.263 61.1373 301.263 61.1393 301.262 61.1413C301.262 61.1434 301.262 61.1454 301.262 61.1474C301.262 61.1495 301.262 61.1515 301.261 61.1535C301.261 61.1555 301.261 61.1576 301.261 61.1596C301.261 61.1616 301.261 61.1637 301.26 61.1657C301.26 61.1677 301.26 61.1698 301.26 61.1718C301.26 61.1738 301.26 61.1759 301.26 61.1779C301.259 61.1799 301.259 61.182 301.259 61.184C301.259 61.186 301.259 61.188 301.259 61.1901C301.258 61.1921 301.258 61.1941 301.258 61.1962C301.258 61.1982 301.258 61.2002 301.258 61.2023C301.258 61.2043 301.257 61.2063 301.257 61.2084C301.257 61.2104 301.257 61.2124 301.257 61.2145C301.257 61.2165 301.256 61.2185 301.256 61.2205C301.256 61.2226 301.256 61.2246 301.256 61.2266C301.256 61.2287 301.255 61.2307 301.255 61.2327C301.255 61.2348 301.255 61.2368 301.255 61.2388C301.255 61.2409 301.255 61.2429 301.254 61.2449C301.254 61.247 301.254 61.249 301.254 61.251C301.254 61.253 301.254 61.2551 301.253 61.2571C301.253 61.2591 301.253 61.2612 301.253 61.2632C301.253 61.2652 301.253 61.2673 301.253 61.2693C301.252 61.2713 301.252 61.2734 301.252 61.2754C301.252 61.2774 301.252 61.2795 301.252 61.2815C301.251 61.2835 301.251 61.2855 301.251 61.2876C301.251 61.2896 301.251 61.2916 301.251 61.2937C301.25 61.2957 301.25 61.2977 301.25 61.2998C301.25 61.3018 301.25 61.3038 301.25 61.3059C301.25 61.3079 301.249 61.3099 301.249 61.312C301.249 61.314 301.249 61.316 301.249 61.318C301.249 61.3201 301.248 61.3221 301.248 61.3241C301.248 61.3262 301.248 61.3282 301.248 61.3302C301.248 61.3323 301.248 61.3343 301.247 61.3363C301.247 61.3384 301.247 61.3404 301.247 61.3424C301.247 61.3445 301.247 61.3465 301.246 61.3485C301.246 61.3505 301.246 61.3526 301.246 61.3546C301.246 61.3566 301.246 61.3587 301.245 61.3607C301.245 61.3627 301.245 61.3648 301.245 61.3668C301.245 61.3688 301.245 61.3709 301.245 61.3729C301.244 61.3749 301.244 61.377 301.244 61.379C301.244 61.381 301.244 61.383 301.244 61.3851C301.243 61.3871 301.243 61.3891 301.243 61.3912C301.243 61.3932 301.243 61.3952 301.243 61.3973C301.243 61.3993 301.242 61.4013 301.242 61.4034C301.242 61.4054 301.242 61.4074 301.242 61.4095C301.242 61.4115 301.241 61.4135 301.241 61.4155C301.241 61.4176 301.241 61.4196 301.241 61.4216C301.241 61.4237 301.24 61.4257 301.24 61.4277C301.24 61.4298 301.24 61.4318 301.24 61.4338C301.24 61.4359 301.24 61.4379 301.239 61.4399C301.239 61.442 301.239 61.444 301.239 61.446C301.239 61.448 301.239 61.4501 301.238 61.4521C301.238 61.4541 301.238 61.4562 301.238 61.4582C301.238 61.4602 301.238 61.4623 301.238 61.4643C301.237 61.4663 301.237 61.4684 301.237 61.4704C301.237 61.4724 301.237 61.4745 301.237 61.4765C301.236 61.4785 301.236 61.4805 301.236 61.4826C301.236 61.4846 301.236 61.4866 301.236 61.4887C301.235 61.4907 301.235 61.4927 301.235 61.4948C301.235 61.4968 301.235 61.4988 301.235 61.5009C301.235 61.5029 301.234 61.5049 301.234 61.507C301.234 61.509 301.234 61.511 301.234 61.513C301.234 61.5151 301.233 61.5171 301.233 61.5191C301.233 61.5212 301.233 61.5232 301.233 61.5252C301.233 61.5273 301.233 61.5293 301.232 61.5313C301.232 61.5334 301.232 61.5354 301.232 61.5374C301.232 61.5395 301.232 61.5415 301.231 61.5435C301.231 61.5455 301.231 61.5476 301.231 61.5496C301.231 61.5516 301.231 61.5537 301.23 61.5557C301.23 61.5577 301.23 61.5598 301.23 61.5618C301.23 61.5638 301.23 61.5659 301.23 61.5679C301.229 61.5699 301.229 61.572 301.229 61.574C301.229 61.576 301.229 61.578 301.229 61.5801C301.228 61.5821 301.228 61.5841 301.228 61.5862C301.228 61.5882 301.228 61.5902 301.228 61.5923C301.228 61.5943 301.227 61.5963 301.227 61.5984C301.227 61.6004 301.227 61.6024 301.227 61.6045C301.227 61.6065 301.226 61.6085 301.226 61.6105C301.226 61.6126 301.226 61.6146 301.226 61.6166C301.226 61.6187 301.225 61.6207 301.225 61.6227C301.225 61.6248 301.225 61.6268 301.225 61.6288C301.225 61.6309 301.225 61.6329 301.224 61.6349C301.224 61.637 301.224 61.639 301.224 61.641C301.224 61.643 301.224 61.6451 301.223 61.6471C301.223 61.6491 301.223 61.6512 301.223 61.6532C301.223 61.6552 301.223 61.6573 301.223 61.6593C301.222 61.6613 301.222 61.6634 301.222 61.6654C301.222 61.6674 301.222 61.6695 301.222 61.6715C301.221 61.6735 301.221 61.6755 301.221 61.6776C301.221 61.6796 301.221 61.6816 301.221 61.6837C301.22 61.6857 301.22 61.6877 301.22 61.6898C301.22 61.6918 301.22 61.6938 301.22 61.6959C301.22 61.6979 301.219 61.6999 301.219 61.702C301.219 61.704 301.219 61.706 301.219 61.708C301.219 61.7101 301.218 61.7121 301.218 61.7141C301.218 61.7162 301.218 61.7182 301.218 61.7202C301.218 61.7223 301.218 61.7243 301.217 61.7263C301.217 61.7284 301.217 61.7304 301.217 61.7324C301.217 61.7345 301.217 61.7365 301.216 61.7385C301.216 61.7405 301.216 61.7426 301.216 61.7446C301.216 61.7466 301.216 61.7487 301.215 61.7507C301.215 61.7527 301.215 61.7548 301.215 61.7568C301.215 61.7588 301.215 61.7609 301.215 61.7629C301.214 61.7649 301.214 61.767 301.214 61.769C301.214 61.771 301.214 61.773 301.214 61.7751C301.213 61.7771 301.213 61.7791 301.213 61.7812C301.213 61.7832 301.213 61.7852 301.213 61.7873C301.213 61.7893 301.212 61.7913 301.212 61.7934C301.212 61.7954 301.212 61.7974 301.212 61.7995C301.212 61.8015 301.211 61.8035 301.211 61.8055C301.211 61.8076 301.211 61.8096 301.211 61.8116C301.211 61.8137 301.21 61.8157 301.21 61.8177C301.21 61.8198 301.21 61.8218 301.21 61.8238C301.21 61.8259 301.21 61.8279 301.209 61.8299C301.209 61.832 301.209 61.834 301.209 61.836C301.209 61.838 301.209 61.8401 301.208 61.8421C301.208 61.8441 301.208 61.8462 301.208 61.8482C301.208 61.8502 301.208 61.8523 301.208 61.8543C301.207 61.8563 301.207 61.8584 301.207 61.8604C301.207 61.8624 301.207 61.8645 301.207 61.8665C301.206 61.8685 301.206 61.8705 301.206 61.8726C301.206 61.8746 301.206 61.8766 301.206 61.8787C301.205 61.8807 301.205 61.8827 301.205 61.8848C301.205 61.8868 301.205 61.8888 301.205 61.8909C301.205 61.8929 301.204 61.8949 301.204 61.897C301.204 61.899 301.204 61.901 301.204 61.903C301.204 61.9051 301.203 61.9071 301.203 61.9091C301.203 61.9112 301.203 61.9132 301.203 61.9152C301.203 61.9173 301.203 61.9193 301.202 61.9213C301.202 61.9234 301.202 61.9254 301.202 61.9274C301.202 61.9295 301.202 61.9315 301.201 61.9335C301.201 61.9355 301.201 61.9376 301.201 61.9396C301.201 61.9416 301.201 61.9437 301.2 61.9457C301.2 61.9477 301.2 61.9498 301.2 61.9518C301.2 61.9538 301.2 61.9559 301.2 61.9579C301.199 61.9599 301.199 61.962 301.199 61.964C301.199 61.966 301.199 61.968 301.199 61.9701C301.198 61.9721 301.198 61.9741 301.198 61.9762C301.198 61.9782 301.198 61.9802 301.198 61.9823C301.198 61.9843 301.197 61.9863 301.197 61.9884C301.197 61.9904 301.197 61.9924 301.197 61.9945C301.197 61.9965 301.196 61.9985 301.196 62.0005C301.196 62.0026 301.196 62.0046 301.196 62.0066C301.196 62.0087 301.195 62.0107 301.195 62.0127C301.195 62.0148 301.195 62.0168 301.195 62.0188C301.195 62.0209 301.195 62.0229 301.194 62.0249C301.194 62.027 301.194 62.029 301.194 62.031C301.194 62.033 301.194 62.0351 301.193 62.0371C301.193 62.0391 301.193 62.0412 301.193 62.0432C301.193 62.0452 301.193 62.0473 301.193 62.0493C301.192 62.0513 301.192 62.0534 301.192 62.0554C301.192 62.0574 301.192 62.0595 301.192 62.0615C301.191 62.0635 301.191 62.0655 301.191 62.0676C301.191 62.0696 301.191 62.0716 301.191 62.0737C301.19 62.0757 301.19 62.0777 301.19 62.0798C301.19 62.0818 301.19 62.0838 301.19 62.0859C301.19 62.0879 301.189 62.0899 301.189 62.092C301.189 62.094 301.189 62.096 301.189 62.098C301.189 62.1001 301.188 62.1021 301.188 62.1041C301.188 62.1062 301.188 62.1082 301.188 62.1102C301.188 62.1123 301.188 62.1143 301.187 62.1163C301.187 62.1184 301.187 62.1204 301.187 62.1224C301.187 62.1245 301.187 62.1265 301.186 62.1285C301.186 62.1305 301.186 62.1326 301.186 62.1346C301.186 62.1366 301.186 62.1387 301.185 62.1407C301.185 62.1427 301.185 62.1448 301.185 62.1468C301.185 62.1488 301.185 62.1509 301.185 62.1529C301.184 62.1549 301.184 62.157 301.184 62.159C301.184 62.161 301.184 62.163 301.184 62.1651C301.183 62.1671 301.183 62.1691 301.183 62.1712C301.183 62.1732 301.183 62.1752 301.183 62.1773C301.183 62.1793 301.182 62.1813 301.182 62.1834C301.182 62.1854 301.182 62.1874 301.182 62.1895C301.182 62.1915 301.181 62.1935 301.181 62.1955C301.181 62.1976 301.181 62.1996 301.181 62.2016C301.181 62.2037 301.18 62.2057 301.18 62.2077C301.18 62.2098 301.18 62.2118 301.18 62.2138C301.18 62.2159 301.18 62.2179 301.179 62.2199C301.179 62.222 301.179 62.224 301.179 62.226C301.179 62.228 301.179 62.2301 301.178 62.2321C301.178 62.2341 301.178 62.2362 301.178 62.2382C301.178 62.2402 301.178 62.2423 301.178 62.2443C301.177 62.2463 301.177 62.2484 301.177 62.2504C301.177 62.2524 301.177 62.2545 301.177 62.2565C301.176 62.2585 301.176 62.2605 301.176 62.2626C301.176 62.2646 301.176 62.2666 301.176 62.2687C301.175 62.2707 301.175 62.2727 301.175 62.2748C301.175 62.2768 301.175 62.2788 301.175 62.2809C301.175 62.2829 301.174 62.2849 301.174 62.287C301.174 62.289 301.174 62.291 301.174 62.293C301.174 62.2951 301.173 62.2971 301.173 62.2991C301.173 62.3012 301.173 62.3032 301.173 62.3052C301.173 62.3073 301.173 62.3093 301.172 62.3113C301.172 62.3134 301.172 62.3154 301.172 62.3174C301.172 62.3195 301.172 62.3215 301.171 62.3235C301.171 62.3255 301.171 62.3276 301.171 62.3296C301.171 62.3316 301.171 62.3337 301.17 62.3357C301.17 62.3377 301.17 62.3398 301.17 62.3418C301.17 62.3438 301.17 62.3459 301.17 62.3479C301.169 62.3499 301.169 62.352 301.169 62.354C301.169 62.356 301.169 62.358 301.169 62.3601C301.168 62.3621 301.168 62.3641 301.168 62.3662C301.168 62.3682 301.168 62.3702 301.168 62.3723C301.168 62.3743 301.167 62.3763 301.167 62.3784C301.167 62.3804 301.167 62.3824 301.167 62.3845C301.167 62.3865 301.166 62.3885 301.166 62.3905C301.166 62.3926 301.166 62.3946 301.166 62.3966C301.166 62.3987 301.165 62.4007 301.165 62.4027C301.165 62.4048 301.165 62.4068 301.165 62.4088C301.165 62.4109 301.165 62.4129 301.164 62.4149C301.164 62.417 301.164 62.419 301.164 62.421C301.164 62.423 301.164 62.4251 301.163 62.4271C301.163 62.4291 301.163 62.4312 301.163 62.4332C301.163 62.4352 301.163 62.4373 301.163 62.4393C301.162 62.4413 301.162 62.4434 301.162 62.4454C301.162 62.4474 301.162 62.4495 301.162 62.4515C301.161 62.4535 301.161 62.4555 301.161 62.4576C301.161 62.4596 301.161 62.4616 301.161 62.4637C301.16 62.4657 301.16 62.4677 301.16 62.4698C301.16 62.4718 301.16 62.4738 301.16 62.4759C301.16 62.4779 301.159 62.4799 301.159 62.482C301.159 62.484 301.159 62.486 301.159 62.488C301.159 62.4901 301.158 62.4921 301.158 62.4941C301.158 62.4962 301.158 62.4982 301.158 62.5002C301.158 62.5023 301.158 62.5043 301.157 62.5063C301.157 62.5084 301.157 62.5104 301.157 62.5124C301.157 62.5145 301.157 62.5165 301.156 62.5185C301.156 62.5205 301.156 62.5226 301.156 62.5246C301.156 62.5266 301.156 62.5287 301.155 62.5307C301.155 62.5327 301.155 62.5348 301.155 62.5368C301.155 62.5388 301.155 62.5409 301.155 62.5429C301.154 62.5449 301.154 62.547 301.154 62.549C301.154 62.551 301.154 62.553 301.154 62.5551C301.153 62.5571 301.153 62.5591 301.153 62.5612C301.153 62.5632 301.153 62.5652 301.153 62.5673C301.153 62.5693 301.152 62.5713 301.152 62.5734C301.152 62.5754 301.152 62.5774 301.152 62.5795C301.152 62.5815 301.151 62.5835 301.151 62.5855C301.151 62.5876 301.151 62.5896 301.151 62.5916C301.151 62.5937 301.15 62.5957 301.15 62.5977C301.15 62.5998 301.15 62.6018 301.15 62.6038C301.15 62.6059 301.15 62.6079 301.149 62.6099C301.149 62.612 301.149 62.614 301.149 62.616C301.149 62.618 301.149 62.6201 301.148 62.6221C301.148 62.6241 301.148 62.6262 301.148 62.6282C301.148 62.6302 301.148 62.6323 301.148 62.6343C301.147 62.6363 301.147 62.6384 301.147 62.6404C301.147 62.6424 301.147 62.6445 301.147 62.6465C301.146 62.6485 301.146 62.6505 301.146 62.6526C301.146 62.6546 301.146 62.6566 301.146 62.6587C301.145 62.6607 301.145 62.6627 301.145 62.6648C301.145 62.6668 301.145 62.6688 301.145 62.6709C301.145 62.6729 301.144 62.6749 301.144 62.677C301.144 62.679 301.144 62.681 301.144 62.6831C301.144 62.6851 301.143 62.6871 301.143 62.6891C301.143 62.6912 301.143 62.6932 301.143 62.6952C301.143 62.6973 301.143 62.6993 301.142 62.7013C301.142 62.7034 301.142 62.7054 301.142 62.7074C301.142 62.7095 301.142 62.7115 301.141 62.7135C301.141 62.7156 301.141 62.7176 301.141 62.7196C301.141 62.7216 301.141 62.7237 301.14 62.7257C301.14 62.7277 301.14 62.7298 301.14 62.7318C301.14 62.7338 301.14 62.7359 301.14 62.7379C301.139 62.7399 301.139 62.742 301.139 62.744C301.139 62.746 301.139 62.7481 301.139 62.7501C301.138 62.7521 301.138 62.7541 301.138 62.7562C301.138 62.7582 301.138 62.7602 301.138 62.7623C301.138 62.7643 301.137 62.7663 301.137 62.7684C301.137 62.7704 301.137 62.7724 301.137 62.7745C301.137 62.7765 301.136 62.7785 301.136 62.7806C301.136 62.7826 301.136 62.7846 301.136 62.7866C301.136 62.7887 301.135 62.7907 301.135 62.7927C301.135 62.7948 301.135 62.7968 301.135 62.7988C301.135 62.8009 301.135 62.8029 301.134 62.8049C301.134 62.807 301.134 62.809 301.134 62.811C301.134 62.8131 301.134 62.8151 301.133 62.8171C301.133 62.8191 301.133 62.8212 301.133 62.8232C301.133 62.8252 301.133 62.8273 301.133 62.8293C301.132 62.8313 301.132 62.8334 301.132 62.8354C301.132 62.8374 301.132 62.8395 301.132 62.8415C301.131 62.8435 301.131 62.8456 301.131 62.8476C301.131 62.8496 301.131 62.8516 301.131 62.8537C301.13 62.8557 301.13 62.8577 301.13 62.8598C301.13 62.8618 301.13 62.8638 301.13 62.8659C301.13 62.8679 301.129 62.8699 301.129 62.872C301.129 62.874 301.129 62.876 301.129 62.8781C301.129 62.8801 301.128 62.8821 301.128 62.8841C301.128 62.8862 301.128 62.8882 301.128 62.8902C301.128 62.8923 301.128 62.8943 301.127 62.8963C301.127 62.8984 301.127 62.9004 301.127 62.9024C301.127 62.9045 301.127 62.9065 301.126 62.9085C301.126 62.9106 301.126 62.9126 301.126 62.9146C301.126 62.9166 301.126 62.9187 301.125 62.9207C301.125 62.9227 301.125 62.9248 301.125 62.9268C301.125 62.9288 301.125 62.9309 301.125 62.9329C301.124 62.9349 301.124 62.937 301.124 62.939C301.124 62.941 301.124 62.9431 301.124 62.9451C301.123 62.9471 301.123 62.9491 301.123 62.9512C301.123 62.9532 301.123 62.9552 301.123 62.9573C301.123 62.9593 301.122 62.9613 301.122 62.9634C301.122 62.9654 301.122 62.9674 301.122 62.9695C301.122 62.9715 301.121 62.9735 301.121 62.9756C301.121 62.9776 301.121 62.9796 301.121 62.9816C301.121 62.9837 301.12 62.9857 301.12 62.9877C301.12 62.9898 301.12 62.9918 301.12 62.9938C301.12 62.9959 301.12 62.9979 301.119 62.9999C301.119 63.002 301.119 63.004 301.119 63.006C301.119 63.0081 301.119 63.0101 301.118 63.0121C301.118 63.0141 301.118 63.0162 301.118 63.0182C301.118 63.0202 301.118 63.0223 301.118 63.0243C301.117 63.0263 301.117 63.0284 301.117 63.0304C301.117 63.0324 301.117 63.0345 301.117 63.0365C301.116 63.0385 301.116 63.0406 301.116 63.0426C301.116 63.0446 301.116 63.0466 301.116 63.0487C301.115 63.0507 301.115 63.0527 301.115 63.0548C301.115 63.0568 301.115 63.0588 301.115 63.0609C301.115 63.0629 301.114 63.0649 301.114 63.067C301.114 63.069 301.114 63.071 301.114 63.0731C301.114 63.0751 301.113 63.0771 301.113 63.0791C301.113 63.0812 301.113 63.0832 301.113 63.0852C301.113 63.0873 301.113 63.0893 301.112 63.0913C301.112 63.0934 301.112 63.0954 301.112 63.0974C301.112 63.0995 301.112 63.1015 301.111 63.1035C301.111 63.1056 301.111 63.1076 301.111 63.1096C301.111 63.1116 301.111 63.1137 301.11 63.1157C301.11 63.1177 301.11 63.1198 301.11 63.1218C301.11 63.1238 301.11 63.1259 301.11 63.1279C301.109 63.1299 301.109 63.132 301.109 63.134C301.109 63.136 301.109 63.1381 301.109 63.1401C301.108 63.1421 301.108 63.1441 301.108 63.1462C301.108 63.1482 301.108 63.1502 301.108 63.1523C301.108 63.1543 301.107 63.1563 301.107 63.1584C301.107 63.1604 301.107 63.1624 301.107 63.1645C301.107 63.1665 301.106 63.1685 301.106 63.1706C301.106 63.1726 301.106 63.1746 301.106 63.1766C301.106 63.1787 301.105 63.1807 301.105 63.1827C301.105 63.1848 301.105 63.1868 301.105 63.1888C301.105 63.1909 301.105 63.1929 301.104 63.1949C301.104 63.197 301.104 63.199 301.104 63.201C301.104 63.2031 301.104 63.2051 301.103 63.2071C301.103 63.2091 301.103 63.2112 301.103 63.2132C301.103 63.2152 301.103 63.2173 301.103 63.2193C301.102 63.2213 301.102 63.2234 301.102 63.2254C301.102 63.2274 301.102 63.2295 301.102 63.2315C301.101 63.2335 301.101 63.2356 301.101 63.2376C301.101 63.2396 301.101 63.2416 301.101 63.2437C301.1 63.2457 301.1 63.2477 301.1 63.2498C301.1 63.2518 301.1 63.2538 301.1 63.2559C301.1 63.2579 301.099 63.2599 301.099 63.262C301.099 63.264 301.099 63.266 301.099 63.2681C301.099 63.2701 301.098 63.2721 301.098 63.2741C301.098 63.2762 301.098 63.2782 301.098 63.2802C301.098 63.2823 301.098 63.2843 301.097 63.2863C301.097 63.2884 301.097 63.2904 301.097 63.2924C301.097 63.2945 301.097 63.2965 301.096 63.2985C301.096 63.3006 301.096 63.3026 301.096 63.3046C301.096 63.3066 301.096 63.3087 301.095 63.3107C301.095 63.3127 301.095 63.3148 301.095 63.3168C301.095 63.3188 301.095 63.3209 301.095 63.3229C301.094 63.3249 301.094 63.327 301.094 63.329C301.094 63.331 301.094 63.3331 301.094 63.3351C301.093 63.3371 301.093 63.3391 301.093 63.3412C301.093 63.3432 301.093 63.3452 301.093 63.3473C301.093 63.3493 301.092 63.3513 301.092 63.3534C301.092 63.3554 301.092 63.3574 301.092 63.3595C301.092 63.3615 301.091 63.3635 301.091 63.3656C301.091 63.3676 301.091 63.3696 301.091 63.3716C301.091 63.3737 301.09 63.3757 301.09 63.3777C301.09 63.3798 301.09 63.3818 301.09 63.3838C301.09 63.3859 301.09 63.3879 301.089 63.3899C301.089 63.392 301.089 63.394 301.089 63.396C301.089 63.3981 301.089 63.4001 301.088 63.4021C301.088 63.4041 301.088 63.4062 301.088 63.4082C301.088 63.4102 301.088 63.4123 301.088 63.4143C301.087 63.4163 301.087 63.4184 301.087 63.4204C301.087 63.4224 301.087 63.4245 301.087 63.4265C301.086 63.4285 301.086 63.4306 301.086 63.4326C301.086 63.4346 301.086 63.4366 301.086 63.4387C301.085 63.4407 301.085 63.4427 301.085 63.4448C301.085 63.4468 301.085 63.4488 301.085 63.4509C301.085 63.4529 301.084 63.4549 301.084 63.457C301.084 63.459 301.084 63.461 301.084 63.4631C301.084 63.4651 301.083 63.4671 301.083 63.4691C301.083 63.4712 301.083 63.4732 301.083 63.4752C301.083 63.4773 301.083 63.4793 301.082 63.4813C301.082 63.4834 301.082 63.4854 301.082 63.4874C301.082 63.4895 301.082 63.4915 301.081 63.4935C301.081 63.4956 301.081 63.4976 301.081 63.4996C301.081 63.5016 301.081 63.5037 301.08 63.5057C301.08 63.5077 301.08 63.5098 301.08 63.5118C301.08 63.5138 301.08 63.5159 301.08 63.5179C301.079 63.5199 301.079 63.522 301.079 63.524C301.079 63.526 301.079 63.5281 301.079 63.5301C301.078 63.5321 301.078 63.5341 301.078 63.5362C301.078 63.5382 301.078 63.5402 301.078 63.5423C301.078 63.5443 301.077 63.5463 301.077 63.5484C301.077 63.5504 301.077 63.5524 301.077 63.5545C301.077 63.5565 301.076 63.5585 301.076 63.5606C301.076 63.5626 301.076 63.5646 301.076 63.5666C301.076 63.5687 301.075 63.5707 301.075 63.5727C301.075 63.5748 301.075 63.5768 301.075 63.5788C301.075 63.5809 301.075 63.5829 301.074 63.5849C301.074 63.587 301.074 63.589 301.074 63.591C301.074 63.5931 301.074 63.5951 301.073 63.5971C301.073 63.5991 301.073 63.6012 301.073 63.6032C301.073 63.6052 301.073 63.6073 301.073 63.6093C301.072 63.6113 301.072 63.6134 301.072 63.6154C301.072 63.6174 301.072 63.6195 301.072 63.6215C301.071 63.6235 301.071 63.6256 301.071 63.6276C301.071 63.6296 301.071 63.6316 301.071 63.6337C301.07 63.6357 301.07 63.6377 301.07 63.6398C301.07 63.6418 301.07 63.6438 301.07 63.6459C301.07 63.6479 301.069 63.6499 301.069 63.652C301.069 63.654 301.069 63.656 301.069 63.6581C301.069 63.6601 301.068 63.6621 301.068 63.6641C301.068 63.6662 301.068 63.6682 301.068 63.6702C301.068 63.6723 301.068 63.6743 301.067 63.6763C301.067 63.6784 301.067 63.6804 301.067 63.6824C301.067 63.6845 301.067 63.6865 301.066 63.6885C301.066 63.6906 301.066 63.6926 301.066 63.6946C301.066 63.6966 301.066 63.6987 301.065 63.7007C301.065 63.7027 301.065 63.7048 301.065 63.7068C301.065 63.7088 301.065 63.7109 301.065 63.7129C301.064 63.7149 301.064 63.717 301.064 63.719C301.064 63.721 301.064 63.7231 301.064 63.7251C301.063 63.7271 301.063 63.7291 301.063 63.7312C301.063 63.7332 301.063 63.7352 301.063 63.7373C301.063 63.7393 301.062 63.7413 301.062 63.7434C301.062 63.7454 301.062 63.7474 301.062 63.7495C301.062 63.7515 301.061 63.7535 301.061 63.7556C301.061 63.7576 301.061 63.7596 301.061 63.7616C301.061 63.7637 301.06 63.7657 301.06 63.7677C301.06 63.7698 301.06 63.7718 301.06 63.7738C301.06 63.7759 301.06 63.7779 301.059 63.7799C301.059 63.782 301.059 63.784 301.059 63.786C301.059 63.7881 301.059 63.7901 301.058 63.7921C301.058 63.7941 301.058 63.7962 301.058 63.7982C301.058 63.8002 301.058 63.8023 301.058 63.8043C301.057 63.8063 301.057 63.8084 301.057 63.8104C301.057 63.8124 301.057 63.8145 301.057 63.8165C301.056 63.8185 301.056 63.8206 301.056 63.8226C301.056 63.8246 301.056 63.8266 301.056 63.8287C301.055 63.8307 301.055 63.8327 301.055 63.8348C301.055 63.8368 301.055 63.8388 301.055 63.8409C301.055 63.8429 301.054 63.8449 301.054 63.847C301.054 63.849 301.054 63.851 301.054 63.8531C301.054 63.8551 301.053 63.8571 301.053 63.8591C301.053 63.8612 301.053 63.8632 301.053 63.8652C301.053 63.8673 301.053 63.8693 301.052 63.8713C301.052 63.8734 301.052 63.8754 301.052 63.8774C301.052 63.8795 301.052 63.8815 301.051 63.8835C301.051 63.8856 301.051 63.8876 301.051 63.8896C301.051 63.8916 301.051 63.8937 301.05 63.8957C301.05 63.8977 301.05 63.8998 301.05 63.9018C301.05 63.9038 301.05 63.9059 301.05 63.9079C301.049 63.9099 301.049 63.912 301.049 63.914C301.049 63.916 301.049 63.9181 301.049 63.9201C301.048 63.9221 301.048 63.9241 301.048 63.9262C301.048 63.9282 301.048 63.9302 301.048 63.9323C301.048 63.9343 301.047 63.9363 301.047 63.9384C301.047 63.9404 301.047 63.9424 301.047 63.9445L303.041 64.0979L305.035 64.2512C305.035 64.2492 305.035 64.2472 305.035 64.2451C305.036 64.2431 305.036 64.2411 305.036 64.2391C305.036 64.237 305.036 64.235 305.036 64.233C305.037 64.2309 305.037 64.2289 305.037 64.2269C305.037 64.2248 305.037 64.2228 305.037 64.2208C305.037 64.2187 305.038 64.2167 305.038 64.2147C305.038 64.2126 305.038 64.2106 305.038 64.2086C305.038 64.2066 305.039 64.2045 305.039 64.2025C305.039 64.2005 305.039 64.1984 305.039 64.1964C305.039 64.1944 305.039 64.1923 305.04 64.1903C305.04 64.1883 305.04 64.1862 305.04 64.1842C305.04 64.1822 305.04 64.1801 305.041 64.1781C305.041 64.1761 305.041 64.1741 305.041 64.172C305.041 64.17 305.041 64.168 305.042 64.1659C305.042 64.1639 305.042 64.1619 305.042 64.1598C305.042 64.1578 305.042 64.1558 305.042 64.1537C305.043 64.1517 305.043 64.1497 305.043 64.1476C305.043 64.1456 305.043 64.1436 305.043 64.1416C305.044 64.1395 305.044 64.1375 305.044 64.1355C305.044 64.1334 305.044 64.1314 305.044 64.1294C305.044 64.1273 305.045 64.1253 305.045 64.1233C305.045 64.1212 305.045 64.1192 305.045 64.1172C305.045 64.1151 305.046 64.1131 305.046 64.1111C305.046 64.1091 305.046 64.107 305.046 64.105C305.046 64.103 305.047 64.1009 305.047 64.0989C305.047 64.0969 305.047 64.0948 305.047 64.0928C305.047 64.0908 305.047 64.0887 305.048 64.0867C305.048 64.0847 305.048 64.0826 305.048 64.0806C305.048 64.0786 305.048 64.0766 305.049 64.0745C305.049 64.0725 305.049 64.0705 305.049 64.0684C305.049 64.0664 305.049 64.0644 305.049 64.0623C305.05 64.0603 305.05 64.0583 305.05 64.0562C305.05 64.0542 305.05 64.0522 305.05 64.0501C305.051 64.0481 305.051 64.0461 305.051 64.0441C305.051 64.042 305.051 64.04 305.051 64.038C305.052 64.0359 305.052 64.0339 305.052 64.0319C305.052 64.0298 305.052 64.0278 305.052 64.0258C305.052 64.0237 305.053 64.0217 305.053 64.0197C305.053 64.0176 305.053 64.0156 305.053 64.0136C305.053 64.0116 305.054 64.0095 305.054 64.0075C305.054 64.0055 305.054 64.0034 305.054 64.0014C305.054 63.9994 305.054 63.9973 305.055 63.9953C305.055 63.9933 305.055 63.9912 305.055 63.9892C305.055 63.9872 305.055 63.9851 305.056 63.9831C305.056 63.9811 305.056 63.9791 305.056 63.977C305.056 63.975 305.056 63.973 305.057 63.9709C305.057 63.9689 305.057 63.9669 305.057 63.9648C305.057 63.9628 305.057 63.9608 305.057 63.9587C305.058 63.9567 305.058 63.9547 305.058 63.9526C305.058 63.9506 305.058 63.9486 305.058 63.9466C305.059 63.9445 305.059 63.9425 305.059 63.9405C305.059 63.9384 305.059 63.9364 305.059 63.9344C305.059 63.9323 305.06 63.9303 305.06 63.9283C305.06 63.9262 305.06 63.9242 305.06 63.9222C305.06 63.9201 305.061 63.9181 305.061 63.9161C305.061 63.9141 305.061 63.912 305.061 63.91C305.061 63.908 305.062 63.9059 305.062 63.9039C305.062 63.9019 305.062 63.8998 305.062 63.8978C305.062 63.8958 305.062 63.8937 305.063 63.8917C305.063 63.8897 305.063 63.8876 305.063 63.8856C305.063 63.8836 305.063 63.8816 305.064 63.8795C305.064 63.8775 305.064 63.8755 305.064 63.8734C305.064 63.8714 305.064 63.8694 305.064 63.8673C305.065 63.8653 305.065 63.8633 305.065 63.8612C305.065 63.8592 305.065 63.8572 305.065 63.8551C305.066 63.8531 305.066 63.8511 305.066 63.8491C305.066 63.847 305.066 63.845 305.066 63.843C305.067 63.8409 305.067 63.8389 305.067 63.8369C305.067 63.8348 305.067 63.8328 305.067 63.8308C305.067 63.8287 305.068 63.8267 305.068 63.8247C305.068 63.8226 305.068 63.8206 305.068 63.8186C305.068 63.8166 305.069 63.8145 305.069 63.8125C305.069 63.8105 305.069 63.8084 305.069 63.8064C305.069 63.8044 305.069 63.8023 305.07 63.8003C305.07 63.7983 305.07 63.7962 305.07 63.7942C305.07 63.7922 305.07 63.7901 305.071 63.7881C305.071 63.7861 305.071 63.7841 305.071 63.782C305.071 63.78 305.071 63.778 305.072 63.7759C305.072 63.7739 305.072 63.7719 305.072 63.7698C305.072 63.7678 305.072 63.7658 305.072 63.7637C305.073 63.7617 305.073 63.7597 305.073 63.7576C305.073 63.7556 305.073 63.7536 305.073 63.7516C305.074 63.7495 305.074 63.7475 305.074 63.7455C305.074 63.7434 305.074 63.7414 305.074 63.7394C305.074 63.7373 305.075 63.7353 305.075 63.7333C305.075 63.7312 305.075 63.7292 305.075 63.7272C305.075 63.7251 305.076 63.7231 305.076 63.7211C305.076 63.7191 305.076 63.717 305.076 63.715C305.076 63.713 305.077 63.7109 305.077 63.7089C305.077 63.7069 305.077 63.7048 305.077 63.7028C305.077 63.7008 305.077 63.6987 305.078 63.6967C305.078 63.6947 305.078 63.6926 305.078 63.6906C305.078 63.6886 305.078 63.6866 305.079 63.6845C305.079 63.6825 305.079 63.6805 305.079 63.6784C305.079 63.6764 305.079 63.6744 305.079 63.6723C305.08 63.6703 305.08 63.6683 305.08 63.6662C305.08 63.6642 305.08 63.6622 305.08 63.6601C305.081 63.6581 305.081 63.6561 305.081 63.6541C305.081 63.652 305.081 63.65 305.081 63.648C305.082 63.6459 305.082 63.6439 305.082 63.6419C305.082 63.6398 305.082 63.6378 305.082 63.6358C305.082 63.6337 305.083 63.6317 305.083 63.6297C305.083 63.6276 305.083 63.6256 305.083 63.6236C305.083 63.6216 305.084 63.6195 305.084 63.6175C305.084 63.6155 305.084 63.6134 305.084 63.6114C305.084 63.6094 305.084 63.6073 305.085 63.6053C305.085 63.6033 305.085 63.6012 305.085 63.5992C305.085 63.5972 305.085 63.5951 305.086 63.5931C305.086 63.5911 305.086 63.5891 305.086 63.587C305.086 63.585 305.086 63.583 305.087 63.5809C305.087 63.5789 305.087 63.5769 305.087 63.5748C305.087 63.5728 305.087 63.5708 305.087 63.5687C305.088 63.5667 305.088 63.5647 305.088 63.5626C305.088 63.5606 305.088 63.5586 305.088 63.5566C305.089 63.5545 305.089 63.5525 305.089 63.5505C305.089 63.5484 305.089 63.5464 305.089 63.5444C305.089 63.5423 305.09 63.5403 305.09 63.5383C305.09 63.5362 305.09 63.5342 305.09 63.5322C305.09 63.5301 305.091 63.5281 305.091 63.5261C305.091 63.5241 305.091 63.522 305.091 63.52C305.091 63.518 305.092 63.5159 305.092 63.5139C305.092 63.5119 305.092 63.5098 305.092 63.5078C305.092 63.5058 305.092 63.5037 305.093 63.5017C305.093 63.4997 305.093 63.4976 305.093 63.4956C305.093 63.4936 305.093 63.4916 305.094 63.4895C305.094 63.4875 305.094 63.4855 305.094 63.4834C305.094 63.4814 305.094 63.4794 305.094 63.4773C305.095 63.4753 305.095 63.4733 305.095 63.4712C305.095 63.4692 305.095 63.4672 305.095 63.4651C305.096 63.4631 305.096 63.4611 305.096 63.4591C305.096 63.457 305.096 63.455 305.096 63.453C305.097 63.4509 305.097 63.4489 305.097 63.4469C305.097 63.4448 305.097 63.4428 305.097 63.4408C305.097 63.4387 305.098 63.4367 305.098 63.4347C305.098 63.4326 305.098 63.4306 305.098 63.4286C305.098 63.4266 305.099 63.4245 305.099 63.4225C305.099 63.4205 305.099 63.4184 305.099 63.4164C305.099 63.4144 305.099 63.4123 305.1 63.4103C305.1 63.4083 305.1 63.4062 305.1 63.4042C305.1 63.4022 305.1 63.4001 305.101 63.3981C305.101 63.3961 305.101 63.3941 305.101 63.392C305.101 63.39 305.101 63.388 305.102 63.3859C305.102 63.3839 305.102 63.3819 305.102 63.3798C305.102 63.3778 305.102 63.3758 305.102 63.3737C305.103 63.3717 305.103 63.3697 305.103 63.3676C305.103 63.3656 305.103 63.3636 305.103 63.3616C305.104 63.3595 305.104 63.3575 305.104 63.3555C305.104 63.3534 305.104 63.3514 305.104 63.3494C305.104 63.3473 305.105 63.3453 305.105 63.3433C305.105 63.3412 305.105 63.3392 305.105 63.3372C305.105 63.3351 305.106 63.3331 305.106 63.3311C305.106 63.3291 305.106 63.327 305.106 63.325C305.106 63.323 305.107 63.3209 305.107 63.3189C305.107 63.3169 305.107 63.3148 305.107 63.3128C305.107 63.3108 305.107 63.3087 305.108 63.3067C305.108 63.3047 305.108 63.3026 305.108 63.3006C305.108 63.2986 305.108 63.2966 305.109 63.2945C305.109 63.2925 305.109 63.2905 305.109 63.2884C305.109 63.2864 305.109 63.2844 305.109 63.2823C305.11 63.2803 305.11 63.2783 305.11 63.2762C305.11 63.2742 305.11 63.2722 305.11 63.2701C305.111 63.2681 305.111 63.2661 305.111 63.2641C305.111 63.262 305.111 63.26 305.111 63.258C305.112 63.2559 305.112 63.2539 305.112 63.2519C305.112 63.2498 305.112 63.2478 305.112 63.2458C305.112 63.2437 305.113 63.2417 305.113 63.2397C305.113 63.2376 305.113 63.2356 305.113 63.2336C305.113 63.2316 305.114 63.2295 305.114 63.2275C305.114 63.2255 305.114 63.2234 305.114 63.2214C305.114 63.2194 305.114 63.2173 305.115 63.2153C305.115 63.2133 305.115 63.2112 305.115 63.2092C305.115 63.2072 305.115 63.2051 305.116 63.2031C305.116 63.2011 305.116 63.1991 305.116 63.197C305.116 63.195 305.116 63.193 305.117 63.1909C305.117 63.1889 305.117 63.1869 305.117 63.1848C305.117 63.1828 305.117 63.1808 305.117 63.1787C305.118 63.1767 305.118 63.1747 305.118 63.1726C305.118 63.1706 305.118 63.1686 305.118 63.1666C305.119 63.1645 305.119 63.1625 305.119 63.1605C305.119 63.1584 305.119 63.1564 305.119 63.1544C305.119 63.1523 305.12 63.1503 305.12 63.1483C305.12 63.1462 305.12 63.1442 305.12 63.1422C305.12 63.1401 305.121 63.1381 305.121 63.1361C305.121 63.1341 305.121 63.132 305.121 63.13C305.121 63.128 305.122 63.1259 305.122 63.1239C305.122 63.1219 305.122 63.1198 305.122 63.1178C305.122 63.1158 305.122 63.1137 305.123 63.1117C305.123 63.1097 305.123 63.1076 305.123 63.1056C305.123 63.1036 305.123 63.1016 305.124 63.0995C305.124 63.0975 305.124 63.0955 305.124 63.0934C305.124 63.0914 305.124 63.0894 305.124 63.0873C305.125 63.0853 305.125 63.0833 305.125 63.0812C305.125 63.0792 305.125 63.0772 305.125 63.0751C305.126 63.0731 305.126 63.0711 305.126 63.0691C305.126 63.067 305.126 63.065 305.126 63.063C305.127 63.0609 305.127 63.0589 305.127 63.0569C305.127 63.0548 305.127 63.0528 305.127 63.0508C305.127 63.0487 305.128 63.0467 305.128 63.0447C305.128 63.0426 305.128 63.0406 305.128 63.0386C305.128 63.0366 305.129 63.0345 305.129 63.0325C305.129 63.0305 305.129 63.0284 305.129 63.0264C305.129 63.0244 305.129 63.0223 305.13 63.0203C305.13 63.0183 305.13 63.0162 305.13 63.0142C305.13 63.0122 305.13 63.0101 305.131 63.0081C305.131 63.0061 305.131 63.0041 305.131 63.002C305.131 63 305.131 62.998 305.132 62.9959C305.132 62.9939 305.132 62.9919 305.132 62.9898C305.132 62.9878 305.132 62.9858 305.132 62.9837C305.133 62.9817 305.133 62.9797 305.133 62.9776C305.133 62.9756 305.133 62.9736 305.133 62.9716C305.134 62.9695 305.134 62.9675 305.134 62.9655C305.134 62.9634 305.134 62.9614 305.134 62.9594C305.134 62.9573 305.135 62.9553 305.135 62.9533C305.135 62.9512 305.135 62.9492 305.135 62.9472C305.135 62.9451 305.136 62.9431 305.136 62.9411C305.136 62.9391 305.136 62.937 305.136 62.935C305.136 62.933 305.137 62.9309 305.137 62.9289C305.137 62.9269 305.137 62.9248 305.137 62.9228C305.137 62.9208 305.137 62.9187 305.138 62.9167C305.138 62.9147 305.138 62.9126 305.138 62.9106C305.138 62.9086 305.138 62.9066 305.139 62.9045C305.139 62.9025 305.139 62.9005 305.139 62.8984C305.139 62.8964 305.139 62.8944 305.139 62.8923C305.14 62.8903 305.14 62.8883 305.14 62.8862C305.14 62.8842 305.14 62.8822 305.14 62.8801C305.141 62.8781 305.141 62.8761 305.141 62.8741C305.141 62.872 305.141 62.87 305.141 62.868C305.142 62.8659 305.142 62.8639 305.142 62.8619C305.142 62.8598 305.142 62.8578 305.142 62.8558C305.142 62.8537 305.143 62.8517 305.143 62.8497C305.143 62.8476 305.143 62.8456 305.143 62.8436C305.143 62.8416 305.144 62.8395 305.144 62.8375C305.144 62.8355 305.144 62.8334 305.144 62.8314C305.144 62.8294 305.144 62.8273 305.145 62.8253C305.145 62.8233 305.145 62.8212 305.145 62.8192C305.145 62.8172 305.145 62.8151 305.146 62.8131C305.146 62.8111 305.146 62.8091 305.146 62.807C305.146 62.805 305.146 62.803 305.147 62.8009C305.147 62.7989 305.147 62.7969 305.147 62.7948C305.147 62.7928 305.147 62.7908 305.147 62.7887C305.148 62.7867 305.148 62.7847 305.148 62.7826C305.148 62.7806 305.148 62.7786 305.148 62.7766C305.149 62.7745 305.149 62.7725 305.149 62.7705C305.149 62.7684 305.149 62.7664 305.149 62.7644C305.149 62.7623 305.15 62.7603 305.15 62.7583C305.15 62.7562 305.15 62.7542 305.15 62.7522C305.15 62.7501 305.151 62.7481 305.151 62.7461C305.151 62.7441 305.151 62.742 305.151 62.74C305.151 62.738 305.152 62.7359 305.152 62.7339C305.152 62.7319 305.152 62.7298 305.152 62.7278C305.152 62.7258 305.152 62.7237 305.153 62.7217C305.153 62.7197 305.153 62.7176 305.153 62.7156C305.153 62.7136 305.153 62.7116 305.154 62.7095C305.154 62.7075 305.154 62.7055 305.154 62.7034C305.154 62.7014 305.154 62.6994 305.154 62.6973C305.155 62.6953 305.155 62.6933 305.155 62.6912C305.155 62.6892 305.155 62.6872 305.155 62.6851C305.156 62.6831 305.156 62.6811 305.156 62.6791C305.156 62.677 305.156 62.675 305.156 62.673C305.157 62.6709 305.157 62.6689 305.157 62.6669C305.157 62.6648 305.157 62.6628 305.157 62.6608C305.157 62.6587 305.158 62.6567 305.158 62.6547C305.158 62.6526 305.158 62.6506 305.158 62.6486C305.158 62.6466 305.159 62.6445 305.159 62.6425C305.159 62.6405 305.159 62.6384 305.159 62.6364C305.159 62.6344 305.159 62.6323 305.16 62.6303C305.16 62.6283 305.16 62.6262 305.16 62.6242C305.16 62.6222 305.16 62.6201 305.161 62.6181C305.161 62.6161 305.161 62.6141 305.161 62.612C305.161 62.61 305.161 62.608 305.162 62.6059C305.162 62.6039 305.162 62.6019 305.162 62.5998C305.162 62.5978 305.162 62.5958 305.162 62.5937C305.163 62.5917 305.163 62.5897 305.163 62.5876C305.163 62.5856 305.163 62.5836 305.163 62.5816C305.164 62.5795 305.164 62.5775 305.164 62.5755C305.164 62.5734 305.164 62.5714 305.164 62.5694C305.164 62.5673 305.165 62.5653 305.165 62.5633C305.165 62.5612 305.165 62.5592 305.165 62.5572C305.165 62.5551 305.166 62.5531 305.166 62.5511C305.166 62.5491 305.166 62.547 305.166 62.545C305.166 62.543 305.167 62.5409 305.167 62.5389C305.167 62.5369 305.167 62.5348 305.167 62.5328C305.167 62.5308 305.167 62.5287 305.168 62.5267C305.168 62.5247 305.168 62.5226 305.168 62.5206C305.168 62.5186 305.168 62.5166 305.169 62.5145C305.169 62.5125 305.169 62.5105 305.169 62.5084C305.169 62.5064 305.169 62.5044 305.169 62.5023C305.17 62.5003 305.17 62.4983 305.17 62.4962C305.17 62.4942 305.17 62.4922 305.17 62.4901C305.171 62.4881 305.171 62.4861 305.171 62.4841C305.171 62.482 305.171 62.48 305.171 62.478C305.172 62.4759 305.172 62.4739 305.172 62.4719C305.172 62.4698 305.172 62.4678 305.172 62.4658C305.172 62.4637 305.173 62.4617 305.173 62.4597C305.173 62.4576 305.173 62.4556 305.173 62.4536C305.173 62.4516 305.174 62.4495 305.174 62.4475C305.174 62.4455 305.174 62.4434 305.174 62.4414C305.174 62.4394 305.174 62.4373 305.175 62.4353C305.175 62.4333 305.175 62.4312 305.175 62.4292C305.175 62.4272 305.175 62.4251 305.176 62.4231C305.176 62.4211 305.176 62.4191 305.176 62.417C305.176 62.415 305.176 62.413 305.177 62.4109C305.177 62.4089 305.177 62.4069 305.177 62.4048C305.177 62.4028 305.177 62.4008 305.177 62.3987C305.178 62.3967 305.178 62.3947 305.178 62.3926C305.178 62.3906 305.178 62.3886 305.178 62.3866C305.179 62.3845 305.179 62.3825 305.179 62.3805C305.179 62.3784 305.179 62.3764 305.179 62.3744C305.179 62.3723 305.18 62.3703 305.18 62.3683C305.18 62.3662 305.18 62.3642 305.18 62.3622C305.18 62.3601 305.181 62.3581 305.181 62.3561C305.181 62.3541 305.181 62.352 305.181 62.35C305.181 62.348 305.182 62.3459 305.182 62.3439C305.182 62.3419 305.182 62.3398 305.182 62.3378C305.182 62.3358 305.182 62.3337 305.183 62.3317C305.183 62.3297 305.183 62.3276 305.183 62.3256C305.183 62.3236 305.183 62.3216 305.184 62.3195C305.184 62.3175 305.184 62.3155 305.184 62.3134C305.184 62.3114 305.184 62.3094 305.184 62.3073C305.185 62.3053 305.185 62.3033 305.185 62.3012C305.185 62.2992 305.185 62.2972 305.185 62.2951C305.186 62.2931 305.186 62.2911 305.186 62.2891C305.186 62.287 305.186 62.285 305.186 62.283C305.187 62.2809 305.187 62.2789 305.187 62.2769C305.187 62.2748 305.187 62.2728 305.187 62.2708C305.187 62.2687 305.188 62.2667 305.188 62.2647C305.188 62.2626 305.188 62.2606 305.188 62.2586C305.188 62.2566 305.189 62.2545 305.189 62.2525C305.189 62.2505 305.189 62.2484 305.189 62.2464C305.189 62.2444 305.189 62.2423 305.19 62.2403C305.19 62.2383 305.19 62.2362 305.19 62.2342C305.19 62.2322 305.19 62.2301 305.191 62.2281C305.191 62.2261 305.191 62.2241 305.191 62.222C305.191 62.22 305.191 62.218 305.192 62.2159C305.192 62.2139 305.192 62.2119 305.192 62.2098C305.192 62.2078 305.192 62.2058 305.192 62.2037C305.193 62.2017 305.193 62.1997 305.193 62.1976C305.193 62.1956 305.193 62.1936 305.193 62.1916C305.194 62.1895 305.194 62.1875 305.194 62.1855C305.194 62.1834 305.194 62.1814 305.194 62.1794C305.194 62.1773 305.195 62.1753 305.195 62.1733C305.195 62.1712 305.195 62.1692 305.195 62.1672C305.195 62.1651 305.196 62.1631 305.196 62.1611C305.196 62.1591 305.196 62.157 305.196 62.155C305.196 62.153 305.197 62.1509 305.197 62.1489C305.197 62.1469 305.197 62.1448 305.197 62.1428C305.197 62.1408 305.197 62.1387 305.198 62.1367C305.198 62.1347 305.198 62.1326 305.198 62.1306C305.198 62.1286 305.198 62.1266 305.199 62.1245C305.199 62.1225 305.199 62.1205 305.199 62.1184C305.199 62.1164 305.199 62.1144 305.199 62.1123C305.2 62.1103 305.2 62.1083 305.2 62.1062C305.2 62.1042 305.2 62.1022 305.2 62.1001C305.201 62.0981 305.201 62.0961 305.201 62.0941C305.201 62.092 305.201 62.09 305.201 62.088C305.202 62.0859 305.202 62.0839 305.202 62.0819C305.202 62.0798 305.202 62.0778 305.202 62.0758C305.202 62.0737 305.203 62.0717 305.203 62.0697C305.203 62.0676 305.203 62.0656 305.203 62.0636C305.203 62.0616 305.204 62.0595 305.204 62.0575C305.204 62.0555 305.204 62.0534 305.204 62.0514C305.204 62.0494 305.204 62.0473 305.205 62.0453C305.205 62.0433 305.205 62.0412 305.205 62.0392C305.205 62.0372 305.205 62.0351 305.206 62.0331C305.206 62.0311 305.206 62.0291 305.206 62.027C305.206 62.025 305.206 62.023 305.207 62.0209C305.207 62.0189 305.207 62.0169 305.207 62.0148C305.207 62.0128 305.207 62.0108 305.207 62.0087C305.208 62.0067 305.208 62.0047 305.208 62.0026C305.208 62.0006 305.208 61.9986 305.208 61.9966C305.209 61.9945 305.209 61.9925 305.209 61.9905C305.209 61.9884 305.209 61.9864 305.209 61.9844C305.209 61.9823 305.21 61.9803 305.21 61.9783C305.21 61.9762 305.21 61.9742 305.21 61.9722C305.21 61.9701 305.211 61.9681 305.211 61.9661C305.211 61.9641 305.211 61.962 305.211 61.96C305.211 61.958 305.212 61.9559 305.212 61.9539C305.212 61.9519 305.212 61.9498 305.212 61.9478C305.212 61.9458 305.212 61.9437 305.213 61.9417C305.213 61.9397 305.213 61.9376 305.213 61.9356C305.213 61.9336 305.213 61.9316 305.214 61.9295C305.214 61.9275 305.214 61.9255 305.214 61.9234C305.214 61.9214 305.214 61.9194 305.214 61.9173C305.215 61.9153 305.215 61.9133 305.215 61.9112C305.215 61.9092 305.215 61.9072 305.215 61.9051C305.216 61.9031 305.216 61.9011 305.216 61.8991C305.216 61.897 305.216 61.895 305.216 61.893C305.217 61.8909 305.217 61.8889 305.217 61.8869C305.217 61.8848 305.217 61.8828 305.217 61.8808C305.217 61.8787 305.218 61.8767 305.218 61.8747C305.218 61.8726 305.218 61.8706 305.218 61.8686C305.218 61.8666 305.219 61.8645 305.219 61.8625C305.219 61.8605 305.219 61.8584 305.219 61.8564C305.219 61.8544 305.219 61.8523 305.22 61.8503C305.22 61.8483 305.22 61.8462 305.22 61.8442C305.22 61.8422 305.22 61.8401 305.221 61.8381C305.221 61.8361 305.221 61.8341 305.221 61.832C305.221 61.83 305.221 61.828 305.222 61.8259C305.222 61.8239 305.222 61.8219 305.222 61.8198C305.222 61.8178 305.222 61.8158 305.222 61.8137C305.223 61.8117 305.223 61.8097 305.223 61.8076C305.223 61.8056 305.223 61.8036 305.223 61.8016C305.224 61.7995 305.224 61.7975 305.224 61.7955C305.224 61.7934 305.224 61.7914 305.224 61.7894C305.224 61.7873 305.225 61.7853 305.225 61.7833C305.225 61.7812 305.225 61.7792 305.225 61.7772C305.225 61.7751 305.226 61.7731 305.226 61.7711C305.226 61.7691 305.226 61.767 305.226 61.765C305.226 61.763 305.227 61.7609 305.227 61.7589C305.227 61.7569 305.227 61.7548 305.227 61.7528C305.227 61.7508 305.227 61.7487 305.228 61.7467C305.228 61.7447 305.228 61.7426 305.228 61.7406C305.228 61.7386 305.228 61.7366 305.229 61.7345C305.229 61.7325 305.229 61.7305 305.229 61.7284C305.229 61.7264 305.229 61.7244 305.229 61.7223C305.23 61.7203 305.23 61.7183 305.23 61.7162C305.23 61.7142 305.23 61.7122 305.23 61.7101C305.231 61.7081 305.231 61.7061 305.231 61.7041C305.231 61.702 305.231 61.7 305.231 61.698C305.232 61.6959 305.232 61.6939 305.232 61.6919C305.232 61.6898 305.232 61.6878 305.232 61.6858C305.232 61.6837 305.233 61.6817 305.233 61.6797C305.233 61.6776 305.233 61.6756 305.233 61.6736C305.233 61.6716 305.234 61.6695 305.234 61.6675C305.234 61.6655 305.234 61.6634 305.234 61.6614C305.234 61.6594 305.234 61.6573 305.235 61.6553C305.235 61.6533 305.235 61.6512 305.235 61.6492C305.235 61.6472 305.235 61.6451 305.236 61.6431C305.236 61.6411 305.236 61.6391 305.236 61.637C305.236 61.635 305.236 61.633 305.237 61.6309C305.237 61.6289 305.237 61.6269 305.237 61.6248C305.237 61.6228 305.237 61.6208 305.237 61.6187C305.238 61.6167 305.238 61.6147 305.238 61.6126C305.238 61.6106 305.238 61.6086 305.238 61.6066C305.239 61.6045 305.239 61.6025 305.239 61.6005C305.239 61.5984 305.239 61.5964 305.239 61.5944C305.239 61.5923 305.24 61.5903 305.24 61.5883C305.24 61.5862 305.24 61.5842 305.24 61.5822C305.24 61.5801 305.241 61.5781 305.241 61.5761C305.241 61.5741 305.241 61.572 305.241 61.57C305.241 61.568 305.242 61.5659 305.242 61.5639C305.242 61.5619 305.242 61.5598 305.242 61.5578C305.242 61.5558 305.242 61.5537 305.243 61.5517C305.243 61.5497 305.243 61.5476 305.243 61.5456C305.243 61.5436 305.243 61.5416 305.244 61.5395C305.244 61.5375 305.244 61.5355 305.244 61.5334C305.244 61.5314 305.244 61.5294 305.244 61.5273C305.245 61.5253 305.245 61.5233 305.245 61.5212C305.245 61.5192 305.245 61.5172 305.245 61.5151C305.246 61.5131 305.246 61.5111 305.246 61.5091C305.246 61.507 305.246 61.505 305.246 61.503C305.247 61.5009 305.247 61.4989 305.247 61.4969C305.247 61.4948 305.247 61.4928 305.247 61.4908C305.247 61.4887 305.248 61.4867 305.248 61.4847C305.248 61.4826 305.248 61.4806 305.248 61.4786C305.248 61.4766 305.249 61.4745 305.249 61.4725C305.249 61.4705 305.249 61.4684 305.249 61.4664C305.249 61.4644 305.249 61.4623 305.25 61.4603C305.25 61.4583 305.25 61.4562 305.25 61.4542C305.25 61.4522 305.25 61.4501 305.251 61.4481C305.251 61.4461 305.251 61.4441 305.251 61.442C305.251 61.44 305.251 61.438 305.252 61.4359C305.252 61.4339 305.252 61.4319 305.252 61.4298C305.252 61.4278 305.252 61.4258 305.252 61.4237C305.253 61.4217 305.253 61.4197 305.253 61.4176C305.253 61.4156 305.253 61.4136 305.253 61.4116C305.254 61.4095 305.254 61.4075 305.254 61.4055C305.254 61.4034 305.254 61.4014 305.254 61.3994C305.254 61.3973 305.255 61.3953 305.255 61.3933C305.255 61.3912 305.255 61.3892 305.255 61.3872C305.255 61.3851 305.256 61.3831 305.256 61.3811C305.256 61.3791 305.256 61.377 305.256 61.375C305.256 61.373 305.257 61.3709 305.257 61.3689C305.257 61.3669 305.257 61.3648 305.257 61.3628C305.257 61.3608 305.257 61.3587 305.258 61.3567C305.258 61.3547 305.258 61.3526 305.258 61.3506C305.258 61.3486 305.258 61.3466 305.259 61.3445C305.259 61.3425 305.259 61.3405 305.259 61.3384C305.259 61.3364 305.259 61.3344 305.259 61.3323C305.26 61.3303 305.26 61.3283 305.26 61.3262C305.26 61.3242 305.26 61.3222 305.26 61.3201C305.261 61.3181 305.261 61.3161 305.261 61.3141C305.261 61.312 305.261 61.31 305.261 61.308C305.262 61.3059 305.262 61.3039 305.262 61.3019C305.262 61.2998 305.262 61.2978 305.262 61.2958C305.262 61.2937 305.263 61.2917 305.263 61.2897C305.263 61.2876 305.263 61.2856 305.263 61.2836C305.263 61.2816 305.264 61.2795 305.264 61.2775C305.264 61.2755 305.264 61.2734 305.264 61.2714C305.264 61.2694 305.264 61.2673 305.265 61.2653C305.265 61.2633 305.265 61.2612 305.265 61.2592C305.265 61.2572 305.265 61.2551 305.266 61.2531C305.266 61.2511 305.266 61.2491 305.266 61.247C305.266 61.245 305.266 61.243 305.267 61.2409C305.267 61.2389 305.267 61.2369 305.267 61.2348C305.267 61.2328 305.267 61.2308 305.267 61.2287C305.268 61.2267 305.268 61.2247 305.268 61.2226C305.268 61.2206 305.268 61.2186 305.268 61.2166C305.269 61.2145 305.269 61.2125 305.269 61.2105C305.269 61.2084 305.269 61.2064 305.269 61.2044C305.269 61.2023 305.27 61.2003 305.27 61.1983C305.27 61.1962 305.27 61.1942 305.27 61.1922C305.27 61.1901 305.271 61.1881 305.271 61.1861C305.271 61.1841 305.271 61.182 305.271 61.18C305.271 61.178 305.272 61.1759 305.272 61.1739C305.272 61.1719 305.272 61.1698 305.272 61.1678C305.272 61.1658 305.272 61.1637 305.273 61.1617C305.273 61.1597 305.273 61.1576 305.273 61.1556C305.273 61.1536 305.273 61.1516 305.274 61.1495C305.274 61.1475 305.274 61.1455 305.274 61.1434C305.274 61.1414 305.274 61.1394 305.274 61.1373C305.275 61.1353 305.275 61.1333 305.275 61.1312L303.281 60.9778ZM303.041 64.0979L301.047 63.9445C300.971 64.9336 300.856 65.9233 300.704 66.9137L302.681 67.2178L304.658 67.522C304.825 66.4324 304.951 65.3421 305.035 64.2512L303.041 64.0979ZM302.681 67.2178L300.691 67.0126L295.651 115.853L297.641 116.058L299.63 116.263L304.67 67.4231L302.681 67.2178ZM297.641 116.058L295.645 115.925C295.615 116.381 295.464 116.65 294.946 116.909L295.841 118.698L296.735 120.487C298.458 119.625 299.507 118.134 299.636 116.191L297.641 116.058ZM295.841 118.698L294.893 116.937C294.31 117.251 293.051 117.538 290.801 117.538V119.538V121.538C293.191 121.538 295.292 121.265 296.789 120.459L295.841 118.698ZM290.801 119.538V117.538H288.041V119.538V121.538H290.801V119.538Z" fill="black" mask="url(#path-2-outside-1_83_159)"/>
</svg>
