<svg width="34" height="37" viewBox="0 0 34 37" fill="none" xmlns="http://www.w3.org/2000/svg">
<path d="M2 9H31.5" stroke="black" stroke-width="3.5" stroke-linecap="round"/>
<path d="M28 31.5632V11C28 9.89543 27.1046 9 26 9H7C5.89543 9 5 9.89543 5 11V31.7984C5 32.2526 5.15456 32.6932 5.43826 33.0478L6.39951 34.2494C6.77906 34.7238 7.35368 35 7.96125 35H24.2759C24.7438 35 25.1968 34.836 25.5563 34.5364L27.2804 33.0997C27.7364 32.7197 28 32.1568 28 31.5632Z" stroke="black" stroke-width="3.5"/>
<path d="M10 5.44187V6C10 7.65685 11.3431 9 13 9H20.5C22.1569 9 23.5 7.65685 23.5 6V5.24264C23.5 4.44699 23.1839 3.68393 22.6213 3.12132L22.3787 2.87868C21.8161 2.31607 21.053 2 20.2574 2H13.5523C12.8711 2 12.2102 2.23184 11.6783 2.65739L11.1259 3.09927C10.4143 3.66858 10 4.53052 10 5.44187Z" stroke="black" stroke-width="3"/>
</svg>
